<svg width="60" height="60" viewBox="0 0 60 60" fill="none" xmlns="http://www.w3.org/2000/svg">
<mask id="mask0_801_26583" style="mask-type:alpha" maskUnits="userSpaceOnUse" x="0" y="0" width="60" height="60">
<path d="M0 0H60V60H0V0Z" fill="white"/>
</mask>
<g mask="url(#mask0_801_26583)">
<path d="M22.5 27.5C22.5 29.4891 23.2902 31.3968 24.6967 32.8033C26.1032 34.2098 28.0109 35 30 35C31.9891 35 33.8968 34.2098 35.3033 32.8033C36.7098 31.3968 37.5 29.4891 37.5 27.5C37.5 25.5109 36.7098 23.6032 35.3033 22.1967C33.8968 20.7902 31.9891 20 30 20C28.0109 20 26.1032 20.7902 24.6967 22.1967C23.2902 23.6032 22.5 25.5109 22.5 27.5Z" stroke="#007CFB" stroke-width="2" stroke-linecap="round" stroke-linejoin="round"/>
<path d="M44.1425 41.6423L33.535 52.2498C32.5975 53.1863 31.3265 53.7124 30.0013 53.7124C28.6761 53.7124 27.405 53.1863 26.4675 52.2498L15.8575 41.6423C13.0606 38.8452 11.1558 35.2815 10.3842 31.4019C9.61261 27.5223 10.0087 23.501 11.5225 19.8466C13.0363 16.1921 15.5998 13.0686 18.8887 10.871C22.1777 8.67344 26.0444 7.50049 30 7.50049C33.9556 7.50049 37.8223 8.67344 41.1113 10.871C44.4003 13.0686 46.9637 16.1921 48.4775 19.8466C49.9913 23.501 50.3874 27.5223 49.6158 31.4019C48.8442 35.2815 46.9395 38.8452 44.1425 41.6423Z" stroke="#007CFB" stroke-width="2" stroke-linecap="round" stroke-linejoin="round"/>
</g>
</svg>
