<svg width="40" height="40" viewBox="0 0 40 40" fill="none" xmlns="http://www.w3.org/2000/svg">
<mask id="mask0_801_24105" style="mask-type:alpha" maskUnits="userSpaceOnUse" x="0" y="0" width="40" height="40">
<path d="M0 0H40V40H0V0Z" fill="white"/>
</mask>
<g mask="url(#mask0_801_24105)">
<path d="M20.0002 3.33337C19.6368 3.33337 19.2802 3.33671 18.9302 3.34171L17.9035 3.37004L17.4052 3.39171L16.4402 3.44837L15.5185 3.52504C7.5435 4.29837 4.2985 7.54337 3.52516 15.5184L3.4485 16.44L3.39183 17.405C3.3835 17.5684 3.37516 17.735 3.37016 17.9034L3.34183 18.93L3.33516 19.46L3.3335 20C3.3335 20.3634 3.33683 20.72 3.34183 21.07L3.37016 22.0967L3.39183 22.595L3.4485 23.56L3.52516 24.4817C4.2985 32.4567 7.5435 35.7017 15.5185 36.475L16.4402 36.5517L17.4052 36.6084C17.5685 36.6167 17.7352 36.625 17.9035 36.63L18.9302 36.6584L20.0002 36.6667L21.0702 36.6584L22.0968 36.63L22.5952 36.6084L23.5602 36.5517L24.4818 36.475C32.4568 35.7017 35.7018 32.4567 36.4752 24.4817L36.5518 23.56L36.6085 22.595C36.6168 22.4317 36.6252 22.265 36.6302 22.0967L36.6585 21.07L36.6668 20L36.6585 18.93L36.6302 17.9034L36.6085 17.405L36.5518 16.44L36.4752 15.5184C35.7018 7.54337 32.4568 4.29837 24.4818 3.52504L23.5602 3.44837L22.5952 3.39171C22.4291 3.3836 22.263 3.37638 22.0968 3.37004L21.0702 3.34171L20.5402 3.33504L20.0002 3.33337ZM23.8218 15.4884C24.1218 15.1895 24.5242 15.0159 24.9475 15.003C25.3707 14.9901 25.783 15.1387 26.1006 15.4188C26.4182 15.6988 26.6173 16.0893 26.6575 16.5108C26.6977 16.9324 26.5758 17.3534 26.3168 17.6884L26.1785 17.845L19.5118 24.5117C19.2248 24.7987 18.843 24.9711 18.438 24.9965C18.0329 25.022 17.6325 24.8988 17.3118 24.65L17.1552 24.5117L13.8218 21.1784C13.5229 20.8784 13.3494 20.476 13.3364 20.0527C13.3235 19.6295 13.4722 19.2172 13.7522 18.8996C14.0323 18.582 14.4227 18.3829 14.8443 18.3427C15.2658 18.3026 15.6868 18.4244 16.0218 18.6834L16.1785 18.8217L18.3335 20.975L23.8218 15.4884Z" fill="#1239AC"/>
</g>
</svg>
