<svg width="100" height="100" viewBox="0 0 100 100" fill="none" xmlns="http://www.w3.org/2000/svg">
<mask id="mask0_801_23161" style="mask-type:alpha" maskUnits="userSpaceOnUse" x="0" y="0" width="100" height="100">
<rect width="100" height="100" fill="white"/>
</mask>
<g mask="url(#mask0_801_23161)">
<path fill-rule="evenodd" clip-rule="evenodd" d="M86.7243 0.544302C86.3052 0.853204 83.7512 3.33848 81.0488 6.06701C76.8334 10.323 76.1033 11.1468 75.9096 11.8654C75.7449 12.4772 75.7361 13.4504 75.877 15.4736C75.9831 16.9975 76.0415 18.2724 76.0071 18.307C75.9726 18.3414 75.1273 17.7451 74.1287 16.9817C68.2479 12.4861 61.4526 9.55167 53.6914 8.15586C51.4943 7.76079 50.5553 7.70491 46.1041 7.70491C41.6796 7.70491 40.707 7.76216 38.566 8.14765C28.8848 9.89067 20.8281 13.9701 13.9887 20.5922C7.76029 26.6227 3.49546 33.9426 1.36324 42.2622C0.277492 46.4985 0.00571331 48.761 4.71901e-05 53.6155C-0.0095266 61.7181 1.4369 67.8576 5.00401 74.8543C7.50902 79.7674 11.7252 85.3653 12.9208 85.3653C13.6247 85.3653 14.0737 85.0656 14.3429 84.416C14.6429 83.6915 14.4494 83.3226 12.5941 81.0829C7.61277 75.069 4.34303 67.4942 3.18382 59.2816C2.81201 56.6483 2.86515 50.3776 3.2821 47.6563C5.20018 35.1409 11.8629 24.6816 22.4039 17.639C29.7802 12.7108 38.5 10.2783 47.6672 10.5917C57.4254 10.9254 66.1436 14.2262 73.8554 20.5074C74.6115 21.1231 75.3331 21.7512 75.4593 21.903C75.6459 22.1279 75.0763 22.7907 72.3922 25.4713L69.0958 28.7633L67.5646 27.5281C64.1253 24.7539 60.2338 22.6627 56.1663 21.4027C52.245 20.188 50.9299 20.0086 46.0064 20.0172C41.0904 20.0258 39.4388 20.272 35.4557 21.5896C24.7151 25.1429 16.2231 34.1454 13.3916 44.9798C12.4544 48.5662 12.3024 49.8171 12.3074 53.9086C12.3129 58.2848 12.6609 60.5161 13.9502 64.4427C18.351 77.845 30.6893 87.1142 44.8341 87.6443C49.2926 87.8115 52.5959 87.3412 56.823 85.9382C67.7545 82.3093 76.1414 73.3239 78.9951 62.1833L79.508 60.1806L79.1012 59.6335C78.6524 59.0298 77.7461 58.8235 77.0882 59.1754C76.8696 59.2926 76.5956 59.7523 76.4702 60.2128C74.6117 67.0417 72.4789 71.0088 68.4183 75.1898C63.8221 79.922 58.4162 82.8685 51.8679 84.2108C48.9321 84.8126 43.6223 84.8591 40.731 84.3083C36.5168 83.5055 32.2549 81.764 28.6528 79.3731C26.3983 77.8769 22.2491 73.7271 20.6585 71.3782C18.2274 67.788 16.357 63.2401 15.6032 59.0863C15.0708 56.1516 15.1104 51.0017 15.688 48.095C17.8983 36.9708 25.6764 27.9912 36.1319 24.4925C39.9616 23.2109 41.5288 22.9704 46.1041 22.9614C49.6325 22.9544 50.4848 23.014 52.1899 23.386C57.3107 24.5038 62.7963 27.169 65.9945 30.0931L66.9328 30.951L63.6499 34.2126L60.3671 37.4741L59.0971 36.506C56.5176 34.5395 52.7458 32.9342 49.4739 32.41C47.1082 32.0309 42.8414 32.2629 40.5357 32.8959C30.7094 35.5934 24.1412 44.5656 24.5808 54.6901C25.0068 64.4982 31.565 72.4313 41.2508 74.8551C43.5243 75.4238 48.2402 75.4803 50.5461 74.966C58.5231 73.1875 64.898 67.1564 67.0218 59.3793C67.652 57.0719 67.8829 52.7998 67.505 50.4411C66.9808 47.1692 65.3755 43.3974 63.409 40.8179L62.4409 39.5479L65.7024 36.2651L68.964 32.9823L69.8262 33.9205C70.3006 34.4365 71.2109 35.65 71.8494 36.6172C74.9781 41.3564 76.6283 46.233 77.0339 51.9378C77.1884 54.1114 77.2523 54.4006 77.6495 54.722C78.2367 55.1975 78.8537 55.1753 79.516 54.6542L80.0586 54.2273L79.9398 51.6746C79.6209 44.8246 76.9626 38.023 72.3869 32.3504L71.1517 30.8192L74.4538 27.5045L77.7562 24.19L78.6192 25.1282C81.1879 27.921 84.1634 32.6286 85.8582 36.5812C92.8832 52.9655 89.2563 71.8032 76.6496 84.4099C63.6624 97.397 43.8044 100.736 27.3062 92.7053C24.4943 91.3366 22.9132 90.3845 20.239 88.4499C19.1808 87.6841 18.2069 87.1238 17.9345 87.1238C17.3013 87.1238 16.5035 87.9524 16.5035 88.6103C16.5035 90.2935 25.1479 95.4962 31.4156 97.5852C39.9722 100.437 48.9958 100.769 57.6597 98.5496C70.7152 95.2058 81.6189 86.3204 87.625 74.1308C92.671 63.8898 93.7175 51.9686 90.5444 40.873C88.9878 35.4296 85.9004 29.4554 82.4032 25.1204L81.3249 23.7836L82.5689 23.8944C86.0407 24.2037 87.2202 24.2287 88.0314 24.0102C88.7733 23.8104 89.5468 23.1265 93.848 18.8662C96.5765 16.1638 99.0618 13.6098 99.3707 13.1907C100.002 12.3335 100.08 11.5807 99.6263 10.7039C99.1857 9.85217 98.4053 9.61732 95.4873 9.45848C94.0633 9.38091 92.8984 9.26309 92.8984 9.19647C92.8984 9.12984 93.7044 8.26605 94.6895 7.27702C96.1801 5.78019 96.4804 5.37633 96.4804 4.86892C96.4804 4.07488 95.8401 3.43461 95.0461 3.43461C94.5387 3.43461 94.1348 3.73491 92.638 5.22549C91.6489 6.21062 90.7852 7.01657 90.7185 7.01657C90.6519 7.01657 90.5341 5.8517 90.4565 4.42774C90.2977 1.50969 90.0628 0.729331 89.2112 0.288741C88.3343 -0.164744 87.5815 -0.0873722 86.7243 0.544302ZM87.6995 7.79811L87.8263 10.045L83.4262 14.4396C79.3718 18.4887 79.0258 18.788 79.0201 18.2496C79.017 17.928 78.9328 16.5659 78.8334 15.2227L78.6524 12.7804L82.9913 8.43056L87.33 4.08094L87.4513 4.81597C87.5182 5.22041 87.6299 6.56231 87.6995 7.79811ZM94.7309 12.416L95.8794 12.5315L91.5071 16.9137L87.1346 21.296L86.2554 21.1977C85.7718 21.1438 84.419 21.0428 83.2492 20.9736L81.1223 20.8476L85.4961 16.4585L89.87 12.0694L91.7261 12.1849C92.747 12.2486 94.0991 12.3525 94.7309 12.416ZM51.1841 35.829C52.1512 36.1154 53.6453 36.7014 54.5044 37.131C56.035 37.8965 58.1202 39.3234 58.1202 39.6054C58.1202 39.6837 56.6755 41.1905 54.9096 42.9538L51.6991 46.1599L50.4647 45.554C48.6974 44.6867 47.6359 44.4722 45.5596 44.563C43.9635 44.6328 43.5637 44.7287 42.2271 45.3635C36.3378 48.1602 34.9881 55.7669 39.5681 60.3469C44.143 64.922 51.7579 63.5705 54.5515 57.6879C55.1863 56.3513 55.2822 55.9515 55.352 54.3554C55.4428 52.2791 55.2283 51.2176 54.361 49.4503L53.7551 48.2159L56.9612 45.0054C58.7245 43.2395 60.2313 41.7948 60.3096 41.7948C60.5916 41.7948 62.0185 43.88 62.784 45.4106C63.2136 46.2697 63.8062 47.7638 64.1007 48.7309C64.5911 50.3407 64.6366 50.7619 64.6393 53.7132C64.6431 57.5416 64.3408 58.9208 62.8193 62.017C59.2606 69.2591 51.5584 73.3502 43.5293 72.2631C41.419 71.9773 38.4949 70.9451 36.5768 69.8089C34.3973 68.5178 31.3972 65.5177 30.1061 63.3382C23.5223 52.224 29.8548 38.0995 42.6132 35.4423C44.7915 34.9886 48.9846 35.1778 51.1841 35.829ZM48.1119 47.7591C48.664 47.923 49.1734 48.1505 49.2439 48.2646C49.3142 48.3787 48.307 49.549 47.0054 50.8657C44.4125 53.4885 44.2171 53.8955 45.1184 54.7966C46.0195 55.6979 46.4265 55.5025 49.0493 52.9096C50.3707 51.6033 51.5371 50.6011 51.653 50.6727C52.0795 50.9362 52.5043 52.9653 52.4091 54.2847C52.243 56.5871 50.8865 58.5361 48.7418 59.5532C47.1758 60.2959 44.9886 60.283 43.4387 59.522C42.1507 58.8893 40.8696 57.5789 40.277 56.2876C39.643 54.906 39.6818 52.6113 40.3639 51.1564C41.1503 49.4787 42.6433 48.1932 44.4433 47.6436C45.2733 47.3902 47.0589 47.4465 48.1119 47.7591Z" fill="#007CFB"/>
</g>
</svg>
