<svg width="100" height="100" viewBox="0 0 100 100" fill="none" xmlns="http://www.w3.org/2000/svg">
<mask id="mask0_801_23168" style="mask-type:alpha" maskUnits="userSpaceOnUse" x="0" y="0" width="100" height="100">
<rect width="100" height="100" fill="white"/>
</mask>
<g mask="url(#mask0_801_23168)">
<path fill-rule="evenodd" clip-rule="evenodd" d="M31.7355 12.1972C29.211 12.7783 26.7077 14.3386 25.2564 16.2358C24.8098 16.8194 24.0754 18.0448 23.6242 18.959C22.8616 20.5041 22.7187 20.6714 21.596 21.3356C20.0425 22.2544 17.785 24.3472 16.6861 25.8872C15.5059 27.5412 13.0718 32.57 13.0718 33.3545C13.0718 33.7952 13.2227 34.0965 13.5868 34.3829C14.7836 35.3242 15.2556 34.9007 17.1219 31.2108C18.8902 27.7149 19.9399 26.2462 21.6235 24.912C22.9818 23.8358 25.4608 22.5839 27.0114 22.1914C34.8419 20.2088 42.5951 25.1079 44.2275 33.0697C44.4841 34.3215 44.5363 36.184 44.5363 44.0878V53.5997L43.5318 52.0599C42.9793 51.213 41.6803 49.6629 40.6451 48.6148C39.0807 47.0312 38.662 46.7093 38.1658 46.7093C37.4177 46.7093 36.7191 47.4137 36.7191 48.1676C36.7191 48.5972 37.0919 49.1082 38.38 50.4446C41.2193 53.3896 42.9184 56.3955 43.8744 60.164C45.0886 64.9507 44.5488 69.7931 42.2912 74.3629C36.2565 86.5792 20.5772 89.736 10.1038 80.8432C7.14769 78.3335 4.61978 74.2404 3.5664 70.2589C3.12394 68.586 3.04694 67.8826 3.03131 65.3731C3.01196 62.297 3.17495 61.1592 3.99733 58.6307C6.01008 52.4408 10.9326 47.5208 17.1759 45.4591C21.9995 43.8664 26.685 44.0229 31.7623 45.9468C32.7737 46.33 33.0422 46.3646 33.4753 46.1674C34.5894 45.6597 34.6238 44.2416 33.538 43.5736C32.6242 43.0112 29.5637 42.0663 27.4798 41.7029C24.879 41.2495 20.6645 41.4188 18.1364 42.078C15.7053 42.712 13.5184 43.5949 11.7526 44.6557C10.9733 45.124 10.3358 45.4337 10.3358 45.3442C10.3358 45.2547 10.9954 43.8347 11.8015 42.1886C12.6077 40.5425 13.2672 39.0511 13.2672 38.8747C13.2672 38.6982 13.0849 38.3222 12.8621 38.039C12.4136 37.4687 11.4405 37.3366 10.8683 37.7683C10.6066 37.9657 6.26141 46.7253 2.11845 55.407C-0.821042 61.567 -0.692643 69.4505 2.44853 75.6885C5.76442 82.273 11.8384 86.9143 19.1761 88.4704C21.3931 88.9404 26.0526 88.9404 28.2696 88.4704C38.6583 86.2673 46.0748 78.1514 47.3085 67.6358L47.5397 65.6662H50.0192H52.4986L52.6356 67.2367C53.5438 77.6491 61.287 86.252 71.7473 88.4704C73.9439 88.9361 78.6249 88.9404 80.8008 88.4784C90.3631 86.4482 97.5226 79.3728 99.5658 69.934C99.7366 69.1453 99.9213 67.4007 99.9764 66.0571C100.153 61.767 99.3512 58.2117 97.2814 54.0986C96.7237 52.9903 93.5952 46.5432 90.3289 39.7715C87.0627 32.9998 84.0741 26.9756 83.6876 26.3844C82.7124 24.8929 79.8288 22.123 78.4058 21.3108C77.2895 20.6737 77.1697 20.5318 76.343 18.8679C75.1935 16.5542 73.9844 15.1021 72.2306 13.9292C70.1897 12.5641 68.3911 12.0194 65.9361 12.0231C61.9245 12.029 58.6569 13.8201 56.4618 17.2165C55.1209 19.2908 54.8551 20.3684 54.7539 24.137C54.6679 27.3371 54.6429 27.506 54.0716 28.7296C53.7455 29.4283 53.2991 30.7255 53.0798 31.6122L52.681 33.2245H50.0084H47.3359L46.937 31.6122C46.7177 30.7255 46.2714 29.4283 45.9452 28.7296C45.374 27.506 45.3489 27.3371 45.2629 24.137C45.1883 21.3558 45.1033 20.6164 44.7411 19.5984C43.5664 16.2956 40.7135 13.4906 37.5149 12.4935C35.8599 11.9776 33.2675 11.8447 31.7355 12.1972ZM35.5543 15.0509C37.8815 15.4922 40.1958 17.1378 41.273 19.1171C41.8632 20.2012 42.3866 22.0478 42.3866 23.0451V23.7277L41.6537 23.041C40.4455 21.909 39.5317 21.3141 37.639 20.4277C35.1427 19.2584 33.5664 18.8982 30.8561 18.8775C29.62 18.8681 28.235 18.9273 27.7781 19.0092C27.2768 19.0991 26.9475 19.0841 26.9475 18.9715C26.9475 18.8689 27.4392 18.2537 28.0401 17.6046C30.0365 15.4484 32.7635 14.5215 35.5543 15.0509ZM67.4241 15.0504C69.1218 15.3673 70.7521 16.282 71.9767 17.6046C73.1552 18.8775 73.3314 19.2742 72.6297 19.0729C71.6365 18.7884 68.7505 18.7204 67.2119 18.9455C64.1252 19.3968 60.6827 20.9403 58.6139 22.8002L57.6303 23.6845V23.0236C57.6303 22.0458 58.1585 20.1924 58.7438 19.1171C59.7816 17.2103 62.1445 15.4891 64.3093 15.0631C65.5036 14.8281 66.2171 14.8252 67.4241 15.0504ZM72.9717 22.1793C74.6113 22.5993 77.0566 23.8426 78.4437 24.9615C80.5435 26.6553 81.3303 27.9584 85.6601 36.9147C87.8747 41.4956 89.6854 45.3042 89.6838 45.378C89.6823 45.4519 89.1315 45.1787 88.4596 44.7708C80.5198 39.9507 70.0849 40.3965 62.4617 45.8817C60.4927 47.2985 57.7878 50.1079 56.4991 52.0747L55.4805 53.629V44.1281C55.4805 36.6592 55.5409 34.3115 55.7625 33.1526C56.8571 27.4325 61.4433 22.9401 67.2529 21.8979C68.5946 21.6571 71.4899 21.7996 72.9717 22.1793ZM52.549 49.5431V62.7347H50.0084H47.4678V49.5431V36.3514H50.0084H52.549V49.5431ZM79.776 44.6565C93.518 47.0529 101.041 61.857 94.8731 74.3629C89.9015 84.4421 77.7355 88.7563 67.6252 84.0251C63.204 81.956 59.8826 78.7166 57.7194 74.3629C52.1855 63.2266 57.58 49.7936 69.2629 45.618C72.6971 44.3907 76.3407 44.0575 79.776 44.6565ZM20.6407 47.682C16.7393 48.3879 12.5871 50.8222 10.1095 53.8565C5.36946 59.6616 4.71065 67.4517 8.4049 74.0154C9.58003 76.1036 12.789 79.3159 14.8686 80.4862C19.4599 83.0698 24.7115 83.547 29.6456 81.8294C34.1093 80.2753 38.2137 76.3778 40.0621 71.938C42.3035 66.5539 41.6637 60.0929 38.4152 55.3083C37.3439 53.7304 36.2561 52.5475 34.795 51.3714C33.1825 50.0733 30.038 48.4747 28.1201 47.9781C26.6637 47.6009 22.0898 47.4199 20.6407 47.682ZM72.8739 47.7846C68.2905 48.7113 64.2495 51.4085 61.6016 55.3083C58.4493 59.9514 57.7401 66.2398 59.7771 71.4869C61.4136 75.7024 64.9634 79.4561 69.0783 81.3219C74.0839 83.5916 80.1872 83.2787 85.1252 80.4995C87.2288 79.3154 90.43 76.1155 91.6119 74.0154C93.3728 70.8868 94.1025 67.7845 93.921 64.2005C93.603 57.9322 90.0407 52.3895 84.4658 49.4891C82.6397 48.5392 82.0377 48.4719 81.3664 49.1434C80.4831 50.0266 80.8268 51.0289 82.2226 51.6403C85.5328 53.0904 88.5792 56.212 89.9316 59.5404C90.7481 61.55 90.9516 62.6988 90.9473 65.2753C90.9442 67.2758 90.8611 67.9829 90.4886 69.1791C88.8741 74.3666 85.0923 78.0402 79.8981 79.4666C79.0185 79.7082 77.9325 79.8123 76.294 79.8123C72.8921 79.8123 70.3796 79.0218 67.6971 77.1078C60.5389 71.9998 59.4923 61.6278 65.4874 55.2085C68.2221 52.2801 71.1428 50.8671 75.3409 50.4417C76.754 50.2984 77.1211 50.1907 77.4093 49.8349C77.8711 49.2646 77.8524 48.6388 77.3546 48.006C76.9813 47.5313 76.84 47.4924 75.5469 47.5094C74.7755 47.5196 73.5726 47.6433 72.8739 47.7846ZM26.6895 50.7292C29.7816 51.3678 32.1972 52.7331 34.4243 55.1004C36.8404 57.6687 38.2043 60.8129 38.4144 64.2982C38.8377 71.3247 34.2828 77.5563 27.327 79.4666C25.5982 79.9413 21.8475 79.9413 20.1187 79.4666C13.739 77.7146 9.4018 72.4313 9.02716 65.9558C8.47135 56.3474 17.2499 48.7793 26.6895 50.7292Z" fill="#007CFB"/>
</g>
</svg>
