<svg width="120" height="140" viewBox="0 0 120 140" fill="none" xmlns="http://www.w3.org/2000/svg">
<g filter="url(#filter0_d_444_129)">
<path d="M10 10C10 4.47716 14.4772 0 20 0H80C96.5685 0 110 13.4315 110 30V90C110 95.5228 105.523 100 100 100H40C23.4315 100 10 86.5685 10 70V10Z" fill="#007CFB"/>
</g>
<mask id="mask0_444_129" style="mask-type:alpha" maskUnits="userSpaceOnUse" x="30" y="20" width="60" height="60">
<rect x="30" y="20" width="60" height="60" fill="white"/>
</mask>
<g mask="url(#mask0_444_129)">
<path fill-rule="evenodd" clip-rule="evenodd" d="M37.2656 20.3914C37.2656 21.0616 36.8231 22.5522 36.3626 23.4336C35.7762 24.5558 34.5558 25.7762 33.4336 26.3626C32.5522 26.8231 31.0616 27.2656 30.3914 27.2656H30V28.2031V29.1406H30.3914C30.6067 29.1406 31.1895 29.2446 31.6864 29.3717C34.352 30.0535 36.3527 32.0543 37.0345 34.7198C37.1617 35.2168 37.2656 35.7996 37.2656 36.0148V36.4062H38.2031H39.1406V36.0148C39.1406 35.3446 39.5831 33.854 40.0437 32.9727C40.6301 31.8505 41.8505 30.6301 42.9727 30.0437C43.854 29.5831 45.3446 29.1406 46.0148 29.1406H46.4062V28.2031V27.2656H46.0148C45.3446 27.2656 43.854 26.8231 42.9727 26.3626C41.8505 25.7762 40.6301 24.5558 40.0437 23.4336C39.5831 22.5522 39.1406 21.0616 39.1406 20.3914V20H38.2031H37.2656V20.3914ZM85.4883 20.1027C84.8876 20.262 84.2173 20.6642 83.7718 21.1326C83.5366 21.3798 82.1487 23.5589 80.6872 25.9752C79.2259 28.3913 78.0158 30.3826 77.9982 30.4002C77.9807 30.4179 77.7404 30.3526 77.4645 30.2552C76.4515 29.8978 75.1535 30.1338 74.3503 30.8213C74.0953 31.0398 73.6009 31.6221 73.2514 32.1157C72.6524 32.9616 72.5788 33.0232 71.9624 33.1914C67.813 34.3245 66.3388 35.1431 65.9224 36.545C65.6958 37.3082 65.6959 37.7019 65.9232 38.5789C66.4274 40.5247 68.6323 42.9079 72.0598 45.2122C76.118 47.9404 79.125 48.4446 80.8308 46.6827C81.6396 45.8472 81.7291 45.4203 81.7491 42.3051L81.7664 39.5907L82.4291 38.6503C83.2893 37.4298 83.4381 37.0505 83.4349 36.0877C83.4322 35.2434 83.1654 34.4633 82.7156 33.9841L82.4769 33.7299L85.8955 29.7654C87.7757 27.5848 89.4531 25.5371 89.623 25.2148C89.8864 24.715 89.9319 24.4824 89.9321 23.6328C89.9324 22.8207 89.8822 22.5393 89.6607 22.1094C89.0257 20.8762 87.925 20.1328 86.6194 20.0554C86.1907 20.0301 85.6816 20.0513 85.4883 20.1027ZM87.187 22.1232C87.9955 22.5775 88.3377 23.5848 87.9429 24.3481C87.8108 24.6036 83.0528 30.234 81.0775 32.4723C80.9897 32.5716 79.7714 31.8321 79.6204 31.5877C79.5871 31.5339 80.8076 29.4301 82.3325 26.9127C84.7219 22.9681 85.164 22.3044 85.5312 22.1104C86.092 21.8141 86.6446 21.8183 87.187 22.1232ZM38.6719 24.833C38.8975 25.2316 39.4795 25.9551 39.9653 26.441C40.4511 26.9267 41.1746 27.5088 41.5732 27.7344C41.9716 27.96 42.2978 28.1709 42.2978 28.2031C42.2978 28.2354 41.9716 28.4463 41.5732 28.6719C40.6434 29.1982 39.1982 30.6434 38.6719 31.5732C38.4463 31.9716 38.2354 32.2978 38.2031 32.2978C38.1709 32.2978 37.96 31.9716 37.7344 31.5732C37.2081 30.6434 35.7628 29.1982 34.833 28.6719C34.4346 28.4463 34.1085 28.2354 34.1085 28.2031C34.1085 28.1709 34.4346 27.96 34.833 27.7344C35.7628 27.2081 37.2081 25.7628 37.7344 24.833C37.96 24.4346 38.1709 24.1085 38.2031 24.1085C38.2354 24.1085 38.4463 24.4346 38.6719 24.833ZM54.8763 26.2797C54.5161 28.3824 52.9137 29.9848 50.811 30.3451L50.0391 30.4773V31.3672V32.2571L50.811 32.3893C52.9137 32.7495 54.5161 34.352 54.8763 36.4546L55.0085 37.2266H55.8984H56.7884L56.9205 36.4546C57.2808 34.352 58.8832 32.7495 60.9859 32.3893L61.7578 32.2571V31.3672V30.4773L60.9859 30.3451C58.8832 29.9848 57.2808 28.3824 56.9205 26.2797L56.7884 25.5078H55.8984H55.0085L54.8763 26.2797ZM56.1581 29.3503C56.4074 29.7721 57.4935 30.8582 57.9154 31.1075C58.3212 31.3471 58.3212 31.3872 57.9154 31.6269C57.4935 31.8761 56.4074 32.9622 56.1581 33.3841C55.9185 33.7899 55.8784 33.7899 55.6387 33.3841C55.3895 32.9622 54.3034 31.8761 53.8815 31.6269C53.4757 31.3872 53.4757 31.3471 53.8815 31.1075C54.3034 30.8582 55.3895 29.7721 55.6387 29.3503C55.8784 28.9445 55.9185 28.9445 56.1581 29.3503ZM77.0207 32.1222C77.599 32.4239 81.0864 35.0122 81.3273 35.3186C81.478 35.5101 81.5625 35.7944 81.5625 36.11C81.5625 36.568 81.3831 36.9098 80.5568 38.027C80.5411 38.0482 79.1584 37.0726 77.4843 35.859L74.4404 33.6523L74.992 32.9492C75.768 31.9603 76.2968 31.7446 77.0207 32.1222ZM76.3927 37.4C80.3012 40.2346 79.9185 39.699 79.9206 42.3376C79.922 44.1972 79.7843 45.1507 79.4685 45.4665C78.1946 46.7402 73.3664 44.4901 69.836 40.9775C68.7462 39.8932 68.3961 39.4593 68.0489 38.7636C67.3605 37.3838 67.5059 36.8236 68.6975 36.2634C69.622 35.8289 72.6511 34.8669 72.9172 34.9234C72.9642 34.9333 74.5281 36.0478 76.3927 37.4ZM45.5296 36.8421C45.2952 38.405 43.9519 39.7483 42.3889 39.9827L41.8359 40.0657V40.9766V41.8875L42.3889 41.9704C43.9519 42.2048 45.2952 43.5481 45.5296 45.1111L45.6125 45.6641H46.5234H47.4343L47.5173 45.1111C47.7512 43.5506 49.1404 42.166 50.6843 41.9544L51.2109 41.8822V40.974V40.0657L50.6579 39.9827C49.9454 39.8759 49.1019 39.4456 48.5781 38.9219C48.0544 38.3981 47.6241 37.5546 47.5173 36.8421L47.4343 36.2891H46.5234H45.6125L45.5296 36.8421ZM72.0996 38.6407C71.8257 39.0248 71.6016 39.3807 71.6016 39.4317C71.6016 39.4825 71.9263 39.7531 72.3231 40.033L73.0446 40.5419L73.3726 40.1439C73.7466 39.6903 74.1369 39.0125 74.0573 38.955C74.0279 38.9337 73.703 38.6943 73.3351 38.423C72.9673 38.1516 72.6509 37.9325 72.632 37.936C72.6131 37.9395 72.3735 38.2566 72.0996 38.6407ZM47.2461 40.2148L48.0079 40.9766L47.2656 41.7187L46.5234 42.461L45.7805 41.718L45.0376 40.9752L45.7512 40.2315C46.1438 39.8224 46.4692 39.48 46.4746 39.4705C46.48 39.461 46.8272 39.7959 47.2461 40.2148ZM54.1406 39.5524C54.1406 39.605 54.3471 40.2269 54.5994 40.9343C55.1714 42.5376 55.6996 44.6677 56.0673 46.854C56.383 48.7312 56.7188 51.7721 56.7188 52.755V53.3984H55.8946H55.0703L55.1036 56.3282L55.1367 59.2579H51.709L48.2812 59.2578V60.1953V61.1328H63.0522H77.8232L78.1107 61.4205C78.4758 61.7854 78.4758 62.1208 78.1107 62.4857L77.8232 62.7734H73.4232H69.0234V63.7109V64.6484H71.0742H73.125V72.3242V80H74.0625H75V72.3242V64.6484L76.5527 64.6473C77.9388 64.6463 78.1684 64.6164 78.6914 64.3699C79.3896 64.0406 79.7079 63.7166 80.0292 63.0078C80.6602 61.6161 79.8573 59.8259 78.4076 59.3915C78.0966 59.2984 76.0098 59.2578 71.5294 59.2579L65.0977 59.258L65.136 56.3282L65.1743 53.3984H64.2811H63.3878L63.4587 52.959C64.0534 49.2711 64.9283 47.3403 67.083 44.9609L67.985 43.9648L66.9516 43.8937C65.0741 43.7646 63.4143 44.0646 61.9772 44.7928C61.3721 45.0993 61.1719 45.1427 61.1719 44.9673C61.1719 44.7361 60.3396 43.4496 59.8065 42.8566C59.0016 41.9613 57.8802 41.1526 56.543 40.5028C55.1169 39.8098 54.1406 39.4236 54.1406 39.5524ZM74.9414 40.7144C74.6836 41.081 74.4573 41.415 74.4386 41.4567C74.4199 41.4983 74.7337 41.7771 75.1362 42.0761C75.9531 42.6832 75.8591 42.707 76.569 41.7136L77.0054 41.103L76.2827 40.571C75.8854 40.2785 75.5264 40.0411 75.4852 40.0435C75.4439 40.046 75.1992 40.3479 74.9414 40.7144ZM58.451 44.1936C59.033 44.8303 59.6484 45.8879 59.6484 46.2511C59.6484 46.3552 59.4881 46.5942 59.2921 46.7819C59.096 46.9698 58.7668 47.3865 58.5605 47.708C58.3541 48.0297 58.1753 48.2155 58.1631 48.121C58.048 47.2295 57.5924 44.6499 57.4282 43.9611L57.2217 43.0944L57.5434 43.3234C57.7204 43.4493 58.1287 43.841 58.451 44.1936ZM63.2254 47.2246C62.3548 48.9615 61.8079 50.7948 61.5845 52.7246L61.5066 53.3984H60.1088H58.7109V53.1158C58.7109 52.6093 59.0358 51.1295 59.3033 50.4171C60.0298 48.4829 61.3821 47.0337 63.1436 46.3019C63.5093 46.1499 63.8137 46.0234 63.8201 46.0205C63.8263 46.0179 63.5588 46.5597 63.2254 47.2246ZM31.8473 52.812C31.221 53.0006 30.6891 53.4312 30.3479 54.0262L30.0022 54.6289L30.0011 62.4061L30 70.1831L30.3089 70.7507C30.6405 71.3601 31.2416 71.8496 31.8844 72.0339C32.104 72.0969 32.8772 72.1484 33.6027 72.1484H34.9219V74.1855V76.2225L34.0413 76.305C32.1203 76.485 30.7046 77.7327 30.5045 79.422L30.4361 80H31.39C32.3132 80 32.3438 79.9912 32.3438 79.7244C32.3438 79.347 32.7934 78.7109 33.2475 78.4456C33.4541 78.3249 33.9154 78.1961 34.2725 78.1592L34.9219 78.0922V79.0461V80H35.8594H36.7969V79.0461V78.0922L37.4462 78.1592C37.8034 78.1961 38.2646 78.3249 38.4713 78.4456C38.9254 78.7109 39.375 79.347 39.375 79.7244C39.375 79.9912 39.4056 80 40.3288 80H41.2827L41.2143 79.422C41.0141 77.7327 39.5985 76.485 37.6774 76.305L36.7969 76.2225V74.197V72.1714L38.3591 72.1306C39.8604 72.0915 39.9437 72.076 40.4978 71.7343C42.0299 70.7892 42.1658 68.3602 40.7441 67.3304C39.9804 66.777 39.6596 66.743 35.5609 66.7811L31.7577 66.8164V65.9267L31.7578 65.0371L32.1973 64.9025C33.4746 64.5111 34.5645 63.4876 35.0305 62.242C35.2562 61.6389 35.2734 61.3463 35.2734 58.1267V54.6607L34.9645 54.093C34.3651 52.9917 33.048 52.4504 31.8473 52.812ZM86.4548 52.8554C85.8125 53.095 85.2591 53.5576 85.0068 54.0657C84.8068 54.4681 84.7819 54.8567 84.7511 58.0394C84.7189 61.3699 84.7305 61.6036 84.9604 62.2175C85.4241 63.4571 86.3967 64.3995 87.6839 64.8567L88.2422 65.055L88.2423 65.9357V66.8164L84.4391 66.7811C80.3404 66.743 80.0196 66.777 79.2559 67.3304C77.9875 68.2491 77.9428 70.5833 79.1756 71.5237C79.8221 72.0167 80.3396 72.1378 81.8262 72.1433L83.2031 72.1484V74.1855V76.2225L82.3226 76.305C80.4015 76.485 78.9859 77.7327 78.7857 79.422L78.7173 80H79.6712C80.5944 80 80.625 79.9912 80.625 79.7244C80.625 79.347 81.0746 78.7109 81.5288 78.4456C81.7354 78.3249 82.1966 78.1961 82.5538 78.1592L83.2031 78.0922V79.0461V80H84.1406H85.0781V79.0461V78.0922L85.7275 78.1592C86.0846 78.1961 86.5459 78.3249 86.7525 78.4456C87.2066 78.7109 87.6562 79.347 87.6562 79.7244C87.6562 79.9912 87.6868 80 88.61 80H89.5639L89.4955 79.422C89.2954 77.7327 87.8797 76.485 85.9587 76.305L85.0781 76.2225V74.1855V72.1484H86.3973C87.1228 72.1484 87.896 72.0969 88.1156 72.0339C88.7584 71.8496 89.3595 71.3601 89.6911 70.7507L90 70.1831V62.4563V54.7296L89.6777 54.0938C89.441 53.627 89.2106 53.3697 88.8097 53.1252C88.1489 52.722 87.1262 52.6048 86.4548 52.8554ZM33.0423 54.685C33.4339 54.8947 33.5156 55.4616 33.5156 57.9703C33.5156 60.6724 33.4157 61.4455 32.9816 62.1015C32.7184 62.4992 32.0827 63.0062 31.8457 63.0073C31.7064 63.008 31.7393 55.5731 31.8803 55.1932C32.0909 54.626 32.5536 54.4236 33.0423 54.685ZM87.7689 54.685C88.1886 54.9097 88.2422 55.4287 88.2422 59.2753C88.2422 62.2179 88.2107 63.0078 88.0931 63.0078C87.806 63.0078 87.0888 62.2999 86.8172 61.7482C86.5584 61.2228 86.5406 61.0405 86.5024 58.5159C86.4802 57.0444 86.4962 55.6571 86.5383 55.4332C86.6719 54.7211 87.2169 54.3897 87.7689 54.685ZM63.2812 56.9779C63.2812 58.6314 63.2727 58.6911 62.9936 58.9701L62.706 59.2578H60.1008C56.7293 59.2578 56.9531 59.4175 56.9531 57.0109V55.2734H60.1172H63.2812V56.9779ZM41.4844 59.4118C40.9157 59.592 40.0459 60.4948 39.8698 61.0878C39.4598 62.4682 40.031 63.7784 41.3003 64.3694C41.8302 64.6162 42.0627 64.6463 43.4473 64.6473L45 64.6484V72.3242V80H45.9375H46.875V72.3242V64.6484H57.1289H67.3828V63.7109V62.7734H54.801C42.2497 62.7734 42.2183 62.7729 41.9104 62.5305C41.538 62.2377 41.5152 61.8602 41.8445 61.4416L42.0873 61.1328H44.3054H46.5234V60.1953V59.2578L44.209 59.2698C42.8742 59.2767 41.7209 59.3368 41.4844 59.4118ZM39.6094 68.8672C39.9107 69.1685 39.9107 69.7378 39.6094 70.0391C39.3854 70.263 39.2188 70.2734 35.8594 70.2734C32.5 70.2734 32.3333 70.263 32.1094 70.0391C31.9792 69.9089 31.875 69.6485 31.875 69.4531C31.875 69.2578 31.9792 68.9974 32.1094 68.8672C32.3333 68.6432 32.5 68.6328 35.8594 68.6328C39.2188 68.6328 39.3854 68.6432 39.6094 68.8672ZM87.8906 68.8672C88.0208 68.9974 88.125 69.2578 88.125 69.4531C88.125 69.6485 88.0208 69.9089 87.8906 70.0391C87.6667 70.263 87.5 70.2734 84.1406 70.2734C80.7812 70.2734 80.6146 70.263 80.3906 70.0391C80.2604 69.9089 80.1562 69.6485 80.1562 69.4531C80.1562 69.2578 80.2604 68.9974 80.3906 68.8672C80.6146 68.6432 80.7812 68.6328 84.1406 68.6328C87.5 68.6328 87.6667 68.6432 87.8906 68.8672Z" fill="white"/>
</g>
<defs>
<filter id="filter0_d_444_129" x="0" y="0" width="120" height="140" filterUnits="userSpaceOnUse" color-interpolation-filters="sRGB">
<feFlood flood-opacity="0" result="BackgroundImageFix"/>
<feColorMatrix in="SourceAlpha" type="matrix" values="0 0 0 0 0 0 0 0 0 0 0 0 0 0 0 0 0 0 127 0" result="hardAlpha"/>
<feMorphology radius="20" operator="erode" in="SourceAlpha" result="effect1_dropShadow_444_129"/>
<feOffset dy="30"/>
<feGaussianBlur stdDeviation="15"/>
<feComposite in2="hardAlpha" operator="out"/>
<feColorMatrix type="matrix" values="0 0 0 0 0 0 0 0 0 0.486275 0 0 0 0 0.984314 0 0 0 0.6 0"/>
<feBlend mode="multiply" in2="BackgroundImageFix" result="effect1_dropShadow_444_129"/>
<feBlend mode="normal" in="SourceGraphic" in2="effect1_dropShadow_444_129" result="shape"/>
</filter>
</defs>
</svg>
