<svg width="120" height="140" viewBox="0 0 120 140" fill="none" xmlns="http://www.w3.org/2000/svg">
<g filter="url(#filter0_d_444_141)">
<path d="M10 10C10 4.47716 14.4772 0 20 0H80C96.5685 0 110 13.4315 110 30V90C110 95.5228 105.523 100 100 100H40C23.4315 100 10 86.5685 10 70V10Z" fill="#007CFB"/>
</g>
<path fill-rule="evenodd" clip-rule="evenodd" d="M74.967 20.2175C74.389 20.4801 73.6662 21.296 73.5084 21.8645C73.434 22.1324 73.392 29.044 73.3916 41.1188L73.3909 59.9553L72.9513 60.096C72.7096 60.1734 72.1464 60.4145 71.6999 60.6318C71.2534 60.849 70.8754 61.0141 70.8599 60.9984C70.8367 60.9749 71.1269 55.5027 71.1547 55.4403C71.1595 55.4294 71.3543 55.3025 71.5876 55.1583C72.2838 54.7281 72.4474 54.2006 72.4505 52.3778C72.4527 51.0377 72.4196 50.7543 72.2139 50.351C71.9244 49.7836 71.3726 49.4234 70.792 49.4228L70.3617 49.4223L70.4832 48.9827C70.6633 48.3301 70.5115 47.2625 70.1419 46.5834C69.4746 45.3572 68.4094 44.8007 66.8483 44.8625L65.9465 44.8981L65.4567 44.4179C64.4939 43.474 62.8023 42.9798 61.6381 43.3026C61.295 43.3978 61.1985 43.3914 61.1985 43.2738C61.1985 43.191 61.0146 42.7554 60.7897 42.3061C60.0072 40.7419 58.4574 39.6217 56.6724 39.3302C55.0515 39.0655 53.2752 39.662 52.057 40.8801C51.4345 41.5027 50.6474 42.8221 50.6474 43.2431C50.6474 43.3961 50.5785 43.4055 50.2077 43.303C49.966 43.2363 49.4115 43.2071 48.9757 43.2383C47.4812 43.3452 46.1371 44.2713 45.482 45.6455C45.0551 46.5408 45.0364 48.1774 45.4408 49.2314C45.5016 49.3898 45.427 49.4225 45.0033 49.4228C44.3861 49.4233 43.8173 49.7433 43.4954 50.2712C43.2903 50.6077 43.2624 50.8634 43.2624 52.4118C43.2624 54.3966 43.3668 54.7257 44.1419 55.183C44.4082 55.3401 44.551 55.5126 44.5507 55.6767C44.5504 55.8154 44.6337 57.4505 44.7357 59.3101L44.9211 62.6914L43.5033 64.1373C41.937 65.7349 41.6268 66.2443 41.6228 67.2262C41.6164 68.8114 43.1419 70.06 44.6665 69.7175C44.9542 69.6529 45.21 69.6203 45.2349 69.6453C45.2598 69.6701 45.351 70.9993 45.4376 72.5989C45.5241 74.1984 45.6247 75.7973 45.6609 76.1519C45.8002 77.5125 46.8744 79.0006 48.181 79.6429L48.8302 79.9621L66.943 79.9926C80.2383 80.015 85.1417 79.9878 85.3788 79.8902C85.8342 79.7027 86.3789 79.0427 86.4674 78.5708C86.7331 77.155 85.2809 66.6048 84.5791 64.8518C83.6822 62.6113 81.9685 60.9926 79.6644 60.2095L79.0768 60.0097L79.0182 48.0459C78.9616 36.4898 78.952 36.0737 78.7363 35.8354C78.4379 35.5056 77.701 35.4991 77.3769 35.8231C77.1456 36.0544 77.1424 36.2138 77.1424 47.8397V59.6218H76.2046H75.2667V44.733V29.8441H76.2046H77.1424V31.301C77.1424 32.7354 77.1473 32.7617 77.4514 33.0009C77.9695 33.4085 78.5666 33.3083 78.8467 32.7665C78.9894 32.4907 79.0177 31.6101 79.0154 27.5346C79.0136 24.6215 78.9638 22.4202 78.8923 22.1066C78.7171 21.3371 78.2803 20.752 77.582 20.3515C77.0696 20.0577 76.839 19.9988 76.2046 20C75.7173 20.001 75.2711 20.0794 74.967 20.2175ZM76.9941 22.3494C77.0964 22.5503 77.1395 23.4195 77.1407 25.3013L77.1424 27.9684H76.2046H75.2667V25.1751C75.2667 22.4277 75.271 22.378 75.5305 22.142C75.6756 22.01 75.8734 21.8759 75.9701 21.8441C76.2521 21.7514 76.8368 22.0399 76.9941 22.3494ZM51.254 26.2978C51.122 26.4105 50.862 26.9015 50.6763 27.3887C50.0663 28.9878 49.1955 30.0567 47.9129 30.7806C46.6992 31.4655 46.7269 32.4478 47.9776 33.0816C49.1613 33.6813 50.1197 34.9769 50.9858 37.1481C51.0665 37.3502 51.278 37.5439 51.5359 37.6517C51.9176 37.8112 51.9929 37.808 52.3787 37.6163C52.7385 37.4375 52.8545 37.2729 53.1476 36.5265C53.8111 34.8368 54.7037 33.7459 56.0534 32.9755C57.1307 32.3604 57.0961 31.4212 55.9729 30.7873C54.6779 30.0564 53.8095 28.993 53.1976 27.3887C52.8032 26.3546 52.5483 26.0926 51.9369 26.0926C51.6847 26.0926 51.3907 26.1809 51.254 26.2978ZM39.6583 29.4045C39.524 29.5495 39.251 30.0903 39.0515 30.6061C38.4251 32.2266 37.7996 33.2224 36.7677 34.2409C36.202 34.7993 35.5216 35.3355 35.0874 35.5652C34.2608 36.0021 34 36.3031 34 36.8196C34 37.3384 34.2501 37.6223 35.1423 38.1169C36.081 38.6371 37.5167 40.0482 38.0834 41.0077C38.2981 41.3712 38.6573 42.1076 38.8814 42.6439C39.6263 44.4263 39.5828 44.3579 40.0578 44.4891C40.4151 44.5878 40.5758 44.5725 40.9065 44.4081C41.2675 44.2287 41.3697 44.0637 41.796 42.972C42.6591 40.7616 44.0529 39.0052 45.5971 38.1821C46.5278 37.6861 46.7786 37.4101 46.7786 36.8822C46.7786 36.3039 46.5703 36.0539 45.6433 35.5203C43.9528 34.5471 42.498 32.6913 41.7195 30.5148C41.5056 29.9172 41.247 29.4085 41.107 29.3105C40.7238 29.042 39.9473 29.0924 39.6583 29.4045ZM52.3511 29.92C52.5268 30.2195 52.9974 30.7917 53.3972 31.1915L54.124 31.9182L53.4601 32.5616C53.0949 32.9154 52.616 33.5023 52.3958 33.8659C52.1756 34.2294 51.9692 34.5273 51.9369 34.5279C51.9047 34.5284 51.7201 34.2604 51.5266 33.9322C51.3332 33.604 50.8549 33.016 50.4638 32.6255L49.7527 31.9154L50.4781 31.1901C50.8771 30.7911 51.3471 30.2195 51.5228 29.92C51.6984 29.6203 51.8848 29.3752 51.9369 29.3752C51.9891 29.3752 52.1755 29.6203 52.3511 29.92ZM42.1264 35.0107C42.4766 35.4343 43.0807 36.0198 43.4689 36.3116L44.1748 36.8422L43.8522 37.0328C43.4475 37.2719 42.2393 38.4407 41.8203 38.9986C41.6465 39.2299 41.2472 39.8514 40.9332 40.3796L40.362 41.3399L40.2072 40.9663C39.7465 39.8541 38.2908 38.0286 37.2629 37.274L36.668 36.8374L37.0046 36.596C38.1079 35.8047 39.315 34.3831 39.9914 33.0784L40.3792 32.3304L40.9344 33.2854C41.2398 33.8106 41.7762 34.5871 42.1264 35.0107ZM57.5276 41.5731C57.9267 41.7677 58.3967 42.0967 58.5722 42.3041C59.0549 42.8747 59.4308 43.7904 59.5156 44.6015C59.5766 45.185 59.6495 45.3747 59.8834 45.5586C60.2794 45.8701 60.6455 45.847 61.2081 45.4747C61.8504 45.0496 62.7367 44.9762 63.4447 45.2893C63.9586 45.5167 64.2398 45.7996 64.7551 46.6072C65.139 47.209 65.5156 47.2996 66.2343 46.9629C67.2217 46.5005 67.9798 46.67 68.4791 47.465C68.7582 47.9093 68.7288 48.6237 68.4118 49.1077L68.2056 49.4223H58.1292C51.7218 49.4223 47.9741 49.3801 47.8365 49.3066C47.5338 49.1446 47.1634 48.5091 47.0328 47.9281C46.7117 46.4989 47.8562 45.0946 49.3483 45.0872C49.7108 45.0855 50.0536 45.1903 50.4896 45.4364C51.631 46.0806 52.1933 45.7943 52.3286 44.5002C52.4249 43.5788 52.771 42.8375 53.3963 42.213C54.5437 41.0671 56.0209 40.8383 57.5276 41.5731ZM70.5773 52.3437V53.5066L66.6206 53.5478C63.1383 53.5841 62.6077 53.6141 62.195 53.7977C61.5726 54.0747 61.0067 54.6322 60.6607 55.3091C60.0814 56.4425 59.287 57.0751 58.2491 57.2293L57.7401 57.3049L58.7025 56.3239C59.7756 55.2297 60.0273 54.7588 60.0236 53.8517C60.0171 52.2902 58.6884 51.1282 57.1501 51.339C56.368 51.4463 56.0002 51.6822 54.7901 52.8528C53.7113 53.8964 53.688 53.9113 53.3719 53.7525C53.1232 53.6276 52.1433 53.5816 49.0354 53.549L45.0201 53.5068V52.422C45.0201 51.8253 45.0553 51.302 45.0983 51.2591C45.1412 51.216 50.8916 51.1809 57.8769 51.1809H70.5773V52.3437ZM57.936 53.3679C58.4421 53.8259 58.3 54.0231 55.329 56.9849C53.7772 58.532 52.4285 59.9465 52.332 60.1286C51.9844 60.7842 52.4123 61.4975 53.1534 61.4975C53.4333 61.4975 53.7393 61.2584 54.8058 60.2062L56.1147 58.9149L57.0144 59.0547C59.2238 59.3982 61.238 58.351 62.2594 56.3278C62.5146 55.8221 62.6853 55.6309 62.9696 55.5318C63.2061 55.4493 64.4352 55.4013 66.3121 55.4013H69.2803L69.2168 56.3099C69.1818 56.8096 68.9265 61.4944 68.6494 66.7206C68.1045 76.9954 68.1517 76.584 67.4279 77.3644C67.2579 77.5475 66.9078 77.8113 66.6499 77.9505C66.1846 78.2015 66.1191 78.2038 58.29 78.2375C53.1762 78.2596 50.1643 78.2285 49.7319 78.1494C48.8254 77.9835 48.2068 77.5278 47.8098 76.7335C47.4962 76.1061 47.4855 76.0129 47.2732 72.0487L47.0567 68.0041L49.0865 65.9451C51.2233 63.7775 51.3286 63.6114 50.9286 63.0402C50.67 62.671 50.2529 62.5306 49.856 62.6793C49.6788 62.7456 48.365 63.963 46.9369 65.3844C44.6537 67.6566 44.3068 67.9588 44.0646 67.8866C43.913 67.8415 43.7232 67.7206 43.6426 67.6182C43.232 67.0959 43.2171 67.1129 50.3261 60.004C57.4662 52.8638 57.4218 52.9026 57.936 53.3679ZM49.4741 58.1581L46.72 60.9149L46.6467 59.8873C46.6064 59.3221 46.5349 58.0817 46.488 57.1305L46.4025 55.4013H49.3153H52.2282L49.4741 58.1581ZM78.6204 61.8238C80.4521 62.4079 81.8291 63.518 82.5777 65.0141C82.8123 65.4831 83.0042 65.9388 83.0042 66.0268C83.0042 66.1601 81.9613 66.1869 76.7735 66.1869H70.5427L70.6189 64.9267L70.6951 63.6664L71.2295 63.172C71.8808 62.5693 72.9215 62.046 74.0943 61.7314C75.2369 61.4249 77.5153 61.4714 78.6204 61.8238ZM83.6911 69.7298C84.1173 72.4488 84.5083 75.7765 84.549 77.0312L84.5869 78.2035L83.2385 78.2364L81.8902 78.2691L81.6928 76.4778C81.4559 74.3273 80.9444 71.6243 80.7038 71.2521C80.4417 70.8464 80.021 70.7289 79.5444 70.928C78.9923 71.1586 78.9426 71.4815 79.2401 72.9043C79.5325 74.3022 79.9516 77.1887 79.9542 77.8225L79.9561 78.2621H78.5493H77.1424V74.8782C77.1424 71.6807 77.1297 71.4779 76.9099 71.1984C76.782 71.0358 76.5441 70.8693 76.3812 70.8284C76.0407 70.7429 75.4492 71.0061 75.3395 71.2919C75.2995 71.3963 75.2667 73.0073 75.2667 74.8719V78.2621H73.7928H72.3189L72.3933 77.588C72.5559 76.1132 72.8391 74.2677 73.0995 72.9866C73.3225 71.8891 73.3476 71.5841 73.2345 71.3463C72.9422 70.7313 72.0368 70.6255 71.6833 71.1649C71.3823 71.6241 70.8347 74.6376 70.516 77.588L70.4432 78.2621H69.8108H69.1783L69.4046 77.8787C69.9298 76.9886 69.9953 76.5479 70.2289 72.3422C70.3542 70.0852 70.4575 68.199 70.4584 68.1506C70.4592 68.1022 73.3783 68.0627 76.9449 68.0627H83.4298L83.6911 69.7298Z" fill="white"/>
<defs>
<filter id="filter0_d_444_141" x="0" y="0" width="120" height="140" filterUnits="userSpaceOnUse" color-interpolation-filters="sRGB">
<feFlood flood-opacity="0" result="BackgroundImageFix"/>
<feColorMatrix in="SourceAlpha" type="matrix" values="0 0 0 0 0 0 0 0 0 0 0 0 0 0 0 0 0 0 127 0" result="hardAlpha"/>
<feMorphology radius="20" operator="erode" in="SourceAlpha" result="effect1_dropShadow_444_141"/>
<feOffset dy="30"/>
<feGaussianBlur stdDeviation="15"/>
<feComposite in2="hardAlpha" operator="out"/>
<feColorMatrix type="matrix" values="0 0 0 0 0 0 0 0 0 0.486275 0 0 0 0 0.984314 0 0 0 0.6 0"/>
<feBlend mode="multiply" in2="BackgroundImageFix" result="effect1_dropShadow_444_141"/>
<feBlend mode="normal" in="SourceGraphic" in2="effect1_dropShadow_444_141" result="shape"/>
</filter>
</defs>
</svg>
