<svg width="80" height="80" viewBox="0 0 80 80" fill="none" xmlns="http://www.w3.org/2000/svg">
<mask id="mask0_801_25976" style="mask-type:alpha" maskUnits="userSpaceOnUse" x="0" y="0" width="80" height="80">
<rect width="80" height="80" fill="white"/>
</mask>
<g mask="url(#mask0_801_25976)">
<path fill-rule="evenodd" clip-rule="evenodd" d="M15.3331 15.1688C7.7785 16.5065 1.83748 22.109 0.331219 29.3155C-0.168777 31.7079 -0.0958739 35.1655 0.503756 37.4835C2.32249 44.5161 8.24164 49.7992 15.5719 50.9326L16.9208 51.1411L24.3124 58.3595C32.1932 66.0555 32.3988 66.216 33.9954 65.9224C35.0466 65.7292 35.8117 65.2396 36.325 64.4313L36.7667 63.7361V47.1507C36.7667 30.5784 36.7663 30.5639 36.3088 28.802C35.8048 26.862 34.6367 24.257 33.6219 22.8104C31.1835 19.3342 27.3713 16.7185 22.9961 15.5196C21.3934 15.0804 16.9747 14.878 15.3331 15.1688ZM57.7264 15.3575C49.2587 17.1118 43.151 24.5248 43.151 33.0481C43.151 37.8799 45.018 42.3135 48.5123 45.7802C51.1548 48.4019 54.3002 50.0524 58.0302 50.7753L60.0553 51.1675L67.4469 58.3766C73.6708 64.4466 74.9713 65.6239 75.6797 65.8287C77.2194 66.2736 78.8883 65.6005 79.6274 64.2359C79.9836 63.5784 80.0023 62.7325 79.9998 47.3525C79.9974 32.3436 79.9697 31.0302 79.6201 29.3699C78.138 22.3261 72.5056 16.8017 65.3242 15.3479C63.0158 14.8806 60.0101 14.8843 57.7264 15.3575ZM21.0206 21.826C25.3948 22.8376 28.9521 26.426 29.8806 30.7639C30.122 31.8921 30.1789 34.2891 30.1817 43.4745L30.1852 54.7949L25.2743 49.9869C20.1225 44.9429 19.6164 44.5685 17.9497 44.5685C14.7404 44.5685 11.0355 42.6601 9.01259 39.9651C7.34635 37.7449 6.66065 35.695 6.66652 32.9496C6.6732 29.6919 8.06019 26.6423 10.513 24.4922C11.7959 23.3676 14.0411 22.1972 15.6484 21.8155C17.1089 21.4687 19.4957 21.4732 21.0206 21.826ZM65.3657 22.1255C68.6771 23.2504 71.4764 25.9845 72.7409 29.3292C73.2073 30.5627 73.2083 30.5909 73.2717 42.6816L73.335 54.7979L68.214 49.7986C62.5425 44.2618 63.3702 44.8124 60.2049 44.4706C55.7696 43.9917 51.8887 40.9009 50.3992 36.6611C49.7299 34.7559 49.7299 31.3403 50.3992 29.435C51.7893 25.4784 55.3512 22.4485 59.549 21.6518C60.7331 21.427 64.1219 21.703 65.3657 22.1255Z" fill="#007CFB"/>
</g>
</svg>
