<svg width="155" height="237" viewBox="0 0 155 237" fill="none" xmlns="http://www.w3.org/2000/svg">
<path fill-rule="evenodd" clip-rule="evenodd" d="M57.0785 0.0445635C56.3928 1.14599 53.7637 19.3199 52.9521 28.5667C50.077 61.3361 52.083 88.0799 58.9892 109.025C67.8214 135.816 87.0856 154.895 117.549 167.024C122.092 168.833 126.641 170.313 127.657 170.313C129.478 170.313 129.499 170.252 129.021 166.155C126.934 148.252 114.095 124.96 93.3432 101.429C90.2737 97.9486 88.0202 95.1007 88.3354 95.1007C88.6506 95.1007 91.854 97.2978 95.4548 99.9823C103.812 106.213 115.743 117.622 120.863 124.277C127.83 133.335 134.135 147.536 136.647 159.827C138.304 167.938 137.432 187.724 135.272 191.012C134.949 191.503 126.918 188.106 113.139 181.647L91.5141 171.511L91.3022 166.416C91.0919 161.343 91.0795 161.314 88.1163 159.34C85.4195 157.544 84.8925 157.434 82.4752 158.171C79.1488 159.186 78.7273 161.262 81.9926 160.55L84.1762 160.073V167.407V174.74L81.4467 174.515L78.7171 174.291L78.3531 169.662L77.9892 165.034L66.9173 159.783L55.8447 154.531L27.8313 176.683C12.4241 188.867 -0.0816768 198.934 0.0398802 199.056C0.162165 199.177 12.7822 191.791 28.0846 182.644L55.9073 166.011L90.2403 189.578C109.124 202.541 124.882 213.432 125.258 213.78C126.042 214.506 124.503 218.073 121.143 223.318C119 226.663 118.971 226.821 120.292 227.815C121.046 228.382 121.915 228.856 122.224 228.869C122.533 228.882 123.142 229.669 123.578 230.62C124.136 231.836 125.175 232.476 127.084 232.78C128.577 233.017 130.706 234.047 131.816 235.069C132.926 236.091 133.921 236.828 134.027 236.706C134.133 236.585 135.935 233.447 138.031 229.734C159.26 192.127 159.717 155.864 139.379 122.738C133.885 113.79 126.937 105.699 110.366 88.9535C101.314 79.8051 91.7586 69.5538 89.1339 66.1729C73.437 45.953 61.3388 21.8026 58.4782 4.97748C57.9512 1.87425 57.3209 -0.345962 57.0785 0.0445635ZM38.7307 126.884L37.4241 133.279L31.6956 134.165C28.5454 134.652 26.1215 135.298 26.3108 135.602C26.4993 135.906 28.5206 136.386 30.8018 136.669C37.8485 137.544 37.9118 137.601 38.9898 144.196C39.5153 147.413 40.1937 149.892 40.4972 149.706C40.8008 149.519 41.4515 146.795 41.9436 143.652L42.8381 137.938L46.8874 137.131C49.114 136.687 51.7009 136.323 52.6347 136.323C56.451 136.323 53.9551 134.995 48.5761 134.163C42.1102 133.164 42.6671 133.894 41.5243 124.917C41.2572 122.819 40.8139 120.965 40.538 120.796C40.2629 120.627 39.4498 123.366 38.7307 126.884ZM12.9205 128.164C12.8747 129.115 12.0587 130.176 10.9167 130.771L8.99069 131.774L10.9167 132.254C12.3826 132.619 12.8616 133.207 12.9205 134.709L12.9984 136.684L13.7838 134.712C14.2155 133.626 15.407 132.46 16.4304 132.122L18.2916 131.505L16.4442 131.044C15.3466 130.771 14.2722 129.767 13.7977 128.572C13.0771 126.758 12.9904 126.717 12.9205 128.164ZM41.9588 188.393V194.178H48.1459H54.3329V188.393V182.607H48.1459H41.9588V188.393ZM57.9723 188.393V194.178H63.7954H69.6185V188.393V182.607H63.7954H57.9723V188.393ZM47.2062 198.34L41.8984 198.582L42.111 204.155L42.3228 209.727H48.1459H53.969V204.002C53.969 200.727 53.6574 198.239 53.2411 198.186C52.8407 198.137 50.125 198.206 47.2062 198.34ZM58.2751 198.458C58.1084 198.623 57.9723 201.308 57.9723 204.424V210.089H63.8246H69.6775L69.4656 204.165L69.2546 198.241L63.9162 198.199C60.9807 198.176 58.4418 198.292 58.2751 198.458Z" fill="#F7C02D"/>
</svg>
