<svg width="120" height="140" viewBox="0 0 120 140" fill="none" xmlns="http://www.w3.org/2000/svg">
<g filter="url(#filter0_d_444_128)">
<path d="M10 10C10 4.47716 14.4772 0 20 0H80C96.5685 0 110 13.4315 110 30V90C110 95.5228 105.523 100 100 100H40C23.4315 100 10 86.5685 10 70V10Z" fill="#007CFB"/>
</g>
<mask id="mask0_444_128" style="mask-type:alpha" maskUnits="userSpaceOnUse" x="30" y="20" width="60" height="60">
<rect x="30" y="20" width="60" height="60" fill="white"/>
</mask>
<g mask="url(#mask0_444_128)">
<path fill-rule="evenodd" clip-rule="evenodd" d="M72.4633 20.276C71.8097 20.581 71.0725 21.3287 70.7855 21.9777C70.5239 22.5693 70.5254 24.4721 70.7879 25.0663C71.0564 25.6737 71.8438 26.4918 72.4021 26.7437L72.8739 26.9565V28.6933V30.43L68.0938 26.8969C61.9898 22.3851 62.3282 22.6258 61.6582 22.32C61.195 22.1086 60.8713 22.0582 59.9707 22.0569C59.0089 22.0555 58.768 22.0972 58.2111 22.3623C57.8563 22.5314 54.7769 24.7314 51.368 27.2514C44.3886 32.4108 45.194 31.9852 43.941 31.175C42.8646 30.4789 42.0542 29.4484 41.4761 28.0408C41.0848 27.0877 40.6828 26.6886 40.0257 26.6005C39.1377 26.4814 38.8232 26.7577 38.075 28.3144C37.1775 30.1812 36.4463 30.9127 34.6093 31.7818C33.1582 32.4683 32.8739 32.7578 32.8739 33.5484C32.8739 34.333 33.1588 34.6225 34.6258 35.3289C35.7172 35.8544 36.1085 36.116 36.7252 36.7327C37.1487 37.1564 37.4366 37.5328 37.3778 37.5862C37.32 37.6387 35.9795 38.6343 34.3988 39.7986C31.2475 42.1198 30.8203 42.5044 30.3304 43.4604C30.0272 44.0526 30 44.2116 30 45.3959C30 46.6402 30.0142 46.7124 30.3977 47.4196C31.1044 48.7228 32.3213 49.5874 33.7234 49.7826C34.1272 49.8388 34.4971 49.8613 34.5455 49.8328C34.5939 49.8042 34.6334 55.2693 34.6334 61.9774V74.174L33.2453 74.213C31.9382 74.25 31.8237 74.273 31.2836 74.6072C30.9287 74.8269 30.5747 75.1811 30.355 75.5364C30.0314 76.0598 30 76.2005 30 77.1261C30 78.0517 30.0314 78.1924 30.355 78.7158C30.575 79.0717 30.9283 79.425 31.2842 79.645L31.8584 80H59.9707H88.0829L88.6571 79.645C89.013 79.425 89.3663 79.0717 89.5864 78.7158C89.9099 78.1924 89.9413 78.0517 89.9413 77.1261C89.9413 76.2005 89.9099 76.0598 89.5864 75.5364C89.3667 75.1811 89.0127 74.8269 88.6577 74.6072C88.1177 74.273 88.0032 74.25 86.6961 74.213L85.3079 74.174V62.0029V49.8319L85.8969 49.811C87.4355 49.7566 88.8535 48.8099 89.6109 47.3314C89.9141 46.7392 89.9413 46.5802 89.9413 45.3959C89.9413 44.2116 89.9141 44.0526 89.6109 43.4604C89.1984 42.6551 88.6827 42.1158 87.4487 41.1987C86.9164 40.8032 86.4809 40.4429 86.4809 40.3982C86.4809 40.1704 87.8761 39.0888 88.6335 38.7293C89.6902 38.2277 90 37.8714 90 37.1577C90 36.348 89.7265 36.0108 88.6534 35.4974C87.2693 34.8353 86.6163 34.1898 85.9013 32.7771L85.3079 31.6046V29.2862V26.968L85.6972 26.8272C86.2819 26.6157 86.9751 25.9656 87.3011 25.3231C87.645 24.645 87.7659 23.1059 87.5388 22.2951C87.3277 21.5412 86.6385 20.7091 85.9099 20.3284L85.2812 20L79.1655 20.0012L73.0499 20.0023L72.4633 20.276ZM85.0503 21.9723C85.758 22.376 86.0258 23.755 85.5484 24.5379C85.1666 25.1641 84.9805 25.2084 82.4536 25.2755C80.326 25.332 80.113 25.3567 79.9609 25.5649C79.7184 25.8972 79.7531 26.5273 80.0293 26.8035C80.2407 27.0149 80.4203 27.0381 81.8475 27.0381H83.4311V29.313C83.4311 31.1362 83.3991 31.6001 83.2696 31.6497C83.1808 31.6839 82.8902 32.1683 82.6237 32.7265C82.2923 33.4205 81.9421 33.9383 81.5153 34.365C80.8604 35.0199 79.9969 35.5416 79.7344 35.4408C79.6493 35.4082 78.4931 34.5798 77.1652 33.6001L74.7507 31.8188V29.4284V27.0381H75.9056C77.2332 27.0381 77.4721 26.9039 77.4721 26.1584C77.4721 25.3729 77.3073 25.3046 75.2991 25.2581C73.285 25.2114 72.9201 25.0976 72.5965 24.4156C72.2267 23.6364 72.4572 22.3972 73.029 22.0913C73.574 21.7995 74.0956 21.7751 79.3255 21.7962C83.5826 21.8134 84.8394 21.852 85.0503 21.9723ZM61.1794 24.195C61.3856 24.3172 64.2199 26.3865 67.478 28.7935C70.7361 31.2006 74.5214 33.9941 75.8897 35.0014C77.6514 36.2982 78.3799 36.9013 78.385 37.0674C78.389 37.1965 78.4886 37.5132 78.6062 37.7713C78.7944 38.1837 78.9561 38.3082 79.9443 38.8004C81.3047 39.4781 81.9643 40.1494 82.6235 41.5273C83.1389 42.6045 83.4734 42.8739 84.2955 42.8739C84.7193 42.8739 84.9116 42.8028 85.2199 42.532L85.6094 42.19L86.5038 42.8545C87.8377 43.8456 88.1398 44.315 88.1398 45.3959C88.1398 46.1289 88.006 46.4856 87.5263 47.032C86.7433 47.9238 85.4981 48.2161 84.5423 47.7324C84.286 47.6028 78.8682 43.6135 72.5028 38.8673C66.1374 34.1212 60.806 30.2049 60.6552 30.1646C60.2432 30.0542 59.5552 30.0733 59.2095 30.2048C59.0405 30.2691 57.8811 31.0823 56.633 32.0121C54.7283 33.4307 54.3506 33.7615 54.2829 34.07C54.1422 34.7106 54.8203 35.3733 55.4212 35.1825C55.5471 35.1426 56.6002 34.3992 57.7614 33.5307C58.9226 32.6621 59.9372 31.9675 60.0163 31.9874C60.0954 32.0073 65.396 35.9238 71.7955 40.6908L83.4311 49.3581V61.7758V74.1936H76.5747H69.7182L69.6784 66.8915C69.6391 59.7154 69.6339 59.5745 69.3749 58.7247C68.5228 55.9277 66.7578 53.8209 64.2522 52.6101C62.8916 51.9525 61.8778 51.6802 60.4577 51.5911C55.0571 51.2522 50.2427 55.7756 50.2355 61.1954C50.235 61.5626 50.1837 61.8944 50.1214 61.9329C50.0591 61.9715 49.8157 62.3691 49.5805 62.8167C49.0768 63.7751 48.413 64.4251 47.4316 64.9205C46.6374 65.3214 46.3686 65.6457 46.2875 66.3005C46.2002 67.0062 46.5361 67.4791 47.4642 67.9573C48.4578 68.4693 49.1758 69.1943 49.629 70.143C49.8239 70.5511 50.04 70.92 50.1091 70.9626C50.1882 71.0115 50.2346 71.6231 50.2346 72.6169V74.1936H43.3724H36.5103V61.7754V49.3572L44.4509 43.4469C48.8183 40.1962 52.4869 37.4344 52.6034 37.3092C53.1093 36.7662 52.6664 35.8358 51.9018 35.8358C51.5526 35.8358 50.4517 36.6167 43.6819 41.6669C39.3826 44.874 35.6631 47.6 35.4161 47.7247C34.8138 48.0289 33.8896 48.0226 33.2833 47.7103C32.7096 47.4148 32.1121 46.8054 31.9343 46.3343C31.6327 45.5352 31.8223 44.4258 32.3779 43.7371C32.6035 43.4576 38.1004 39.3548 38.2494 39.3548C38.3012 39.3548 38.4278 39.5313 38.5307 39.747C38.9173 40.5579 40.1767 40.7628 40.8441 40.1234C41.0197 39.9552 41.3042 39.4747 41.4761 39.056C42.2616 37.1432 43.4005 36.0023 45.3287 35.1967C46.4103 34.7448 46.7645 34.3523 46.7903 33.5768L46.8104 32.9711L47.9067 32.163C48.5097 31.7186 51.1866 29.7419 53.8556 27.7703C56.5247 25.7987 58.9001 24.114 59.1342 24.0264C59.6816 23.8218 60.6904 23.905 61.1794 24.195ZM41.0534 31.0822C41.7483 31.944 42.7718 32.7817 43.6537 33.21L44.3186 33.533L43.638 33.884C42.2306 34.6099 40.8475 35.9974 40.1585 37.3748L39.8286 38.034L39.5326 37.4334C38.7926 35.933 37.5388 34.6629 36.0679 33.9239L35.3323 33.5543L36.0286 33.1994C37.5293 32.4347 38.7966 31.1558 39.5326 29.6633L39.8286 29.0628L40.1585 29.722C40.3398 30.0846 40.7425 30.6967 41.0534 31.0822ZM84.6043 34.3971C84.9898 35.1276 86.1486 36.2977 86.923 36.7383L87.541 37.09L86.8796 37.5292C85.9131 38.1709 85.275 38.7985 84.7148 39.6582L84.2188 40.4196L83.8658 39.7993C83.4239 39.0228 82.2545 37.864 81.5232 37.4782C81.2177 37.3171 80.9677 37.1587 80.9679 37.1263C80.968 37.094 81.2388 36.9153 81.5699 36.7294C82.3411 36.2962 83.4223 35.215 83.8555 34.4438C84.0414 34.1127 84.2201 33.8419 84.2524 33.8418C84.2848 33.8416 84.4432 34.0916 84.6043 34.3971ZM51.5752 41.4474C50.4328 41.9813 49.7638 43.5659 50.3605 44.3243C50.5479 44.5628 50.707 44.6334 51.0557 44.6334C51.4045 44.6334 51.5635 44.5628 51.751 44.3243C51.8847 44.1544 51.9941 43.8987 51.9941 43.756C51.9941 43.113 52.9612 42.8847 53.2463 43.4604C53.3262 43.6217 53.4222 43.9023 53.4595 44.084C53.5077 44.3181 53.6441 44.4631 53.9282 44.5817C54.415 44.7852 54.8255 44.6624 55.1099 44.2283C55.5226 43.5985 55.0195 42.2766 54.1288 41.6507C53.4745 41.1909 52.3208 41.099 51.5752 41.4474ZM66.3636 41.4065C65.3227 41.7714 64.429 43.3167 64.7754 44.1528C64.9153 44.4908 65.3209 44.7507 65.7082 44.7507C66.045 44.7507 66.5396 44.2961 66.5396 43.9863C66.5396 43.8333 66.666 43.5611 66.8206 43.3813C67.0678 43.094 67.1419 43.0687 67.4365 43.1717C67.6969 43.2628 67.8113 43.4148 67.9516 43.8564C68.0507 44.1687 68.2324 44.4976 68.3552 44.5874C68.9467 45.0199 69.824 44.5357 69.824 43.7765C69.824 42.8128 69.2968 41.9856 68.3967 41.537C67.7087 41.1943 67.0835 41.1541 66.3636 41.4065ZM58.739 41.9349C57.6161 42.1024 56.8341 42.6222 56.4938 43.4273C56.2486 44.0076 56.2907 45.4465 56.5752 46.2069C56.8879 47.0423 57.7031 47.9416 58.503 48.3329C59.3328 48.7389 60.4962 48.763 61.3379 48.3918C62.0462 48.0795 62.8362 47.3248 63.2016 46.6114C63.7628 45.5159 63.7851 43.9074 63.2511 43.0434C62.6503 42.0712 60.8274 41.6235 58.739 41.9349ZM61.0065 43.8034C61.2859 43.8574 61.5762 43.9634 61.6516 44.0389C61.8954 44.2832 61.781 45.2886 61.444 45.8636C60.4667 47.5313 58.2087 46.7509 58.1931 44.7401C58.1905 44.41 58.2436 44.0848 58.3111 44.0174C58.5851 43.7433 60.0813 43.6246 61.0065 43.8034ZM41.2226 51.7283C40.0473 52.0951 39.1937 53.0737 38.96 54.3221C38.8873 54.711 38.8531 55.6653 38.8825 56.4984C38.9286 57.8144 38.9704 58.0557 39.2533 58.6338C39.6215 59.3864 40.0706 59.8043 40.9411 60.2046C41.531 60.4758 41.6504 60.487 43.5218 60.4497C45.4482 60.4113 45.4955 60.4041 46.1219 60.0587C46.7751 59.6984 47.3577 59.0206 47.6157 58.3207C47.699 58.0947 47.7565 57.1831 47.7612 56.0117C47.7684 54.2192 47.7487 54.033 47.4947 53.4897C47.1227 52.6945 46.3098 51.9689 45.5323 51.7381C44.7401 51.5028 41.9656 51.4965 41.2226 51.7283ZM74.3882 51.7314C73.6666 51.9605 72.7877 52.7548 72.4476 53.4853C72.1926 54.0328 72.1729 54.2182 72.1802 56.0117C72.1849 57.1831 72.2423 58.0947 72.3256 58.3207C72.5837 59.0206 73.1662 59.6984 73.8195 60.0587L74.4575 60.4106H76.5689C78.5206 60.4106 78.7168 60.391 79.1632 60.1523C79.9415 59.7358 80.3477 59.3294 80.6978 58.6163C81.0174 57.9655 81.0264 57.8943 81.0264 56.0117C81.0264 53.8104 80.9091 53.3803 80.0841 52.5552C79.2848 51.756 78.8135 51.6195 76.7449 51.588C75.4118 51.5677 74.783 51.6061 74.3882 51.7314ZM45.1194 53.6089C45.7865 53.9255 45.8944 54.2673 45.8944 56.0632C45.8944 58.4401 45.7405 58.5924 43.337 58.5924C41.9547 58.5924 41.789 58.5692 41.425 58.3241C40.8476 57.9356 40.707 57.4014 40.7533 55.7718C40.8131 53.6682 41.0635 53.4433 43.3547 53.4357C44.3616 53.4324 44.8479 53.4801 45.1194 53.6089ZM61.456 53.6045C64.1906 54.12 66.4665 56.1415 67.4556 58.933L67.7713 59.824L67.8056 67.0088L67.84 74.1936H65.6734H63.5067L63.2637 74.5026C62.9552 74.8948 62.9552 75.2518 63.2637 75.644L63.5067 75.9531L75.1992 75.9538C82.8834 75.9541 87.0411 75.9959 87.328 76.0755C87.8594 76.2232 88.1232 76.5716 88.1232 77.1261C88.1232 77.6806 87.8594 78.029 87.328 78.1767C86.72 78.3455 33.2213 78.3455 32.6134 78.1767C32.082 78.029 31.8182 77.6806 31.8182 77.1261C31.8182 76.5716 32.082 76.2232 32.6134 76.0755C32.9022 75.9954 37.6528 75.9541 46.6494 75.9538L60.2488 75.9531L60.5204 75.6981C60.8635 75.3756 60.8784 74.7999 60.5526 74.4503C60.3154 74.1957 60.2801 74.1936 56.2124 74.1936H52.1114V72.5582C52.1114 71.6339 52.1607 70.8926 52.2246 70.853C52.2869 70.8144 52.5308 70.416 52.7666 69.9673C53.2643 69.0201 53.8212 68.4754 54.794 67.9843C55.6872 67.5334 55.9824 67.1619 55.9824 66.4886C55.9824 65.6967 55.7465 65.3686 54.8312 64.8876C53.8712 64.3832 53.1951 63.7423 52.805 62.9672C52.6494 62.6578 52.4222 62.2541 52.3002 62.07C51.9838 61.593 52.0994 60.1074 52.5557 58.7837C53.8438 55.0467 57.5784 52.8733 61.456 53.6045ZM78.3231 53.5972C79.0023 53.8811 79.1445 54.2384 79.188 55.7718C79.2344 57.4014 79.0937 57.9356 78.5164 58.3241C78.1524 58.5692 77.9866 58.5924 76.6043 58.5924C74.2008 58.5924 74.0469 58.4401 74.0469 56.0632C74.0469 54.2787 74.1534 53.9338 74.8034 53.613C75.2901 53.3728 77.7594 53.3618 78.3231 53.5972ZM62.5389 63.767C62.2269 63.8815 61.9648 64.2991 61.9648 64.6818C61.9648 64.7991 62.0743 65.0341 62.208 65.2041C62.445 65.5056 62.4838 65.5132 63.783 65.5132C65.0822 65.5132 65.1209 65.5056 65.358 65.2041C65.7723 64.6774 65.5879 63.9711 64.981 63.7595C64.5482 63.6087 62.9572 63.6136 62.5389 63.767ZM52.1114 65.204C52.4018 65.5234 52.8592 65.9254 53.128 66.0974L53.6167 66.41L52.8765 66.9469C52.4494 67.2565 51.9236 67.7851 51.6338 68.1961L51.1314 68.9085L50.9063 68.5306C50.5987 68.0137 49.8116 67.2074 49.1986 66.7808L48.6904 66.4271L49.2589 66.0443C49.8879 65.6208 50.5476 64.9358 50.8906 64.3504L51.1144 63.9682L51.349 64.2958C51.478 64.476 51.8211 64.8847 52.1114 65.204Z" fill="white"/>
</g>
<defs>
<filter id="filter0_d_444_128" x="0" y="0" width="120" height="140" filterUnits="userSpaceOnUse" color-interpolation-filters="sRGB">
<feFlood flood-opacity="0" result="BackgroundImageFix"/>
<feColorMatrix in="SourceAlpha" type="matrix" values="0 0 0 0 0 0 0 0 0 0 0 0 0 0 0 0 0 0 127 0" result="hardAlpha"/>
<feMorphology radius="20" operator="erode" in="SourceAlpha" result="effect1_dropShadow_444_128"/>
<feOffset dy="30"/>
<feGaussianBlur stdDeviation="15"/>
<feComposite in2="hardAlpha" operator="out"/>
<feColorMatrix type="matrix" values="0 0 0 0 0 0 0 0 0 0.486275 0 0 0 0 0.984314 0 0 0 0.6 0"/>
<feBlend mode="multiply" in2="BackgroundImageFix" result="effect1_dropShadow_444_128"/>
<feBlend mode="normal" in="SourceGraphic" in2="effect1_dropShadow_444_128" result="shape"/>
</filter>
</defs>
</svg>
