<svg width="120" height="140" viewBox="0 0 120 140" fill="none" xmlns="http://www.w3.org/2000/svg">
<g filter="url(#filter0_d_444_135)">
<path d="M10 10C10 4.47716 14.4772 0 20 0H80C96.5685 0 110 13.4315 110 30V90C110 95.5228 105.523 100 100 100H40C23.4315 100 10 86.5685 10 70V10Z" fill="#007CFB"/>
</g>
<mask id="mask0_444_135" style="mask-type:alpha" maskUnits="userSpaceOnUse" x="30" y="20" width="60" height="60">
<rect x="30" y="20" width="60" height="60" fill="white"/>
</mask>
<g mask="url(#mask0_444_135)">
<path fill-rule="evenodd" clip-rule="evenodd" d="M37.507 20.2116C36.91 20.528 36.2829 21.3014 36.1295 21.9108C36.0385 22.2723 36 26.8141 36 37.212C36 49.9606 36.0237 52.0448 36.1715 52.3308C36.4627 52.8939 37.1261 52.9826 37.5883 52.5204L37.8761 52.2326V37.3997C37.8761 26.3623 37.9111 22.49 38.0127 22.2669C38.0993 22.0769 38.3031 21.9227 38.5697 21.8455C38.8539 21.7632 44.377 21.7351 55.6218 21.7586L72.2536 21.7934L72.4776 22.0703C72.6926 22.3356 72.7018 22.6266 72.7018 29.1351V35.9231H71.5879H70.4739V30.3794C70.4739 24.3015 70.4981 24.5149 69.7691 24.1379C69.4768 23.9868 68.1478 23.9627 60.0947 23.9627C53.2221 23.9627 50.6915 23.9987 50.503 24.0991C49.8915 24.4248 49.773 25.0825 50.2416 25.551C50.524 25.8335 50.5659 25.8389 52.4695 25.8389H54.4096L54.4054 28.3892L54.4013 30.9396L53.9967 30.2288C53.4058 29.1907 53.1046 28.9462 52.4162 28.9462C51.6765 28.9462 51.3971 29.208 50.6398 30.6106L50.0579 31.6886L48.9798 32.2706C47.7105 32.9558 47.3758 33.2775 47.2957 33.8889C47.2023 34.6026 47.5866 35.0476 48.9318 35.7831L50.0699 36.4054L50.6663 37.5117C51.5098 39.0761 52.0809 39.4475 52.9721 39.0105C53.3947 38.8033 53.5879 38.571 54.1406 37.606L54.3991 37.1543L54.4044 40.4668L54.4096 43.7794H48.1949H41.9802V34.8091V25.8389H44.5651H47.1502L47.438 25.551C47.9065 25.0825 47.7881 24.4248 47.1766 24.0991C46.7769 23.8863 41.3902 23.9121 40.8702 24.1293C40.044 24.4746 40.104 22.8623 40.104 44.7061C40.104 59.3433 40.1389 64.4821 40.2394 64.7028C40.3138 64.8662 40.5116 65.0929 40.6791 65.2067C40.9632 65.3997 41.6616 65.4156 51.1556 65.446L61.3278 65.4784V66.5307V67.5828H49.845H38.3622L38.1192 67.2738C37.8809 66.971 37.8761 66.8536 37.8761 61.2884V55.6118L37.5883 55.324C37.0692 54.8048 36.2363 55.0453 36.0568 55.7661C36.0203 55.9128 36.0057 58.6184 36.0245 61.7785C36.0579 67.4088 36.0637 67.5336 36.3117 67.9932C36.451 68.2512 36.7148 68.6046 36.898 68.7785C37.6509 69.4931 37.009 69.4589 49.7155 69.4589H61.3278V70.2264C61.3278 70.885 61.3686 71.0348 61.6157 71.2817C62.1233 71.7895 62.9845 71.5365 63.1424 70.8334C63.1745 70.6902 63.2147 69.3329 63.2317 67.8173C63.2708 64.3301 63.1969 64.5171 65.4332 62.2462L67.0734 60.5806V59.1558V57.731L73.1199 57.7614L79.1663 57.7917L80.1032 59.961C81.9459 64.2281 81.9638 64.3352 81.964 71.1006C81.964 74.2185 81.9179 76.2498 81.841 76.5269C81.6972 77.0444 81.1461 77.7121 80.6287 77.9955C80.2969 78.1772 79.5904 78.1947 72.5846 78.1947C65.3058 78.1947 64.8827 78.1832 64.4938 77.9753C63.5052 77.4469 63.2039 76.8814 63.2039 75.5533C63.2039 74.6019 63.0935 74.2153 62.7451 73.9478C62.4368 73.7112 61.9278 73.7731 61.6157 74.0854C61.3483 74.3526 61.3278 74.4571 61.3278 75.5466C61.3278 77.504 61.9923 78.7565 63.4502 79.5468L64.2006 79.9536L72.3668 79.9859C80.3911 80.0177 80.5443 80.0141 81.1848 79.7744C82.0913 79.4353 82.9265 78.6489 83.398 77.6909L83.7828 76.9094V70.9855C83.7828 64.415 83.7662 64.2332 82.966 62.013C82.5708 60.9162 79.4489 53.626 78.968 52.6769C78.6683 52.0855 78.1067 51.5509 77.5989 51.374L77.2749 51.2609V49.8827C77.2749 48.6455 77.2477 48.4636 77.009 48.106C76.8628 47.8868 76.5725 47.632 76.3641 47.5399C76.0008 47.379 75.9851 47.3444 75.9851 46.7026V46.0332L77.2456 45.9898C78.3956 45.9503 78.5626 45.9146 79.151 45.5837C80.6953 44.7154 81.3142 42.8201 80.5613 41.2649C80.2492 40.62 77.221 37.6345 76.2286 36.9933C75.8143 36.7256 75.2734 36.4462 75.0267 36.3722L74.578 36.2377V29.1169V21.9961L74.2505 21.3691C74.046 20.9777 73.7337 20.6091 73.4196 20.3883L72.9162 20.0346L55.4255 20.0098C38.339 19.9857 37.9249 19.9902 37.507 20.2116ZM68.5978 30.8772V35.9156L63.7987 35.9486C59.1395 35.9808 58.9899 35.9889 58.6686 36.227C58.4866 36.362 58.219 36.6468 58.0739 36.86C57.831 37.2168 57.81 37.3789 57.8105 38.9012C57.8109 40.3677 57.8384 40.5999 58.0542 40.9538C58.54 41.7506 59.1738 42.0205 60.5589 42.0205H61.3278V42.8999V43.7794H58.8067H56.2857V39.6869V35.5945L56.695 35.353C57.8545 34.6688 57.8103 33.3097 56.6081 32.6843L56.2857 32.5166V29.1777V25.8389H62.4417H68.5978V30.8772ZM59.9952 28.1926C59.7235 28.4062 59.6862 28.5194 59.6862 29.1306V29.8256H59.036C58.2355 29.8256 57.81 30.1626 57.81 30.7965C57.81 31.4111 58.1984 31.7018 59.0194 31.7018H59.6862V32.3968C59.6862 33.008 59.7235 33.1212 59.9952 33.3348C60.782 33.9538 61.5623 33.3704 61.5623 32.1632V31.7018H62.1851C62.8465 31.7018 63.3073 31.4296 63.3347 31.023C63.388 30.2305 62.9896 29.8256 62.1566 29.8256H61.5914L61.5363 29.1609C61.4915 28.6217 61.421 28.4443 61.1634 28.2228C60.7707 27.885 60.3983 27.8754 59.9952 28.1926ZM52.6501 31.7002C53.0278 32.6123 53.4528 33.0907 54.3023 33.5596L55.1487 34.0271L54.5314 34.3594C53.5947 34.8639 53.2573 35.186 52.8773 35.9387C52.6863 36.3171 52.4853 36.6266 52.4308 36.6266C52.3762 36.6266 52.1649 36.3138 51.9611 35.9315C51.5534 35.1665 51.2281 34.8587 50.2988 34.3583L49.6794 34.0248L50.4175 33.6304C51.3831 33.1145 51.5107 32.9887 51.9701 32.1002C52.1832 31.6881 52.3907 31.3507 52.4313 31.3505C52.4717 31.3502 52.5702 31.5076 52.6501 31.7002ZM46.5618 37.4046C46.3845 37.63 46.3187 37.8837 46.3187 38.3427V38.9718H45.6237C45.0125 38.9718 44.8993 39.0091 44.6857 39.2808C44.3685 39.6839 44.3781 40.0563 44.7159 40.449C44.9374 40.7066 45.1148 40.7771 45.654 40.8219L46.3187 40.877V41.4329C46.3187 42.2011 46.6429 42.6068 47.2568 42.6068C47.8706 42.6068 48.1949 42.2011 48.1949 41.4329V40.877L48.8596 40.8219C49.3988 40.7771 49.5762 40.7066 49.7977 40.449C50.1355 40.0563 50.1451 39.6839 49.8279 39.2808C49.6143 39.0091 49.5011 38.9718 48.8899 38.9718H48.1949V38.3427C48.1949 37.4969 47.893 37.0957 47.2568 37.0957C46.9082 37.0957 46.7492 37.1662 46.5618 37.4046ZM61.3278 38.9718V40.1444H60.507H59.6862V38.9718V37.7992H60.507H61.3278V38.9718ZM74.6366 38.2572C75.3086 38.5842 75.7705 38.965 77.1853 40.358C79.0701 42.2139 79.204 42.4415 78.8744 43.2301C78.7756 43.4669 78.5232 43.7624 78.308 43.8936C77.9373 44.1195 77.7259 44.1303 73.6231 44.1307L69.3263 44.1312L66.2652 42.3099L63.2039 40.4888V39.1384V37.7881L68.5099 37.823L73.8158 37.8578L74.6366 38.2572ZM64.4351 43.4283C65.0156 43.7715 65.5091 44.0667 65.5319 44.0842C65.5775 44.1195 63.3172 47.4144 63.2474 47.4144C63.2235 47.4144 63.2039 46.3559 63.2039 45.0623C63.2039 43.7687 63.2434 42.7314 63.2919 42.7574C63.3403 42.7833 63.8547 43.0852 64.4351 43.4283ZM54.4096 54.6258V63.596H48.1949H41.9802V54.6258V45.6555H48.1949H54.4096V54.6258ZM61.3278 47.702C61.3278 49.0389 61.3763 49.8551 61.4679 50.056C61.7674 50.7133 62.8205 50.909 63.4001 50.4151C63.5824 50.2598 64.4175 49.1268 65.2559 47.8975L66.7803 45.6622L67.4545 45.6588L68.1288 45.6555L68.1284 46.5056L68.1282 47.3558L67.6887 47.5903C66.9982 47.9588 66.8393 48.4094 66.8392 50.0008L66.8389 51.356L66.329 51.7155C66.0096 51.9407 65.7137 52.2888 65.5375 52.6468C65.2637 53.2031 65.255 53.3083 65.2212 56.498L65.1866 59.7775L63.8066 61.1884C63.0476 61.9644 62.3015 62.8236 62.1487 63.0977L61.8709 63.596H59.0783H56.2857V54.6258V45.6555H58.8067H61.3278V47.702ZM74.1089 46.7108V47.4144H72.0569H70.0049V46.7108V46.0073H72.0569H74.1089V46.7108ZM48.7847 46.62C48.4792 46.7813 48.2238 47.1299 47.699 48.1025C47.4264 48.6077 47.2467 48.768 46.4849 49.1862C44.7119 50.1592 44.6799 51.2324 46.3968 52.1346C47.3433 52.632 47.4443 52.7346 47.9693 53.7343C48.8364 55.3854 49.8767 55.3272 50.8872 53.5711C51.3783 52.7179 51.4816 52.6129 52.2241 52.2126C53.3549 51.6029 53.5301 51.4009 53.5301 50.7066C53.5301 49.9955 53.3549 49.7886 52.2241 49.1643C51.4362 48.7294 51.3356 48.6288 50.9007 47.841C50.6418 47.3719 50.327 46.895 50.201 46.781C49.9026 46.511 49.1527 46.4258 48.7847 46.62ZM50.4882 50.3623C50.7655 50.5094 50.9661 50.6722 50.9341 50.724C50.9021 50.7758 50.669 50.9238 50.4162 51.0528C50.0966 51.2158 49.872 51.4537 49.6789 51.8336L49.4012 52.3799L49.0841 51.839C48.8827 51.4953 48.5697 51.1824 48.2261 50.9809L47.6851 50.6638L48.2306 50.3866C48.571 50.2136 48.8487 49.9665 48.9692 49.7293C49.3345 49.0099 49.3818 48.9995 49.6952 49.5694C49.8895 49.9228 50.1492 50.1824 50.4882 50.3623ZM75.3988 50.2286V51.1666H72.0569H68.7151V50.2286V49.2905H72.0569H75.3988V50.2286ZM69.5359 54.5085V55.9742H68.3047H67.0734V54.7964C67.0734 53.702 67.0938 53.598 67.3613 53.3306C67.6192 53.0727 67.7472 53.0428 68.5925 53.0428H69.5359V54.5085ZM72.7018 54.5085V55.9742H72.0569H71.412V54.5085V53.0428H72.0569H72.7018V54.5085ZM77.0859 53.2628C77.2546 53.4492 78.3302 55.7428 78.3302 55.916C78.3302 55.9481 77.486 55.9742 76.4541 55.9742H74.578V54.5085V53.0428H75.7324C76.7125 53.0428 76.9168 53.076 77.0859 53.2628ZM67.4907 63.0674C66.833 63.3017 66.4792 63.5958 66.0768 64.2427L65.725 64.8082L65.6872 68.8632C65.6663 71.0934 65.6833 73.1948 65.7249 73.533C65.8331 74.4154 66.3731 75.1758 67.1824 75.5857L67.8191 75.9081L72.459 75.9074C75.3684 75.9071 77.2661 75.8604 77.5471 75.7824C78.1194 75.6234 78.8921 74.9283 79.1668 74.3252C79.3615 73.8978 79.3804 73.461 79.3804 69.4003C79.3804 64.4306 79.3786 64.4182 78.5493 63.6304C77.7951 62.9136 77.617 62.8919 72.5405 62.8976C68.9094 62.9017 67.8565 62.9372 67.4907 63.0674ZM77.2528 65.0077C77.4563 65.1973 77.5094 65.3794 77.5094 65.8871V66.5275H72.526H67.5425V65.9359C67.5425 65.4641 67.6008 65.286 67.8303 65.0565L68.1181 64.7686H72.5571C76.8624 64.7686 77.0039 64.7758 77.2528 65.0077ZM77.5094 70.9833C77.5094 73.4067 77.4952 73.5772 77.2749 73.7975C77.0486 74.0238 76.8841 74.032 72.5793 74.032H68.1181L67.8303 73.7441C67.5425 73.4564 67.5425 73.456 67.5425 70.9299V68.4036H72.526H77.5094V70.9833Z" fill="white"/>
</g>
<defs>
<filter id="filter0_d_444_135" x="0" y="0" width="120" height="140" filterUnits="userSpaceOnUse" color-interpolation-filters="sRGB">
<feFlood flood-opacity="0" result="BackgroundImageFix"/>
<feColorMatrix in="SourceAlpha" type="matrix" values="0 0 0 0 0 0 0 0 0 0 0 0 0 0 0 0 0 0 127 0" result="hardAlpha"/>
<feMorphology radius="20" operator="erode" in="SourceAlpha" result="effect1_dropShadow_444_135"/>
<feOffset dy="30"/>
<feGaussianBlur stdDeviation="15"/>
<feComposite in2="hardAlpha" operator="out"/>
<feColorMatrix type="matrix" values="0 0 0 0 0 0 0 0 0 0.486275 0 0 0 0 0.984314 0 0 0 0.6 0"/>
<feBlend mode="multiply" in2="BackgroundImageFix" result="effect1_dropShadow_444_135"/>
<feBlend mode="normal" in="SourceGraphic" in2="effect1_dropShadow_444_135" result="shape"/>
</filter>
</defs>
</svg>
