<svg width="120" height="140" viewBox="0 0 120 140" fill="none" xmlns="http://www.w3.org/2000/svg">
<g filter="url(#filter0_d_444_153)">
<path d="M10 10C10 4.47716 14.4772 0 20 0H80C96.5685 0 110 13.4315 110 30V90C110 95.5228 105.523 100 100 100H40C23.4315 100 10 86.5685 10 70V10Z" fill="#007CFB"/>
</g>
<mask id="mask0_444_153" style="mask-type:alpha" maskUnits="userSpaceOnUse" x="30" y="20" width="60" height="60">
<rect x="30" y="20" width="60" height="60" fill="white"/>
</mask>
<g mask="url(#mask0_444_153)">
<path fill-rule="evenodd" clip-rule="evenodd" d="M59.4337 20.142C59.3231 20.2229 58.6119 21.95 57.8531 23.98L56.4734 27.671L53.6877 29.0832C52.1556 29.8599 50.8537 30.5719 50.7947 30.6653C50.7355 30.7587 50.6872 31.0196 50.6872 31.2452C50.6872 31.4708 50.7355 31.7318 50.7947 31.8252C50.8537 31.9186 52.1556 32.6305 53.6877 33.4072L56.4734 34.8195L57.8531 38.5105C58.6119 40.5404 59.3231 42.2675 59.4337 42.3484C59.6927 42.5378 60.4247 42.5378 60.6836 42.3484C60.7943 42.2675 61.5055 40.5404 62.2643 38.5105L63.644 34.8195L66.4297 33.4072C67.9618 32.6305 69.2636 31.9186 69.3227 31.8252C69.3819 31.7318 69.4302 31.4708 69.4302 31.2452C69.4302 31.0196 69.3819 30.7587 69.3227 30.6653C69.2636 30.5719 67.9618 29.8599 66.4297 29.0832L63.644 27.671L62.2643 23.98C61.5055 21.95 60.7943 20.2229 60.6836 20.142C60.4247 19.9527 59.6927 19.9527 59.4337 20.142ZM60.9954 26.294C61.4675 27.5669 61.9196 28.7403 62.0002 28.9014C62.1062 29.1139 62.6966 29.4672 64.1495 30.1877C65.2511 30.7342 66.1525 31.2099 66.1525 31.2452C66.1525 31.2805 65.2511 31.7563 64.1495 32.3027C62.6966 33.0232 62.1062 33.3765 62.0002 33.589C61.9196 33.7501 61.4675 34.9235 60.9954 36.1965C60.5231 37.4695 60.1017 38.5109 60.0587 38.5109C60.0157 38.5109 59.5943 37.4695 59.122 36.1965C58.6498 34.9235 58.1977 33.7501 58.1172 33.589C58.0112 33.3765 57.4208 33.0232 55.9678 32.3027C54.8663 31.7563 53.9649 31.2805 53.9649 31.2452C53.9649 31.2099 54.8663 30.7342 55.9678 30.1877C57.4208 29.4672 58.0112 29.1139 58.1172 28.9014C58.1977 28.7403 58.6498 27.5669 59.122 26.294C59.5943 25.0211 60.0157 23.9795 60.0587 23.9795C60.1017 23.9795 60.5231 25.0211 60.9954 26.294ZM37.8159 24.8939C37.6424 25.0674 36.9531 27.2936 35.9015 31.0769C35.8074 31.415 35.6685 31.489 33.5135 32.3488C32.0975 32.9138 31.1817 33.3435 31.1107 33.4763C30.9631 33.7519 30.9631 34.3636 31.1107 34.6392C31.1817 34.772 32.0975 35.2018 33.5135 35.7667C35.6685 36.6265 35.8074 36.7005 35.9015 37.0386C36.9531 40.8219 37.6424 43.0481 37.8159 43.2216C38.0986 43.5044 38.8932 43.5044 39.176 43.2216C39.3494 43.0481 40.0387 40.8219 41.0904 37.0386C41.1845 36.7005 41.3233 36.6265 43.4783 35.7667C44.8943 35.2018 45.8101 34.772 45.8812 34.6392C46.0287 34.3636 46.0287 33.7519 45.8812 33.4763C45.8101 33.3435 44.8943 32.9138 43.4783 32.3488C41.3233 31.489 41.1845 31.415 41.0904 31.0769C40.0387 27.2936 39.3494 25.0674 39.176 24.8939C39.0428 24.7608 38.7913 24.6826 38.4959 24.6826C38.2005 24.6826 37.949 24.7608 37.8159 24.8939ZM80.9414 26.769C80.768 26.9424 80.0787 29.1686 79.027 32.952C78.9329 33.2901 78.794 33.364 76.639 34.2238C75.2231 34.7888 74.3072 35.2185 74.2362 35.3513C74.173 35.4693 74.1214 35.731 74.1214 35.9328C74.1214 36.1346 74.173 36.3963 74.2362 36.5143C74.3072 36.647 75.2231 37.0768 76.639 37.6417C78.794 38.5016 78.9329 38.5755 79.027 38.9136C80.0787 42.6969 80.768 44.9232 80.9414 45.0966C81.2242 45.3794 82.0187 45.3794 82.3015 45.0966C82.4749 44.9232 83.1642 42.6969 84.2159 38.9136C84.31 38.5755 84.4489 38.5016 86.6039 37.6417C88.0199 37.0768 88.9357 36.647 89.0067 36.5143C89.0699 36.3963 89.1216 36.1346 89.1216 35.9328C89.1216 35.731 89.0699 35.4693 89.0067 35.3513C88.9357 35.2185 88.0199 34.7888 86.6039 34.2238C84.4489 33.364 84.31 33.2901 84.2159 32.952C83.1642 29.1686 82.4749 26.9424 82.3015 26.769C82.1684 26.6358 81.9169 26.5577 81.6215 26.5577C81.326 26.5577 81.0745 26.6358 80.9414 26.769ZM38.9565 30.8644C39.5668 33.0526 39.447 32.8945 40.9436 33.4855C41.6591 33.7681 42.2444 34.0255 42.2444 34.0578C42.2444 34.09 41.6591 34.3474 40.9436 34.63C39.447 35.221 39.5668 35.0629 38.9565 37.2512C38.7453 38.0085 38.538 38.6281 38.4959 38.6281C38.4538 38.6281 38.2465 38.0085 38.0354 37.2512C37.425 35.0629 37.5448 35.221 36.0482 34.63C35.3327 34.3474 34.7474 34.09 34.7474 34.0578C34.7474 34.0255 35.3327 33.7681 36.0482 33.4855C37.5448 32.8945 37.425 33.0526 38.0354 30.8644C38.2465 30.107 38.4538 29.4874 38.4959 29.4874C38.538 29.4874 38.7453 30.107 38.9565 30.8644ZM82.082 32.7394C82.6923 34.9277 82.5726 34.7696 84.0692 35.3605C84.7846 35.6431 85.37 35.9006 85.37 35.9328C85.37 35.965 84.7846 36.2225 84.0692 36.505C82.5726 37.096 82.6923 36.9379 82.082 39.1262C81.8708 39.8836 81.6635 40.5032 81.6215 40.5032C81.5794 40.5032 81.3721 39.8836 81.1609 39.1262C80.5506 36.9379 80.6704 37.096 79.1737 36.505C78.4583 36.2225 77.8729 35.965 77.8729 35.9328C77.8729 35.9006 78.4583 35.6431 79.1737 35.3605C80.6704 34.7696 80.5506 34.9277 81.1609 32.7394C81.3721 31.982 81.5794 31.3624 81.6215 31.3624C81.6635 31.3624 81.8708 31.982 82.082 32.7394ZM47.1679 38.0422C46.9417 38.2684 46.9335 38.4328 46.9335 42.7297V47.1829H40.1366C33.4958 47.1829 33.3342 47.1883 33.1052 47.4173C32.8732 47.6493 32.8708 47.8079 32.8708 63.5894C32.8708 79.3709 32.8732 79.5294 33.1052 79.7615C33.2614 79.9177 33.4958 79.9958 33.8083 79.9958C34.1209 79.9958 34.3553 79.9177 34.5115 79.7615C34.7434 79.5295 34.7459 79.3709 34.7459 64.2925V49.0579H40.8397H46.9335V54.9174C46.9335 60.6206 46.9397 60.7831 47.1679 61.0112C47.3241 61.1674 47.5585 61.2456 47.871 61.2456C48.1836 61.2456 48.4179 61.1674 48.5742 61.0112C48.805 60.7804 48.8085 60.6206 48.8085 50.2298V39.6828H52.3242C55.6837 39.6828 55.8503 39.6724 56.0743 39.4484C56.2305 39.2922 56.3086 39.0579 56.3086 38.7453C56.3086 38.4328 56.2305 38.1984 56.0743 38.0422C55.8485 37.8165 55.6837 37.8078 51.6211 37.8078C47.5585 37.8078 47.3936 37.8165 47.1679 38.0422ZM64.0431 38.0422C63.8869 38.1984 63.8087 38.4328 63.8087 38.7453C63.8087 39.0579 63.8869 39.2922 64.0431 39.4484C64.2671 39.6724 64.4337 39.6828 67.7932 39.6828H71.3088V47.1829V54.683H67.3244C63.4962 54.683 63.3308 54.6922 63.1056 54.9174C62.8743 55.1487 62.8712 55.308 62.8712 67.3394C62.8712 79.3709 62.8743 79.5301 63.1056 79.7615C63.4236 80.0795 64.1938 80.0795 64.5119 79.7615C64.7431 79.5303 64.7462 79.3709 64.7462 68.0426V56.558H74.5901H84.434V68.0426C84.434 79.3709 84.4372 79.5303 84.6684 79.7615C84.8246 79.9177 85.059 79.9958 85.3715 79.9958C85.684 79.9958 85.9184 79.9177 86.0746 79.7615C86.306 79.5301 86.309 79.3709 86.309 67.3394C86.309 55.308 86.306 55.1487 86.0746 54.9174C85.846 54.6888 85.684 54.683 79.5121 54.683H73.1838V46.4798C73.1838 38.4328 73.1794 38.2721 72.9495 38.0422C72.7238 37.8165 72.5589 37.8078 68.4963 37.8078C64.4337 37.8078 64.2688 37.8165 64.0431 38.0422ZM61.2306 44.6048C61.0073 44.828 60.9962 44.9954 60.9962 48.1204C60.9962 51.2455 61.0073 51.4129 61.2306 51.6361C61.4538 51.8594 61.6212 51.8705 64.7462 51.8705C67.8713 51.8705 68.0387 51.8594 68.2619 51.6361C68.4852 51.4129 68.4963 51.2455 68.4963 48.1204C68.4963 44.9954 68.4852 44.828 68.2619 44.6048C68.0387 44.3815 67.8713 44.3704 64.7462 44.3704C61.6212 44.3704 61.4538 44.3815 61.2306 44.6048ZM66.6213 48.1204V49.9955H64.7462H62.8712V48.1204V46.2454H64.7462H66.6213V48.1204ZM52.793 53.0424C52.5697 53.2656 52.5586 53.433 52.5586 56.558C52.5586 59.6831 52.5697 59.8505 52.793 60.0737C53.0162 60.297 53.1836 60.3081 56.3086 60.3081C59.4337 60.3081 59.6011 60.297 59.8243 60.0737C60.0475 59.8505 60.0587 59.6831 60.0587 56.558C60.0587 53.433 60.0475 53.2656 59.8243 53.0424C59.6011 52.8191 59.4337 52.808 56.3086 52.808C53.1836 52.808 53.0162 52.8191 52.793 53.0424ZM58.1837 56.558V58.4331H56.3086H54.4336V56.558V54.683H56.3086H58.1837V56.558ZM37.7928 57.7299C37.5695 57.9532 37.5584 58.1205 37.5584 61.2456C37.5584 64.3707 37.5695 64.538 37.7928 64.7613C38.016 64.9845 38.1834 64.9957 41.3084 64.9957C44.4335 64.9957 44.6009 64.9845 44.8241 64.7613C45.0474 64.538 45.0585 64.3707 45.0585 61.2456C45.0585 58.1205 45.0474 57.9532 44.8241 57.7299C44.6009 57.5067 44.4335 57.4956 41.3084 57.4956C38.1834 57.4956 38.016 57.5067 37.7928 57.7299ZM43.1835 61.2456V63.1206H41.3084H39.4334V61.2456V59.3706H41.3084H43.1835V61.2456ZM67.7932 60.5425C67.5699 60.7657 67.5588 60.9331 67.5588 64.0581C67.5588 67.1832 67.5699 67.3506 67.7932 67.5738C68.0164 67.7971 68.1837 67.8082 71.3088 67.8082C74.4339 67.8082 74.6012 67.7971 74.8245 67.5738C75.0477 67.3506 75.0589 67.1832 75.0589 64.0581C75.0589 60.9331 75.0477 60.7657 74.8245 60.5425C74.6012 60.3192 74.4339 60.3081 71.3088 60.3081C68.1837 60.3081 68.0164 60.3192 67.7932 60.5425ZM73.1838 64.0581V65.9332H71.3088H69.4338V64.0581V62.1831H71.3088H73.1838V64.0581ZM47.1679 63.355C47.0117 63.5112 46.9335 63.7456 46.9335 64.0581C46.9335 64.6831 47.2461 64.9957 47.871 64.9957C48.496 64.9957 48.8085 64.6831 48.8085 64.0581C48.8085 63.7456 48.7304 63.5112 48.5742 63.355C48.4179 63.1988 48.1836 63.1206 47.871 63.1206C47.5585 63.1206 47.3241 63.1988 47.1679 63.355ZM47.1679 67.1051C46.9395 67.3335 46.9335 67.4956 46.9335 73.4333C46.9335 79.3709 46.9395 79.5331 47.1679 79.7615C47.3241 79.9177 47.5585 79.9958 47.871 79.9958C48.1836 79.9958 48.4179 79.9177 48.5742 79.7615C48.8026 79.5331 48.8085 79.3709 48.8085 73.4333C48.8085 67.4956 48.8026 67.3335 48.5742 67.1051C48.4179 66.9488 48.1836 66.8707 47.871 66.8707C47.5585 66.8707 47.3241 66.9488 47.1679 67.1051ZM52.793 67.1051C52.5697 67.3283 52.5586 67.4956 52.5586 70.6207C52.5586 73.7458 52.5697 73.9131 52.793 74.1364C53.0162 74.3596 53.1836 74.3708 56.3086 74.3708C59.4337 74.3708 59.6011 74.3596 59.8243 74.1364C60.0475 73.9131 60.0587 73.7458 60.0587 70.6207C60.0587 67.4956 60.0475 67.3283 59.8243 67.1051C59.6011 66.8818 59.4337 66.8707 56.3086 66.8707C53.1836 66.8707 53.0162 66.8818 52.793 67.1051ZM58.1837 70.6207V72.4957H56.3086H54.4336V70.6207V68.7457H56.3086H58.1837V70.6207ZM75.2933 69.9176C75.07 70.1408 75.0589 70.3082 75.0589 73.4333C75.0589 76.5583 75.07 76.7257 75.2933 76.9489C75.5165 77.1722 75.6838 77.1833 78.8089 77.1833C81.934 77.1833 82.1013 77.1722 82.3246 76.9489C82.5478 76.7257 82.559 76.5583 82.559 73.4333C82.559 70.3082 82.5478 70.1408 82.3246 69.9176C82.1013 69.6943 81.934 69.6832 78.8089 69.6832C75.6838 69.6832 75.5165 69.6943 75.2933 69.9176ZM80.6839 73.4333V75.3083H78.8089H76.9339V73.4333V71.5582H78.8089H80.6839V73.4333Z" fill="white"/>
</g>
<defs>
<filter id="filter0_d_444_153" x="0" y="0" width="120" height="140" filterUnits="userSpaceOnUse" color-interpolation-filters="sRGB">
<feFlood flood-opacity="0" result="BackgroundImageFix"/>
<feColorMatrix in="SourceAlpha" type="matrix" values="0 0 0 0 0 0 0 0 0 0 0 0 0 0 0 0 0 0 127 0" result="hardAlpha"/>
<feMorphology radius="20" operator="erode" in="SourceAlpha" result="effect1_dropShadow_444_153"/>
<feOffset dy="30"/>
<feGaussianBlur stdDeviation="15"/>
<feComposite in2="hardAlpha" operator="out"/>
<feColorMatrix type="matrix" values="0 0 0 0 0 0 0 0 0 0.486275 0 0 0 0 0.984314 0 0 0 0.6 0"/>
<feBlend mode="multiply" in2="BackgroundImageFix" result="effect1_dropShadow_444_153"/>
<feBlend mode="normal" in="SourceGraphic" in2="effect1_dropShadow_444_153" result="shape"/>
</filter>
</defs>
</svg>
