<svg width="80" height="80" viewBox="0 0 80 80" fill="none" xmlns="http://www.w3.org/2000/svg">
<mask id="mask0_801_25973" style="mask-type:alpha" maskUnits="userSpaceOnUse" x="0" y="0" width="80" height="80">
<rect x="80" y="80" width="80" height="80" transform="rotate(-180 80 80)" fill="white"/>
</mask>
<g mask="url(#mask0_801_25973)">
<path fill-rule="evenodd" clip-rule="evenodd" d="M64.6669 64.8312C72.2215 63.4935 78.1625 57.891 79.6688 50.6845C80.1688 48.2921 80.0959 44.8345 79.4962 42.5165C77.6775 35.4839 71.7584 30.2008 64.4281 29.0674L63.0792 28.8589L55.6876 21.6405C47.8068 13.9445 47.6012 13.784 46.0046 14.0776C44.9534 14.2708 44.1883 14.7604 43.675 15.5687L43.2333 16.2639L43.2333 32.8493C43.2333 49.4216 43.2337 49.4361 43.6912 51.198C44.1952 53.138 45.3633 55.743 46.3781 57.1896C48.8165 60.6658 52.6287 63.2815 57.0039 64.4804C58.6066 64.9196 63.0253 65.122 64.6669 64.8312ZM22.2736 64.6425C30.7413 62.8882 36.849 55.4752 36.849 46.9519C36.849 42.1201 34.9821 37.6865 31.4877 34.2198C28.8452 31.5981 25.6998 29.9475 21.9698 29.2247L19.9447 28.8324L12.5531 21.6234C6.3292 15.5534 5.02868 14.3761 4.32031 14.1713C2.78063 13.7264 1.11174 14.3995 0.372586 15.7641C0.0163769 16.4216 -0.00225413 17.2675 0.000170675 32.6475C0.00260314 47.6564 0.0303435 48.9698 0.379876 50.6301C1.86205 57.6739 7.49443 63.1983 14.6758 64.6521C16.9842 65.1194 19.9899 65.1157 22.2736 64.6425ZM58.9794 58.174C54.6052 57.1624 51.0479 53.574 50.1194 49.2361C49.878 48.1079 49.8211 45.7109 49.8183 36.5255L49.8149 25.2051L54.7257 30.0131C59.8775 35.0571 60.3836 35.4315 62.0503 35.4315C65.2596 35.4315 68.9645 37.3399 70.9874 40.0349C72.6537 42.2551 73.3394 44.305 73.3335 47.0504C73.3268 50.3081 71.9398 53.3577 69.487 55.5078C68.2041 56.6324 65.9589 57.8028 64.3516 58.1845C62.8911 58.5313 60.5043 58.5268 58.9794 58.174ZM14.6343 57.8745C11.3229 56.7496 8.52359 54.0155 7.25912 50.6708C6.79274 49.4373 6.79173 49.4091 6.72834 37.3184L6.66497 25.2021L11.786 30.2014C17.4575 35.7382 16.6298 35.1876 19.7951 35.5294C24.2304 36.0083 28.1113 39.0991 29.6008 43.3389C30.2701 45.2441 30.2701 48.6597 29.6008 50.565C28.2107 54.5216 24.6488 57.5515 20.451 58.3482C19.2669 58.573 15.8781 58.2969 14.6343 57.8745Z" fill="#007CFB"/>
</g>
</svg>
