<svg id="Слой_1" data-name="Слой 1" xmlns="http://www.w3.org/2000/svg" viewBox="0 0 246.98 41.97"><defs><style>.cls-1{fill:#fdb819;}.cls-2{stroke:#fff;stroke-miterlimit:10;}</style></defs><path class="cls-1" d="M30.41,35.84H16.09l-2,6.73H1.23L16.57,1.77H30.32l15.33,40.8H32.45ZM27.79,27l-4.5-14.66L18.83,27Z" transform="translate(-1.23 -1.27)"/><path class="cls-1" d="M79.5,42.57H68.92V37.79A15.82,15.82,0,0,1,64.15,42a12.8,12.8,0,0,1-5.92,1.25,9.6,9.6,0,0,1-7.33-2.8q-2.65-2.79-2.66-8.61V13H59.62V29.27a6,6,0,0,0,1,3.95,3.66,3.66,0,0,0,2.9,1.17,4.12,4.12,0,0,0,3.32-1.56q1.3-1.56,1.3-5.59V13H79.5Z" transform="translate(-1.23 -1.27)"/><path class="cls-1" d="M100,1.77V13h6.23v8.3H100V31.78a5.66,5.66,0,0,0,.36,2.5,2.07,2.07,0,0,0,1.95.94,12.45,12.45,0,0,0,3.5-.72l.84,7.82a37,37,0,0,1-7.85.92,13.74,13.74,0,0,1-6.24-1.08,6.65,6.65,0,0,1-3-3.3,19.36,19.36,0,0,1-1-7.16V21.31H84.51V13h4.17V7.59Z" transform="translate(-1.23 -1.27)"/><path class="cls-1" d="M110.28,27.88a14.8,14.8,0,0,1,4.56-11.15q4.56-4.38,12.33-4.38,8.88,0,13.42,5.15a14.89,14.89,0,0,1,3.64,10.21,14.83,14.83,0,0,1-4.52,11.17q-4.52,4.36-12.51,4.36-7.12,0-11.52-3.62A14.52,14.52,0,0,1,110.28,27.88Zm11.35,0c0,2.63.54,4.58,1.6,5.84a5.24,5.24,0,0,0,8,0c1-1.24,1.57-3.24,1.57-6q0-3.84-1.59-5.72a4.94,4.94,0,0,0-3.92-1.88,5.13,5.13,0,0,0-4.09,1.91Q121.63,24,121.63,27.85Z" transform="translate(-1.23 -1.27)"/><path class="cls-1" d="M146.43,1.77h13.18l9.18,29.36,9.07-29.36h12.8l-15.15,40.8H161.84Z" transform="translate(-1.23 -1.27)"/><path class="cls-1" d="M195.36,1.77h11.33V9.48H195.36Zm0,11.24h11.33V42.57H195.36Z" transform="translate(-1.23 -1.27)"/><path class="cls-1" d="M211.39,13h13.44l4.69,8.24L235,13h12.5L237.41,27.1l10.8,15.47H235l-5.47-9.52-6.41,9.52H210.83L221.57,27.1Z" transform="translate(-1.23 -1.27)"/><rect class="cls-2" x="194.03" y="0.5" width="11.43" height="7.71"/></svg>