<svg id="Layer_1" data-name="Layer 1" xmlns="http://www.w3.org/2000/svg" viewBox="0 0 1484.13 544.64"><defs><style>.cls-1{fill:#f39200;}.cls-2{font-size:301.75px;font-family:Arial-Black, Arial;font-weight:800;}.cls-2,.cls-4{fill:#fff;}.cls-3{letter-spacing:-0.01em;}.cls-4{font-size:84px;font-family:Impact;}.cls-5{font-size:125.69px;font-family:Verdana-Bold, Verdana;}.cls-5,.cls-6,.cls-7{font-weight:700;}.cls-6,.cls-7{font-size:152px;font-family:Garamond-Bold, Garamond;}.cls-6{letter-spacing:-0.03em;}</style></defs><path class="cls-1" d="M211,431.3A167.57,167.57,0,1,1,388.34,150h91l11.35-12.15a255.45,255.45,0,0,0-21.59-27.42L445.86,124a228,228,0,0,0-18.49-17.35l11.78-24.26a252.53,252.53,0,0,0-28.63-19.75L392.3,82.37a224.37,224.37,0,0,0-23-11.22l4.1-26.64a249.46,249.46,0,0,0-33.12-10.29l-11.6,24.29a228.08,228.08,0,0,0-25.41-3.83l-3.92-26.63c-5.73-.39-11.51-.6-17.34-.6s-11.6.21-17.33.6l-3.93,26.63a228.08,228.08,0,0,0-25.41,3.83l-11.6-24.29a250.38,250.38,0,0,0-33.12,10.29l4.1,26.64a223.21,223.21,0,0,0-23,11.22L153.48,62.59a252.12,252.12,0,0,0-28.63,19.75l11.78,24.26A228,228,0,0,0,118.14,124L94.9,110.43a254.28,254.28,0,0,0-21.6,27.42l18.41,19.71a223.65,223.65,0,0,0-12.38,21.82l-26.2-6.07A249.51,249.51,0,0,0,40.56,206L64,219.46a222,222,0,0,0-5.27,24.18l-26.81,1.91a253.94,253.94,0,0,0-2.33,34.32c0,.28,0,.56,0,.85l26.33,5.92a225.79,225.79,0,0,0,2,24.28l-25.07,9.74A249.93,249.93,0,0,0,41,355.14L67.91,353a228.75,228.75,0,0,0,9,22.28L55.81,392a252,252,0,0,0,18,30.68L99,412.74a227,227,0,0,0,14.89,18.4L98.62,453.32A254.33,254.33,0,0,0,125,477.49l21-16.88a229.29,229.29,0,0,0,19.42,13.12l-8,25.7a250.47,250.47,0,0,0,32.33,15.45l15.12-22.33c2,.74,4.09,1.44,6.16,2.12Z" transform="translate(-29.58 -27.45)"/><text class="cls-2" transform="translate(128.42 327.12)"><tspan class="cls-3">A</tspan><tspan x="231.76" y="0">utoVIX</tspan></text><text class="cls-4" transform="translate(237.42 488.09)">запчасти и сервис<tspan class="cls-5" x="676.06" y="0"> </tspan><tspan class="cls-6" x="719.02" y="0">V</tspan><tspan class="cls-7" x="816.1" y="0">O</tspan><tspan class="cls-6" x="936.41" y="0">LV</tspan><tspan class="cls-7" x="1125.81" y="0">O</tspan></text><rect class="cls-1" x="1155.42" y="46.55" width="67" height="44"/></svg>