<?xml version="1.0" encoding="utf-8"?>
<!-- Generator: Adobe Illustrator 25.2.3, SVG Export Plug-In . SVG Version: 6.00 Build 0)  -->
<svg version="1.1" id="Layer_1" xmlns="http://www.w3.org/2000/svg" xmlns:xlink="http://www.w3.org/1999/xlink" x="0px" y="0px"
	 viewBox="0 0 1484.1 544.6" style="enable-background:new 0 0 1484.1 544.6;" xml:space="preserve">
<style type="text/css">
	.st0{fill:#F39200;}
	.st1{enable-background:new    ;}
	.st2{fill:#020000;}
</style>
<path class="st0" d="M181.4,403.8c-83.8-39.2-120-139-80.7-222.8s139-120,222.8-80.7c12.6,5.9,24.5,13.4,35.3,22.2h91l11.4-12.1
	c-6.6-9.6-13.8-18.8-21.6-27.4l-23.2,13.6c-5.8-6.1-12-11.9-18.5-17.4l11.8-24.3c-9.1-7.2-18.6-13.8-28.6-19.8l-18.2,19.7
	c-7.4-4.2-15.1-7.9-23-11.2l4.1-26.6C333,12.9,322,9.4,310.7,6.8l-11.6,24.3c-8.4-1.8-16.9-3-25.4-3.8l-3.9-26.6
	C264,0.2,258.3,0,252.4,0c-5.8,0-11.6,0.2-17.3,0.6l-3.9,26.6c-8.5,0.8-17,2.1-25.4,3.8L194.2,6.8c-11.3,2.7-22.3,6.1-33.1,10.3
	l4.1,26.6c-7.9,3.3-15.6,7-23,11.2l-18.2-19.8c-10,5.9-19.6,12.5-28.6,19.7l11.8,24.3c-6.5,5.5-12.7,11.3-18.5,17.4L65.3,83
	c-7.8,8.6-15,17.8-21.6,27.4l18.4,19.7c-4.5,7-8.7,14.3-12.4,21.8l-26.2-6.1c-5,10.6-9.2,21.5-12.6,32.7L34.4,192
	c-2.2,8-4,16-5.3,24.2l-26.8,1.9C0.8,229.5,0,240.9,0,252.4c0,0.3,0,0.6,0,0.9l26.3,5.9c0.2,8.1,0.9,16.2,2,24.3l-25.1,9.7
	c1.9,11.7,4.6,23.2,8.2,34.5l26.9-2.1c2.6,7.6,5.6,15,9,22.3l-21.1,16.7c5.3,10.6,11.3,20.9,18,30.7l25.2-9.9
	c4.6,6.4,9.6,12.5,14.9,18.4L69,425.9c8.2,8.7,17,16.7,26.4,24.2l21-16.9c6.2,4.7,12.7,9.1,19.4,13.1l-8,25.7
	c10.4,5.9,21.2,11.1,32.3,15.5l15.1-22.3c2,0.7,4.1,1.4,6.2,2.1L181.4,403.8z"/>
<g class="st1">
	<path d="M345.2,327.1h-47.4l-18.9-49.1h-86.3l-17.8,49.1h-46.3l84.1-216h46.1L345.2,327.1z M264.9,241.7l-29.8-80.2l-29.2,80.2
		H264.9z"/>
</g>
<g class="st1">
	<path d="M484.8,327.1v-23.4c-5.7,8.3-13.2,14.9-22.5,19.7c-9.3,4.8-19.1,7.2-29.4,7.2c-10.5,0-19.9-2.3-28.3-6.9
		c-8.3-4.6-14.4-11.1-18.1-19.4c-3.7-8.3-5.6-19.9-5.6-34.6v-99h41.4v71.9c0,22,0.8,35.5,2.3,40.4c1.5,5,4.3,8.9,8.3,11.8
		c4,2.9,9.1,4.3,15.3,4.3c7.1,0,13.4-1.9,19-5.8c5.6-3.9,9.4-8.7,11.5-14.4c2.1-5.7,3.1-19.8,3.1-42.2v-66h41.4v156.5H484.8z"/>
	<path d="M637.9,170.6v33h-28.3v63.1c0,12.8,0.3,20.2,0.8,22.3c0.5,2.1,1.8,3.9,3.7,5.2c1.9,1.4,4.2,2.1,7,2.1c3.8,0,9.4-1.3,16.6-4
		l3.5,32.1c-9.6,4.1-20.5,6.2-32.7,6.2c-7.5,0-14.2-1.3-20.2-3.8c-6-2.5-10.4-5.7-13.2-9.7s-4.7-9.4-5.8-16.1
		c-0.9-4.8-1.3-14.5-1.3-29.2v-68.2h-19v-33h19v-31.1l41.5-24.2v55.3H637.9z"/>
	<path d="M657.1,246.7c0-13.8,3.4-27.1,10.2-39.9c6.8-12.9,16.4-22.7,28.8-29.5c12.4-6.8,26.3-10.2,41.6-10.2
		c23.7,0,43.1,7.7,58.2,23.1c15.1,15.4,22.7,34.8,22.7,58.3c0,23.7-7.6,43.3-22.9,58.9c-15.3,15.6-34.5,23.4-57.7,23.4
		c-14.3,0-28-3.2-41-9.7c-13-6.5-22.9-16-29.7-28.5C660.5,279.9,657.1,264.6,657.1,246.7z M699.5,248.9c0,15.5,3.7,27.4,11.1,35.7
		c7.4,8.3,16.5,12.4,27.3,12.4c10.8,0,19.9-4.1,27.2-12.4c7.3-8.3,11-20.2,11-36c0-15.3-3.7-27.1-11-35.4
		c-7.3-8.3-16.4-12.4-27.2-12.4c-10.8,0-19.9,4.1-27.3,12.4C703.2,221.5,699.5,233.4,699.5,248.9z"/>
	<path d="M906.4,327.1l-77.2-216h47.3L931.1,271L984,111.1h46.3l-77.4,216H906.4z"/>
	<path d="M1051.2,327.1v-216h43.6v216H1051.2z"/>
	<path d="M1114.4,327.1l73.8-112.7l-66.9-103.3h51l43.3,69.4l42.4-69.4h50.5L1241.4,216l73.8,111.1h-52.6l-47.9-74.7l-48,74.7
		H1114.4z"/>
</g>
<g class="st1">
	<path class="st2" d="M269.7,458.9c2.6,0.8,4.5,2,5.7,3.6s1.8,4.1,1.8,7.4c0,3.7-0.3,6.4-0.8,8.1c-0.5,1.7-1.6,3.4-3.2,5.1
		c-1.6,1.7-3.7,3-6.5,3.8c-2.7,0.8-5.8,1.1-9.1,1.1c-6.6,0-11.3-1.3-13.9-3.9c-2.7-2.6-4-7.3-4-14.2v-4h15.7v7.7
		c0,2.7,1,4.1,2.9,4.1c1,0,1.8-0.4,2.3-1.2s0.8-2.8,0.8-6.1v-3.4c0-1.6-0.5-2.7-1.6-3.3s-3.3-0.9-6.6-0.9v-7.8h1.3
		c2.3,0,3.8-0.1,4.6-0.2c0.7-0.1,1.3-0.5,1.7-1.2s0.7-1.8,0.7-3.4v-1.1c0-2.3-0.3-3.8-0.8-4.4c-0.5-0.6-1.2-0.9-2.2-0.9
		c-2,0-3,1.2-3,3.6v4.4h-15.7v-2.4c0-5.7,1.4-9.8,4.2-12.2c2.8-2.4,7.5-3.6,14-3.6c6.3,0,11,1.2,14,3.5s4.6,5.9,4.6,10.8
		c0,3.3-0.5,5.7-1.5,7.3S272.4,458.1,269.7,458.9z"/>
	<path class="st2" d="M297.6,454.7H282v-3.7c0-4.2,0.5-7.5,1.5-9.7c1-2.3,2.9-4.3,5.8-6c2.9-1.8,6.7-2.6,11.4-2.6
		c5.6,0,9.8,1,12.7,3c2.8,2,4.6,4.4,5.1,7.3s0.9,8.8,0.9,17.8v27.3h-16.1v-4.8c-1,1.9-2.3,3.4-3.9,4.4c-1.6,1-3.5,1.5-5.7,1.5
		c-2.9,0-5.6-0.8-8-2.4s-3.6-5.2-3.6-10.7v-4.5c0-4.1,0.6-6.8,1.9-8.3c1.3-1.5,4.5-3.2,9.6-5.2c5.4-2.1,8.4-3.6,8.7-4.3
		c0.4-0.7,0.6-2.2,0.6-4.5c0-2.8-0.2-4.7-0.6-5.6c-0.4-0.9-1.1-1.3-2.1-1.3c-1.1,0-1.8,0.4-2.1,1.1c-0.3,0.7-0.4,2.6-0.4,5.6V454.7z
		 M302.8,462.2c-2.7,1.9-4.2,3.6-4.6,4.9c-0.4,1.3-0.6,3.2-0.6,5.7c0,2.8,0.2,4.6,0.6,5.5s1.1,1.2,2.2,1.2c1,0,1.7-0.3,2-1
		c0.3-0.6,0.5-2.3,0.5-5.1V462.2z"/>
	<path class="st2" d="M325.1,488.1v-54.4h38.8v54.4h-16.5v-43h-5.9v43H325.1z"/>
	<path class="st2" d="M407.6,488.1h-16.5v-15c-2.1,2-5.4,3-9.9,3c-3.1,0-5.7-0.6-7.6-1.7c-1.9-1.1-3.1-2.7-3.6-4.9
		c-0.4-2.1-0.7-5.6-0.7-10.3v-25.5h16.6V460c0,2.9,0.1,4.9,0.4,5.9c0.3,1,1,1.5,2.2,1.5c1,0,1.7-0.5,2.1-1.4
		c0.4-0.9,0.6-2.7,0.6-5.5v-26.9h16.5V488.1z"/>
	<path class="st2" d="M427.9,454.7h-15.5v-3.7c0-4.2,0.5-7.5,1.5-9.7c1-2.3,2.9-4.3,5.8-6c2.9-1.8,6.7-2.6,11.4-2.6
		c5.6,0,9.8,1,12.7,3c2.8,2,4.6,4.4,5.1,7.3s0.9,8.8,0.9,17.8v27.3h-16.1v-4.8c-1,1.9-2.3,3.4-3.9,4.4c-1.6,1-3.5,1.5-5.7,1.5
		c-2.9,0-5.6-0.8-8-2.4s-3.6-5.2-3.6-10.7v-4.5c0-4.1,0.6-6.8,1.9-8.3c1.3-1.5,4.5-3.2,9.6-5.2c5.4-2.1,8.4-3.6,8.7-4.3
		c0.4-0.7,0.6-2.2,0.6-4.5c0-2.8-0.2-4.7-0.6-5.6c-0.4-0.9-1.1-1.3-2.1-1.3c-1.1,0-1.8,0.4-2.1,1.1c-0.3,0.7-0.4,2.6-0.4,5.6V454.7z
		 M433.1,462.2c-2.7,1.9-4.2,3.6-4.6,4.9c-0.4,1.3-0.6,3.2-0.6,5.7c0,2.8,0.2,4.6,0.6,5.5s1.1,1.2,2.2,1.2c1,0,1.7-0.3,2-1
		c0.3-0.6,0.5-2.3,0.5-5.1V462.2z"/>
	<path class="st2" d="M492,454.2h-15.6v-6.3c0-2.2-0.2-3.7-0.5-4.5c-0.4-0.8-1-1.2-2-1.2c-1,0-1.6,0.3-1.9,1s-0.5,2.2-0.5,4.6v25.7
		c0,1.9,0.2,3.4,0.7,4.4s1.2,1.5,2.2,1.5c1.1,0,1.9-0.5,2.3-1.5c0.4-1,0.6-2.9,0.6-5.7v-6.5H492c0,4.3-0.2,7.6-0.5,9.8
		s-1.2,4.4-2.7,6.7c-1.5,2.3-3.6,4-6,5.2c-2.5,1.2-5.6,1.7-9.2,1.7c-4.7,0-8.4-0.8-11.1-2.4c-2.7-1.6-4.7-3.8-5.8-6.7
		c-1.1-2.9-1.7-7-1.7-12.3v-15.5c0-4.6,0.5-8.1,1.4-10.5c0.9-2.4,2.9-4.5,5.9-6.3s6.7-2.8,11.1-2.8c4.3,0,8,0.9,11.1,2.7
		c3.1,1.8,5.1,4.1,6.1,6.9C491.5,445.1,492,449.1,492,454.2z"/>
	<path class="st2" d="M529.8,433.7v11.4h-9.5v43h-16.5v-43h-9.5v-11.4H529.8z"/>
	<path class="st2" d="M574.2,488.1h-14.4v-29.4l-11.5,29.4h-15.1v-54.4h14.4v29.2l11.3-29.2h15.3V488.1z"/>
	<path class="st2" d="M635.9,488.1h-14.4v-29.4L610,488.1h-15.1v-54.4h14.4v29.2l11.3-29.2h15.3V488.1z"/>
	<path class="st2" d="M693.3,454.2h-15.6v-6.3c0-2.2-0.2-3.7-0.5-4.5s-1-1.2-2-1.2s-1.6,0.3-1.9,1s-0.5,2.2-0.5,4.6v25.7
		c0,1.9,0.2,3.4,0.7,4.4s1.2,1.5,2.2,1.5c1.1,0,1.9-0.5,2.3-1.5s0.6-2.9,0.6-5.7v-6.5h14.8c0,4.3-0.2,7.6-0.5,9.8s-1.2,4.4-2.7,6.7
		s-3.6,4-6,5.2s-5.6,1.7-9.2,1.7c-4.7,0-8.4-0.8-11.1-2.4s-4.7-3.8-5.8-6.7s-1.7-7-1.7-12.3v-15.5c0-4.6,0.5-8.1,1.4-10.5
		s2.9-4.5,5.9-6.3s6.7-2.8,11.1-2.8c4.3,0,8,0.9,11.1,2.7s5.1,4.1,6.1,6.9S693.3,449.1,693.3,454.2z"/>
	<path class="st2" d="M735.7,461.8h-21.5v11.8c0,2.5,0.2,4,0.5,4.8s1,1.1,2.1,1.1c1.3,0,2.1-0.5,2.5-1.4s0.6-2.8,0.6-5.5v-7.2h15.7
		v4c0,3.4-0.2,5.9-0.6,7.8s-1.4,3.7-3,5.8s-3.5,3.6-5.9,4.6s-5.4,1.5-9,1.5c-3.5,0-6.6-0.5-9.3-1.5s-4.8-2.4-6.3-4.2
		s-2.5-3.7-3.1-5.8s-0.9-5.2-0.9-9.2v-15.9c0-4.8,0.6-8.5,1.9-11.3s3.4-4.9,6.3-6.3s6.3-2.2,10.1-2.2c4.6,0,8.5,0.9,11.5,2.6
		s5.1,4.1,6.4,7s1.8,7,1.8,12.3V461.8z M719.1,453v-4c0-2.8-0.2-4.6-0.5-5.5s-0.9-1.2-1.8-1.2c-1.1,0-1.9,0.3-2.1,1
		s-0.4,2.6-0.4,5.6v4H719.1z"/>
	<path class="st2" d="M758,433.7l-0.3,4.8c1.5-1.9,3.1-3.4,4.9-4.4c1.8-1,3.7-1.4,5.8-1.4c2.6,0,4.8,0.7,6.7,2.1s3,3,3.5,4.8
		s0.7,4.9,0.7,9.2v22.9c0,4.9-0.3,8.5-0.9,10.6s-1.8,3.8-3.6,5s-4,1.9-6.6,1.9c-2.1,0-4-0.5-5.7-1.4c-1.8-1-3.3-2.4-4.8-4.3v12.5
		h-16.6v-62.2H758z M762.7,449.5c0-3.4-0.1-5.4-0.4-6.1s-0.9-1.1-2.1-1.1c-1.1,0-1.8,0.4-2.1,1.2s-0.5,2.8-0.5,5.9v22.6
		c0,3.3,0.2,5.3,0.5,6.2s1,1.2,2.1,1.2c1.1,0,1.7-0.4,2-1.1s0.4-2.6,0.4-5.5V449.5z"/>
	<path class="st2" d="M823.1,473.7c0,5.6-1.2,9.3-3.6,11.3s-7.7,3-15.8,3h-19v-54.4h19.6c6.7,0,11.3,1.1,13.8,3.3s3.8,6,3.8,11.4
		c0,6.2-3.2,9.7-9.6,10.5c3.3,0.5,6,1.9,7.9,3.9s2.9,4.7,2.9,7.8V473.7z M801.2,453.9c2.5,0,4.1-0.3,4.6-0.9s0.8-1.9,0.8-3.7
		c0-1.6-0.3-2.6-0.9-3.2s-2.1-0.9-4.5-0.9V453.9z M806.6,471.2v-1.8c0-2.4-0.3-3.8-0.9-4.4s-2.1-0.9-4.5-0.9v12.6
		c2.2,0,3.7-0.3,4.4-1S806.6,473.5,806.6,471.2z"/>
	<path class="st2" d="M869,488.1h-14.4v-29.4L843,488.1h-15.1v-54.4h14.4v29.2l11.3-29.2H869V488.1z"/>
	<path class="st2" d="M911.5,454.2h-15.6v-6.3c0-2.2-0.2-3.7-0.5-4.5s-1-1.2-2-1.2s-1.6,0.3-1.9,1s-0.5,2.2-0.5,4.6v25.7
		c0,1.9,0.2,3.4,0.7,4.4s1.2,1.5,2.2,1.5c1.1,0,1.9-0.5,2.3-1.5s0.6-2.9,0.6-5.7v-6.5h14.8c0,4.3-0.2,7.6-0.5,9.8s-1.2,4.4-2.7,6.7
		s-3.6,4-6,5.2s-5.6,1.7-9.2,1.7c-4.7,0-8.4-0.8-11.1-2.4s-4.7-3.8-5.8-6.7s-1.7-7-1.7-12.3v-15.5c0-4.6,0.5-8.1,1.4-10.5
		s2.9-4.5,5.9-6.3s6.7-2.8,11.1-2.8c4.3,0,8,0.9,11.1,2.7s5.1,4.1,6.1,6.9S911.5,449.1,911.5,454.2z"/>
</g>
<g class="st1">
	<path class="st2" d="M954.7,397.2v-6.4c2.6,0,4.1,0.1,4.7,0.1c6.1,0.7,14.1,1,24,1c1.5,0,4.5-0.1,9.1-0.4c3.3-0.2,5.7-0.5,7.3-0.7
		h5.4c0.1,3.6,0.1,5.6,0.1,6.1c-4.9,0.6-7.8,1.1-8.7,1.3c-2.2,0.6-3.8,1.4-4.8,2.4c-0.5,0.5-0.8,1.2-0.8,1.9c0,0.5,0,1.1,0.1,1.6
		l2.4,6.5c1.7,5,4.6,11.9,8.6,20.6l8.5,19.1c1.6,3.7,3.1,7.2,4.5,10.5l4.3-10.5l8.8-24.5l2.1-5.2c0.2-0.7,0.6-1.8,1-3.1
		c1.3-4.4,2.4-7.7,3.2-10c0.9-2.3,1.3-4.1,1.3-5.6c0-0.9-0.5-1.8-1.4-2.4c-1.4-1.1-3.8-1.8-7.1-2.1c-0.7-0.2-1.6-0.4-2.7-0.5
		c-1.1-0.1-2.2-0.3-3-0.5c-0.3-1-0.4-1.7-0.4-2.2c0-0.6,0.1-1.8,0.3-3.4c0.9,0,3.4,0.2,7.6,0.6c4.2,0.4,8.3,0.6,12.3,0.6
		c4.1,0,7.6-0.2,10.5-0.6c2.9-0.4,5.3-0.6,7.1-0.6v2.4c0,0.6,0,1.5-0.1,2.7c-6.4,2.3-10.1,3.9-11.2,4.8c-0.7,0.5-1.4,1.3-2,2.4
		c-1.9,3.3-4.8,10-8.6,20.1l-9.5,24.6c-0.9,2.4-1.9,4.9-2.9,7.5c-1.1,2.6-2.2,5.6-3.4,8.7c-0.2,0.7-1.4,3.7-3.5,8.9l-0.7,1.3
		c-2.2,7-3.8,11.8-4.9,14.5c-2,0.1-3.2,0.1-3.7,0.1c-0.9,0-2.2,0-3.9-0.1c-0.5-1.5-1.1-3-1.6-4.5c-0.5-1.5-2.6-6.9-6.3-16.1
		l-14-31.5l-8.4-20.3c-4.3-9.2-6.7-14.1-7.1-14.8c-0.8-1.2-1.8-2.1-2.8-2.7c-1-0.5-3.2-1-6.5-1.3L954.7,397.2z"/>
</g>
<g class="st1">
	<path class="st2" d="M1060.2,438.4c0-6.1,1.2-12.3,3.6-18.5c1.7-4.5,4.2-8.5,7.3-12.2s7-7,11.7-9.9s9.5-5,14.4-6.2
		s10.4-1.9,16.4-1.9c10.3,0,19.2,1.9,26.8,5.8c7.6,3.9,13.5,9.1,17.9,15.7c5.6,8.6,8.5,17.5,8.5,26.9c0,14-4.8,26-14.3,36
		c-9.5,10-22.8,15-39.7,15c-4.2,0-8.1-0.3-11.8-0.8c-2.8-0.4-5.2-0.9-7.3-1.6c-3.8-1.2-5.9-2-6.3-2.2c-5.4-3.1-9.7-6.2-13-9.4
		c-3.3-3.2-6-6.9-8.3-10.9c-1.2-2.3-2.6-6.4-4.2-12.3C1060.7,447.9,1060.2,443.5,1060.2,438.4z M1110.7,396.9c-4.3,0-8.1,1-11.4,3
		s-5.8,4.2-7.5,6.6c-2.8,4.1-4.8,8.6-6,13.5c-1.2,4.9-1.8,10.8-1.8,17.8c0,4.3,0.2,7.3,0.5,9.1c0.1,0.6,0.2,1.6,0.4,3
		c0.4,3.7,1,6.3,1.6,8c2.1,6.3,3.6,10.2,4.5,11.7c1.5,2.5,3.7,5,6.6,7.5c1.5,1.3,3.6,2.5,6.4,3.5c2.8,1.1,5.6,1.6,8.5,1.6
		c5.3,0,10.3-1.2,14.9-3.7c4.6-2.5,8.2-6.7,11-12.7c2.8-6,4.2-13.8,4.2-23.4c0-4-0.3-9.3-0.8-16.1l-0.4-1.4c-0.1-0.4-0.4-1.4-0.7-3
		c-1.8-8.1-5.3-14.3-10.5-18.6C1125,399.1,1118.5,396.9,1110.7,396.9z"/>
</g>
<g class="st1">
	<path class="st2" d="M1177.2,481.5c1.5-0.4,3.7-0.9,6.5-1.3c2.8-0.4,4.4-0.6,4.9-0.6c1.9,0,3.2-0.4,3.9-0.9c0.3-1.2,0.4-2.2,0.4-3
		l-0.1-9.5l0.4-9.7v-6.2l0.1-7.3l-0.1-7.7l0.3-16.6l0.1-7.5v-1c-0.3-5.2-0.7-8.1-1-8.6c-0.3-0.5-1.7-1.2-4.3-2
		c-0.2-0.1-1.2-0.5-2.8-1.1c-1.2-0.5-2.4-0.8-3.3-1c-1.7-0.4-2.9-1-3.6-1.6c-0.1-1.3-0.1-2.3-0.1-3c0-0.4,0-1,0.1-1.8
		c0.4-0.2,0.9-0.4,1.4-0.4c1.2,0,5.5,0.2,12.9,0.6l10.6-0.1l7.9,0.1c3.4,0,7.8-0.2,13.1-0.6c1.6-0.1,2.5-0.2,2.7-0.2
		c0.7,0,1.3,0.2,1.6,0.6c0.4,0.5,0.6,1.5,0.6,2.9c0,1.1-0.3,2-0.8,2.6c-0.3,0.3-1.4,0.6-3.3,0.9l-9.2,2.2c-0.2,0.1-0.7,0.3-1.3,0.6
		c-0.2,0.3-0.3,0.6-0.4,0.9l-0.1,2.1l-0.2,4.7v1.3v0.8c0,0.2-0.1,1.6-0.2,4.1c0,0.6-0.1,1.3-0.1,1.9c0,0.8,0,2.1,0.1,4
		c0.1,3,0.2,5.6,0.2,7.8c0,2.6-0.1,5.5-0.2,8.8c0,1.2-0.1,2.8-0.1,4.8l-0.3,35.2c0,1.5,0.2,2.5,0.7,2.9l7.1,0.3l4.4-0.1l4.7,0.1
		c8,0,14.2-0.9,18.8-2.7c3.4-1.4,5.6-2.8,6.7-4.1c1.7-1.5,3.1-3.1,4.1-4.8c1.1-1.7,2.3-4.6,3.6-8.6h2.4c1.2,0,2.5,0.1,4,0.3v2.1
		c0,3.6-0.4,9.8-1.3,18.7c-0.3,3.6-0.7,5.7-1,6.5c-1.1,0.2-1.9,0.3-2.2,0.3h-2.7l-3.9,0.1c-0.4,0-3.4-0.2-8.8-0.6
		c-1,0-5.7-0.2-14.2-0.5s-16.7-0.4-24.9-0.4l-15.1,0.4c-5.8,0.1-11.3,0.4-16.4,0.8h-1.1c-0.3,0-0.8,0-1.4-0.1
		c-0.1-0.5-0.1-1-0.1-1.4C1176.7,483.9,1176.9,482.4,1177.2,481.5z"/>
	<path class="st2" d="M1259.9,397.2v-6.4c2.6,0,4.1,0.1,4.7,0.1c6.1,0.7,14.1,1,24,1c1.5,0,4.5-0.1,9.1-0.4c3.3-0.2,5.7-0.5,7.3-0.7
		h5.4c0.1,3.6,0.1,5.6,0.1,6.1c-4.9,0.6-7.8,1.1-8.7,1.3c-2.2,0.6-3.8,1.4-4.8,2.4c-0.5,0.5-0.8,1.2-0.8,1.9c0,0.5,0,1.1,0.1,1.6
		l2.4,6.5c1.7,5,4.6,11.9,8.6,20.6l8.5,19.1c1.6,3.7,3.1,7.2,4.5,10.5l4.3-10.5l8.8-24.5l2.1-5.2c0.2-0.7,0.6-1.8,1-3.1
		c1.3-4.4,2.4-7.7,3.2-10c0.9-2.3,1.3-4.1,1.3-5.6c0-0.9-0.5-1.8-1.4-2.4c-1.4-1.1-3.8-1.8-7.1-2.1c-0.7-0.2-1.6-0.4-2.7-0.5
		c-1.1-0.1-2.2-0.3-3-0.5c-0.3-1-0.4-1.7-0.4-2.2c0-0.6,0.1-1.8,0.3-3.4c0.9,0,3.4,0.2,7.6,0.6c4.2,0.4,8.3,0.6,12.3,0.6
		c4.1,0,7.6-0.2,10.5-0.6c2.9-0.4,5.3-0.6,7.1-0.6v2.4c0,0.6,0,1.5-0.1,2.7c-6.4,2.3-10.1,3.9-11.2,4.8c-0.7,0.5-1.4,1.3-2,2.4
		c-1.9,3.3-4.8,10-8.6,20.1l-9.5,24.6c-0.9,2.4-1.9,4.9-2.9,7.5c-1.1,2.6-2.2,5.6-3.4,8.7c-0.2,0.7-1.4,3.7-3.5,8.9l-0.7,1.3
		c-2.2,7-3.8,11.8-4.9,14.5c-2,0.1-3.2,0.1-3.7,0.1c-0.9,0-2.2,0-3.9-0.1c-0.5-1.5-1.1-3-1.6-4.5c-0.5-1.5-2.6-6.9-6.3-16.1
		l-14-31.5l-8.4-20.3c-4.3-9.2-6.7-14.1-7.1-14.8c-0.8-1.2-1.8-2.1-2.8-2.7c-1-0.5-3.2-1-6.5-1.3L1259.9,397.2z"/>
</g>
<g class="st1">
	<path class="st2" d="M1369.9,438.4c0-6.1,1.2-12.3,3.6-18.5c1.7-4.5,4.2-8.5,7.3-12.2c3.1-3.7,7-7,11.7-9.9c4.7-2.9,9.5-5,14.4-6.2
		c4.9-1.3,10.4-1.9,16.4-1.9c10.3,0,19.2,1.9,26.8,5.8c7.6,3.9,13.5,9.1,17.9,15.7c5.6,8.6,8.5,17.5,8.5,26.9c0,14-4.8,26-14.3,36
		c-9.5,10-22.8,15-39.7,15c-4.2,0-8.1-0.3-11.8-0.8c-2.8-0.4-5.2-0.9-7.3-1.6c-3.8-1.2-5.9-2-6.3-2.2c-5.4-3.1-9.7-6.2-13-9.4
		c-3.3-3.2-6-6.9-8.3-10.9c-1.2-2.3-2.6-6.4-4.2-12.3C1370.4,447.9,1369.9,443.5,1369.9,438.4z M1420.4,396.9c-4.3,0-8.1,1-11.4,3
		c-3.3,2-5.8,4.2-7.5,6.6c-2.8,4.1-4.8,8.6-6,13.5c-1.2,4.9-1.8,10.8-1.8,17.8c0,4.3,0.2,7.3,0.5,9.1c0.1,0.6,0.2,1.6,0.4,3
		c0.4,3.7,1,6.3,1.6,8c2.1,6.3,3.6,10.2,4.5,11.7c1.5,2.5,3.7,5,6.6,7.5c1.5,1.3,3.6,2.5,6.4,3.5c2.8,1.1,5.6,1.6,8.5,1.6
		c5.3,0,10.3-1.2,14.9-3.7c4.6-2.5,8.2-6.7,11-12.7c2.8-6,4.2-13.8,4.2-23.4c0-4-0.3-9.3-0.8-16.1l-0.4-1.4c-0.1-0.4-0.4-1.4-0.7-3
		c-1.8-8.1-5.3-14.3-10.5-18.6C1434.7,399.1,1428.2,396.9,1420.4,396.9z"/>
</g>
<rect x="1155.4" y="46.5" class="st0" width="67" height="44"/>
</svg>
