<svg width="164" height="269" viewBox="0 0 164 269" fill="none" xmlns="http://www.w3.org/2000/svg">
<path fill-rule="evenodd" clip-rule="evenodd" d="M80.0358 1.98934C79.8604 2.88465 79.1762 7.19635 78.516 11.5717C73.5649 44.3628 58.7946 75.2527 35.7869 100.931C7.97141 131.976 0.0570972 148.679 0.000322046 176.46C-0.0528136 201.929 6.46324 218.275 24.0883 236.891C39.4234 253.087 57.1001 263.087 78.5065 267.677C87.485 269.602 106.031 269.395 115.971 267.26C133.261 263.544 150.879 255.218 160.931 246.012C164.128 243.085 164.78 240.96 163.123 238.866C161.283 236.54 159.378 236.757 152.708 240.056C140.378 246.153 133.84 250.166 133.605 251.782C133.206 254.531 130.475 256.241 125.09 257.115C117.279 258.383 101.292 256.931 98.1813 254.67C97.0829 253.873 97.2357 253.784 99.359 253.986C108.804 254.885 123.532 255.409 126.125 254.938C127.837 254.627 129.73 253.883 130.333 253.284C133.457 250.18 127.789 246.997 112.717 243.392C102.199 240.877 94.9232 238.752 92.6093 237.522C91.7679 237.075 88.7129 234.528 85.8196 231.863C79.5066 226.047 74.0606 222.365 66.9266 219.091C60.3923 216.091 56.6117 215.192 50.4334 215.169C38.1307 215.124 29.9332 209.596 24.2273 197.497C14.0784 175.98 14.8347 153.999 26.376 135.062C28.2562 131.977 35.1616 121.968 41.722 112.819C59.4606 88.0814 63.9269 81.376 67.8495 73.5922C76.6868 56.0576 80.0969 40.6774 80.8394 15.0069C81.2193 1.85555 80.942 -2.64128 80.0358 1.98934ZM59.021 112.457C58.7757 113.054 58.47 114.19 58.3419 114.981C58.2138 115.771 57.4575 116.523 56.6619 116.65C53.5007 117.155 53.0647 117.773 55.5781 118.186C57.6023 118.519 58.1759 118.976 58.3695 120.413C58.6891 122.786 59.9454 124.102 59.9454 122.063C59.9454 119.225 60.7519 118.243 63.0804 118.243C65.6797 118.243 64.9569 117.053 62.1291 116.677C60.6828 116.485 60.2227 115.915 59.8879 113.904C59.6237 112.316 59.3005 111.777 59.021 112.457ZM52.553 142.47C52.307 142.868 51.8702 144.922 51.5834 147.036C51.0062 151.287 49.8023 152.233 44.9764 152.233C41.3341 152.233 41.9171 153.432 45.8448 154.017C50.9029 154.771 51.0812 154.931 51.6147 159.174C51.8862 161.333 52.3565 163.253 52.66 163.438C52.9628 163.624 53.5895 161.861 54.0532 159.52C54.9608 154.936 55.1435 154.773 60.2089 154.018C64.435 153.389 63.9961 152.526 59.2168 152.07C57.1976 151.877 55.3459 151.52 55.1006 151.277C54.856 151.033 54.2832 148.79 53.8283 146.291C53.3733 143.791 52.7997 142.072 52.553 142.47ZM120.36 225.902C118.558 226.606 114.137 228.974 110.534 231.164C101.102 236.897 100.707 237.154 100.707 237.584C100.707 237.798 102.918 238.539 105.62 239.229L110.534 240.486L119.996 234.307C125.2 230.908 129.558 227.842 129.678 227.493C130 226.564 126.83 224.547 125.111 224.587C124.299 224.606 122.161 225.197 120.36 225.902ZM134.763 227.412C132.294 228.74 115.359 239.478 114.558 240.223C113.946 240.792 116.025 241.687 120.024 242.576L123.938 243.446L134.916 236.44C145.463 229.707 145.852 229.373 144.87 227.897C143.427 225.727 138.348 225.483 134.763 227.412ZM145.399 232.94C143.438 233.973 138.588 236.928 134.621 239.507L127.41 244.196L130.467 245.921L133.526 247.647L143.502 241.617C154.083 235.223 155.574 233.524 152.022 231.916C149.51 230.779 149.499 230.78 145.399 232.94Z" fill="#007CFB"/>
</svg>
