<?xml version="1.0" encoding="utf-8"?>
<!-- Generator: Adobe Illustrator 25.2.3, SVG Export Plug-In . SVG Version: 6.00 Build 0)  -->
<svg version="1.1" id="Слой_1" xmlns="http://www.w3.org/2000/svg" xmlns:xlink="http://www.w3.org/1999/xlink" x="0px" y="0px"
	 viewBox="0 0 120 140" style="enable-background:new 0 0 120 140;" xml:space="preserve">
<style type="text/css">
	.st0{fill:#007CFB;}
	.st1{fill:#FFFFFF;filter:url(#Adobe_OpacityMaskFilter);}
	.st2{mask:url(#mask0_801_26836_2_);}
	.st3{fill-rule:evenodd;clip-rule:evenodd;fill:#FFFFFF;}
</style>
<g>
	<path class="st0" d="M10,10c0-5.5,4.5-10,10-10h60c16.6,0,30,13.4,30,30v60c0,5.5-4.5,10-10,10H40c-16.6,0-30-13.4-30-30V10z"/>
</g>
<defs>
	<filter id="Adobe_OpacityMaskFilter" filterUnits="userSpaceOnUse" x="27.3" y="19.6" width="63.4" height="63.4">
		<feColorMatrix  type="matrix" values="1 0 0 0 0  0 1 0 0 0  0 0 1 0 0  0 0 0 1 0"/>
	</filter>
</defs>
<mask maskUnits="userSpaceOnUse" x="27.3" y="19.6" width="63.4" height="63.4" id="mask0_801_26836_2_">
	<rect x="27.3" y="19.6" class="st1" width="63.4" height="63.4"/>
</mask>
<g class="st2">
	<path class="st3" d="M76,19.9c-0.3,0.2-0.7,0.5-0.8,0.8l-0.3,0.5l0,16.1l0,16.1H69c-5.7,0-5.8,0-5.8-0.3c0-0.1-0.1-0.4-0.3-0.5
		c-0.3-0.3-0.4-0.3-9.8-0.3c-9.3,0-9.5,0-9.8,0.3c-0.1,0.1-0.3,0.4-0.3,0.5c0,0.3-0.1,0.3-7.7,0.3c-7.6,0-7.7,0-7.9,0.3
		c-0.3,0.3-0.3,0.4-0.2,1.9c0,1.5,0.1,1.7,0.4,2.3c0.7,1.1,1.8,1.8,3.1,1.8l0.7,0v2.1v2.1h1.1h1.1v-2.1v-2.1h4.8h4.8v6.6
		c0,6.4,0,6.6,0.3,6.9c0.3,0.3,0.4,0.3,6.9,0.3h6.6v-1.1v-1.1h-5.8h-5.8v-1.6v-1.6h7.9h7.9v1.6v1.6h-1.1H59v1.1v1.1h1.8
		c1.7,0,1.9,0,2.1-0.3c0.3-0.3,0.3-0.4,0.3-6.9v-6.6H69h5.8v1.1v1.1h-1.1c-1.2,0-1.6,0.1-2.1,0.7c-0.2,0.2-1.7,2.4-3.3,4.9l-3,4.5
		v4.5v4.5H52.7H40l0.5-0.5c1-1.2,1.7-2.9,1.7-4.8c0-2.1-0.7-3.7-2.1-5.2c-1.4-1.5-3.2-2.2-5.3-2.2h-1.1v-1.1v-1.1h-1.1h-1.1v1.4v1.4
		l-0.7,0.4c-1.5,0.8-2.9,2.7-3.3,4.5c-0.3,1-0.3,2.8,0,3.8c0.7,2.5,2.8,4.6,5.3,5.3c0.7,0.2,4.4,0.2,29,0.2c28.1,0,28.3,0,28.6-0.3
		c0.3-0.3,0.3-0.4,0.3-5.5v-5.2l-3-4.5c-1.6-2.5-3.1-4.7-3.3-4.9c-0.6-0.6-1-0.7-2.1-0.7h-1.1V45.5V29.1h-1.1h-1.1v16.4v16.4H78H77
		V41.9c0-15.3,0-19.9,0.2-20.1c0.1-0.1,0.5-0.2,0.9-0.2c0.4,0,0.8,0.1,0.9,0.2c0.1,0.1,0.2,0.9,0.2,2.6V27h1.1h1.1l0-2.9
		c0-2.7,0-2.9-0.3-3.4c-0.2-0.3-0.5-0.7-0.8-0.8c-0.5-0.3-0.7-0.3-2-0.3C76.7,19.6,76.4,19.6,76,19.9z M32.6,23.8v1.1h-1.1h-1.1v1.1
		V27h1.1h1.1V28v1.1h1.1h1.1V28V27h1.1h1.1v-1.1v-1.1h-1.1h-1.1v-1.1v-1.1h-1.1h-1.1V23.8z M50.8,24.1c-0.2,0.2-0.3,0.4-0.3,2.3
		c0,1.1,0.1,2.2,0.1,2.3c0.1,0.1,0.5,0.4,1.1,0.5l0.9,0.3v0.6c0,0.6,0.3,1.1,0.7,1.1c0.1,0,0.2,0,0.2,0.1c0,0-0.7,1.6-1.5,3.5
		c-1.5,3.4-1.7,4-1.4,4.5c0.2,0.3,3.6,1.4,4.2,1.4c0.5,0,0.3,0.2,3.5-3.5c1.4-1.7,2.6-3,2.7-3c0,0,0,0.4,0,0.9l0,0.9l-3.7,5.3
		l-3.7,5.3l0,1.8l0,1.8h1.1h1.1l0-1.4l0-1.4l3.5-5l3.5-5l2.4,0l2.4,0l1.5,5l1.5,5l0,1.9l0,1.9h1.1h1.1V49v-2.3l-1.6-5.3l-1.6-5.3V34
		v-2.1l-2.1-3.6c-1.1-2-2.2-3.8-2.4-4l-0.3-0.4h-6.9C51.3,23.8,51.1,23.8,50.8,24.1z M34.7,25.9V27h-1.1h-1.1v-1.1v-1.1h1.1h1.1
		V25.9z M54.1,26.1c0,0.1-0.1,0.4-0.3,0.8c-0.3,0.6-0.3,0.6-0.7,0.5c-0.4-0.1-0.4-0.1-0.4-0.8v-0.7h0.7C53.9,25.9,54.1,26,54.1,26.1
		z M65.1,28.5c0.8,1.4,1.5,2.6,1.5,2.6s-0.9,0.1-2,0.1h-2L59,30.3c-1.9-0.5-3.6-0.9-3.6-1c-0.1-0.1,0.1-0.7,0.4-1.5
		c0.3-0.8,0.6-1.5,0.7-1.7l0.1-0.3h3.5h3.5L65.1,28.5z M36.9,31.5c-0.3,0.2-0.7,0.5-0.8,0.8c-0.3,0.5-0.3,0.6-0.3,3.9l0,3.4
		l-0.8,0.1c-1.6,0.1-3.2,1.2-4,2.7l-0.4,0.9l0,4l0,4h1.1h1.1l0-3.6c0-3.6,0-3.6,0.4-4.3c0.4-0.8,1.1-1.3,2.1-1.5
		c0.9-0.2,11-0.2,11.9,0c0.9,0.2,1.7,0.7,2.1,1.5c0.3,0.6,0.3,0.7,0.4,3.7l0,3.1h1h1l0-3.5l0-3.5l-0.4-0.9c-0.8-1.6-2.3-2.6-4-2.7
		l-0.8-0.1l0-3.4c0-3.3,0-3.4-0.3-3.9c-0.2-0.3-0.5-0.7-0.8-0.8c-0.5-0.3-0.6-0.3-4.2-0.3S37.4,31.2,36.9,31.5z M57.8,32.3l1.5,0.4
		l-2.3,2.6c-1.3,1.5-2.4,2.7-2.5,2.8c-0.1,0.1-0.3,0.1-0.7,0c-0.3-0.1-0.6-0.2-0.6-0.2c-0.1-0.1,0.4-1.2,1-2.5
		c0.6-1.3,1.2-2.7,1.3-3c0.2-0.4,0.3-0.6,0.5-0.5C56.2,31.9,57,32.1,57.8,32.3z M44.1,33.5c0.1,0.1,0.2,1,0.2,3.2v3h-3.2h-3.2v-3
		c0-2.2,0-3.1,0.2-3.2C38.3,33.3,43.8,33.3,44.1,33.5z M67.5,34.4v1.1h-2.1h-2.1v-1.1v-1.1h2.1h2.1V34.4z M85.4,35.4v1.1h-1.1h-1.1
		v1.1v1.1h1.1h1.1v1.1v1.1h1.1h1.1v-1.1v-1.1h1.1h1.1v-1.1v-1.1h-1.1h-1.1v-1.1v-1.1h-1.1h-1.1V35.4z M87.5,37.5v1.1h-1.1h-1.1v-1.1
		v-1.1h1.1h1.1V37.5z M35.8,45.2c-0.3,0.2-0.7,0.5-0.8,0.8c-0.3,0.5-0.3,0.7-0.3,2.9l0,2.3h1.1h1.1v-2c0-1.3,0-2,0.2-2.1
		c0.2-0.2,7.9-0.2,8.1,0c0.1,0.1,0.2,0.8,0.2,2.1v2h1.1h1.1l0-2.3c0-2.2,0-2.4-0.3-2.9c-0.2-0.3-0.5-0.7-0.8-0.8
		c-0.5-0.3-0.6-0.3-5.2-0.3S36.4,44.9,35.8,45.2z M61.1,58.1v3.7h-7.9h-7.9v-3.7v-3.7h7.9h7.9V58.1z M43.2,56.6v1.1l-6.3,0
		c-5.6,0-6.3-0.1-6.6-0.3c-0.5-0.3-0.6-0.6-0.7-1.3l-0.1-0.6h6.9h6.9V56.6z M74.8,56.6v1.1H69h-5.8v-1.1v-1.1H69h5.8V56.6z M61.1,65
		v1.1h-7.9h-7.9V65v-1.1h7.9h7.9V65z M85.4,68.1c1.5,2.3,2.8,4.2,2.8,4.2c0,0-4.6,0.1-10.2,0.1c-5.6,0-10.2,0-10.2-0.1
		c0,0,1.2-1.9,2.8-4.2l2.8-4.2H78h4.6L85.4,68.1z M73.8,68.2v1.1h1.1h1.1v-1.1v-1.1h-1.1h-1.1V68.2z M80.1,68.2v1.1h1.1h1.1v-1.1
		v-1.1h-1.1h-1.1V68.2z M36.3,70.6c1.4,0.4,2.5,1.5,3.2,2.8c0.3,0.7,0.4,0.9,0.4,2.1c0,1.2,0,1.5-0.4,2.1c-1.2,2.7-4.4,3.8-7,2.5
		c-1-0.5-2-1.5-2.4-2.5C28.1,73.7,32,69.3,36.3,70.6z M33.3,72.6c-0.6,0.3-1.4,1.2-1.7,1.8c-0.1,0.3-0.1,0.9-0.1,1.4
		c0.1,1.1,0.5,1.8,1.4,2.4c0.5,0.4,0.7,0.4,1.7,0.4c1.1,0,1.2,0,1.7-0.4c0.9-0.7,1.4-1.4,1.4-2.4c0.1-1.1-0.1-1.6-0.7-2.4
		c-0.6-0.8-1.3-1.1-2.4-1.1C34.2,72.4,33.7,72.5,33.3,72.6z M35.4,74.9c0.3,0.3,0.3,1,0,1.4c-0.3,0.3-1.1,0.3-1.4,0
		c-0.3-0.3-0.3-1.1,0-1.4C34.4,74.5,35,74.5,35.4,74.9z M88.6,77.7v3.2h-2.1h-2.1v-2.1v-2.1h-1.1h-1.1v2.1v2.1h-1.6h-1.6v-2.1v-2.1
		H78H77v2.1v2.1h-1.6h-1.6v-2.1v-2.1h-1.1h-1.1v2.1v2.1h-2.1h-2.1v-3.2v-3.2H78h10.6V77.7z"/>
</g>
</svg>
