<?xml version="1.0" encoding="utf-8"?>
<!-- Generator: Adobe Illustrator 25.2.3, SVG Export Plug-In . SVG Version: 6.00 Build 0)  -->
<svg version="1.1" id="Слой_1" xmlns="http://www.w3.org/2000/svg" xmlns:xlink="http://www.w3.org/1999/xlink" x="0px" y="0px"
	 viewBox="0 0 120 140" style="enable-background:new 0 0 120 140;" xml:space="preserve">
<style type="text/css">
	.st0{fill:#007CFB;}
	.st1{fill:#FFFFFF;filter:url(#Adobe_OpacityMaskFilter);}
	.st2{mask:url(#mask0_801_26474_2_);}
	.st3{fill-rule:evenodd;clip-rule:evenodd;fill:#FFFFFF;}
</style>
<g>
	<path class="st0" d="M10,10c0-5.5,4.5-10,10-10h60c16.6,0,30,13.4,30,30v60c0,5.5-4.5,10-10,10H40c-16.6,0-30-13.4-30-30V10z"/>
</g>
<defs>
	<filter id="Adobe_OpacityMaskFilter" filterUnits="userSpaceOnUse" x="31.2" y="18.7" width="52.5" height="60">
		<feColorMatrix  type="matrix" values="1 0 0 0 0  0 1 0 0 0  0 0 1 0 0  0 0 0 1 0"/>
	</filter>
</defs>
<mask maskUnits="userSpaceOnUse" x="31.2" y="18.7" width="52.5" height="60" id="mask0_801_26474_2_">
	<rect x="27.2" y="18.7" class="st1" width="60" height="60"/>
</mask>
<g class="st2">
	<path class="st3" d="M72.2,19c-0.6,0.3-1.3,1.1-1.5,1.6c-0.1,0.3-0.1,7.2-0.1,19.3l0,18.8l-0.4,0.1c-0.2,0.1-0.8,0.3-1.3,0.5
		c-0.4,0.2-0.8,0.4-0.8,0.4c0,0,0.3-5.5,0.3-5.6c0,0,0.2-0.1,0.4-0.3c0.7-0.4,0.9-1,0.9-2.8c0-1.3,0-1.6-0.2-2
		c-0.3-0.6-0.8-0.9-1.4-0.9l-0.4,0l0.1-0.4c0.2-0.7,0-1.7-0.3-2.4c-0.7-1.2-1.7-1.8-3.3-1.7l-0.9,0l-0.5-0.5c-1-0.9-2.7-1.4-3.8-1.1
		c-0.3,0.1-0.4,0.1-0.4,0c0-0.1-0.2-0.5-0.4-1c-0.8-1.6-2.3-2.7-4.1-3c-1.6-0.3-3.4,0.3-4.6,1.5c-0.6,0.6-1.4,1.9-1.4,2.4
		c0,0.2-0.1,0.2-0.4,0.1c-0.2-0.1-0.8-0.1-1.2-0.1c-1.5,0.1-2.8,1-3.5,2.4c-0.4,0.9-0.4,2.5,0,3.6c0.1,0.2,0,0.2-0.4,0.2
		c-0.6,0-1.2,0.3-1.5,0.8c-0.2,0.3-0.2,0.6-0.2,2.1c0,2,0.1,2.3,0.9,2.8c0.3,0.2,0.4,0.3,0.4,0.5c0,0.1,0.1,1.8,0.2,3.6l0.2,3.4
		l-1.4,1.4c-1.6,1.6-1.9,2.1-1.9,3.1c0,1.6,1.5,2.8,3,2.5c0.3-0.1,0.5-0.1,0.6-0.1c0,0,0.1,1.4,0.2,3c0.1,1.6,0.2,3.2,0.2,3.6
		c0.1,1.4,1.2,2.8,2.5,3.5l0.6,0.3l18.1,0c13.3,0,18.2,0,18.4-0.1c0.5-0.2,1-0.8,1.1-1.3c0.3-1.4-1.2-12-1.9-13.7
		c-0.9-2.2-2.6-3.9-4.9-4.6l-0.6-0.2l-0.1-12c-0.1-11.6-0.1-12-0.3-12.2c-0.3-0.3-1-0.3-1.4,0c-0.2,0.2-0.2,0.4-0.2,12v11.8h-0.9
		h-0.9V43.5V28.6h0.9h0.9V30c0,1.4,0,1.5,0.3,1.7c0.5,0.4,1.1,0.3,1.4-0.2c0.1-0.3,0.2-1.2,0.2-5.2c0-2.9-0.1-5.1-0.1-5.4
		c-0.2-0.8-0.6-1.4-1.3-1.8c-0.5-0.3-0.7-0.4-1.4-0.4C72.9,18.7,72.5,18.8,72.2,19z M74.2,21.1c0.1,0.2,0.1,1.1,0.1,3l0,2.7h-0.9
		h-0.9v-2.8c0-2.7,0-2.8,0.3-3c0.1-0.1,0.3-0.3,0.4-0.3C73.4,20.5,74,20.8,74.2,21.1z M48.4,25c-0.1,0.1-0.4,0.6-0.6,1.1
		c-0.6,1.6-1.5,2.7-2.8,3.4c-1.2,0.7-1.2,1.7,0.1,2.3c1.2,0.6,2.1,1.9,3,4.1c0.1,0.2,0.3,0.4,0.6,0.5c0.4,0.2,0.5,0.2,0.8,0
		c0.4-0.2,0.5-0.3,0.8-1.1c0.7-1.7,1.6-2.8,2.9-3.6c1.1-0.6,1-1.6-0.1-2.2c-1.3-0.7-2.2-1.8-2.8-3.4c-0.4-1-0.6-1.3-1.3-1.3
		C48.9,24.8,48.6,24.9,48.4,25z M36.8,28.1c-0.1,0.1-0.4,0.7-0.6,1.2C35.6,31,35,32,34,33c-0.6,0.6-1.2,1.1-1.7,1.3
		c-0.8,0.4-1.1,0.7-1.1,1.3c0,0.5,0.3,0.8,1.1,1.3c0.9,0.5,2.4,1.9,2.9,2.9c0.2,0.4,0.6,1.1,0.8,1.6c0.7,1.8,0.7,1.7,1.2,1.8
		c0.4,0.1,0.5,0.1,0.8-0.1c0.4-0.2,0.5-0.3,0.9-1.4c0.9-2.2,2.3-4,3.8-4.8c0.9-0.5,1.2-0.8,1.2-1.3c0-0.6-0.2-0.8-1.1-1.4
		c-1.7-1-3.1-2.8-3.9-5c-0.2-0.6-0.5-1.1-0.6-1.2C37.9,27.8,37.1,27.8,36.8,28.1z M49.5,28.7c0.2,0.3,0.6,0.9,1,1.3l0.7,0.7
		l-0.7,0.6c-0.4,0.4-0.8,0.9-1.1,1.3c-0.2,0.4-0.4,0.7-0.5,0.7c0,0-0.2-0.3-0.4-0.6c-0.2-0.3-0.7-0.9-1.1-1.3l-0.7-0.7l0.7-0.7
		c0.4-0.4,0.9-1,1-1.3c0.2-0.3,0.4-0.5,0.4-0.5C49.2,28.1,49.4,28.4,49.5,28.7z M39.3,33.7c0.4,0.4,1,1,1.3,1.3l0.7,0.5L41,35.8
		c-0.4,0.2-1.6,1.4-2,2c-0.2,0.2-0.6,0.9-0.9,1.4l-0.6,1l-0.2-0.4c-0.5-1.1-1.9-2.9-2.9-3.7l-0.6-0.4l0.3-0.2c1.1-0.8,2.3-2.2,3-3.5
		l0.4-0.7l0.6,1C38.4,32.5,39,33.3,39.3,33.7z M54.7,40.3c0.4,0.2,0.9,0.5,1,0.7c0.5,0.6,0.9,1.5,0.9,2.3c0.1,0.6,0.1,0.8,0.4,1
		c0.4,0.3,0.8,0.3,1.3-0.1c0.6-0.4,1.5-0.5,2.2-0.2c0.5,0.2,0.8,0.5,1.3,1.3c0.4,0.6,0.8,0.7,1.5,0.4c1-0.5,1.7-0.3,2.2,0.5
		c0.3,0.4,0.2,1.2-0.1,1.6l-0.2,0.3H55.3c-6.4,0-10.2,0-10.3-0.1c-0.3-0.2-0.7-0.8-0.8-1.4c-0.3-1.4,0.8-2.8,2.3-2.8
		c0.4,0,0.7,0.1,1.1,0.3c1.1,0.6,1.7,0.4,1.8-0.9c0.1-0.9,0.4-1.7,1.1-2.3C51.7,39.8,53.2,39.6,54.7,40.3z M67.8,51.1v1.2l-4,0
		c-3.5,0-4,0.1-4.4,0.2c-0.6,0.3-1.2,0.8-1.5,1.5c-0.6,1.1-1.4,1.8-2.4,1.9L54.9,56l1-1c1.1-1.1,1.3-1.6,1.3-2.5
		c0-1.6-1.3-2.7-2.9-2.5c-0.8,0.1-1.1,0.3-2.4,1.5c-1.1,1-1.1,1.1-1.4,0.9c-0.2-0.1-1.2-0.2-4.3-0.2l-4,0v-1.1c0-0.6,0-1.1,0.1-1.2
		c0,0,5.8-0.1,12.8-0.1h12.7V51.1z M55.1,52.1c0.5,0.5,0.4,0.7-2.6,3.6c-1.6,1.5-2.9,3-3,3.1c-0.3,0.7,0.1,1.4,0.8,1.4
		c0.3,0,0.6-0.2,1.7-1.3l1.3-1.3l0.9,0.1c2.2,0.3,4.2-0.7,5.2-2.7c0.3-0.5,0.4-0.7,0.7-0.8c0.2-0.1,1.5-0.1,3.3-0.1h3L66.4,55
		c0,0.5-0.3,5.2-0.6,10.4c-0.5,10.3-0.5,9.9-1.2,10.6c-0.2,0.2-0.5,0.4-0.8,0.6c-0.5,0.3-0.5,0.3-8.4,0.3c-5.1,0-8.1,0-8.6-0.1
		c-0.9-0.2-1.5-0.6-1.9-1.4c-0.3-0.6-0.3-0.7-0.5-4.7l-0.2-4l2-2.1c2.1-2.2,2.2-2.3,1.8-2.9c-0.3-0.4-0.7-0.5-1.1-0.4
		c-0.2,0.1-1.5,1.3-2.9,2.7c-2.3,2.3-2.6,2.6-2.9,2.5c-0.2,0-0.3-0.2-0.4-0.3c-0.4-0.5-0.4-0.5,6.7-7.6
		C54.6,51.6,54.6,51.6,55.1,52.1z M46.7,56.9l-2.8,2.8l-0.1-1c0-0.6-0.1-1.8-0.2-2.8l-0.1-1.7h2.9h2.9L46.7,56.9z M75.8,60.6
		c1.8,0.6,3.2,1.7,4,3.2c0.2,0.5,0.4,0.9,0.4,1c0,0.1-1,0.2-6.2,0.2h-6.2l0.1-1.3l0.1-1.3l0.5-0.5c0.7-0.6,1.7-1.1,2.9-1.4
		C72.4,60.2,74.7,60.2,75.8,60.6z M80.9,68.5c0.4,2.7,0.8,6,0.9,7.3l0,1.2l-1.3,0l-1.3,0l-0.2-1.8c-0.2-2.2-0.7-4.9-1-5.2
		c-0.3-0.4-0.7-0.5-1.2-0.3c-0.6,0.2-0.6,0.6-0.3,2c0.3,1.4,0.7,4.3,0.7,4.9l0,0.4h-1.4h-1.4v-3.4c0-3.2,0-3.4-0.2-3.7
		c-0.1-0.2-0.4-0.3-0.5-0.4c-0.3-0.1-0.9,0.2-1,0.5c0,0.1-0.1,1.7-0.1,3.6V77H71h-1.5l0.1-0.7c0.2-1.5,0.4-3.3,0.7-4.6
		c0.2-1.1,0.2-1.4,0.1-1.6c-0.3-0.6-1.2-0.7-1.6-0.2c-0.3,0.5-0.8,3.5-1.2,6.4L67.6,77H67h-0.6l0.2-0.4c0.5-0.9,0.6-1.3,0.8-5.5
		c0.1-2.3,0.2-4.1,0.2-4.2c0,0,2.9-0.1,6.5-0.1h6.5L80.9,68.5z"/>
</g>
</svg>
