<svg width="60" height="60" viewBox="0 0 60 60" fill="none" xmlns="http://www.w3.org/2000/svg">
<mask id="mask0_801_26452" style="mask-type:alpha" maskUnits="userSpaceOnUse" x="0" y="0" width="60" height="60">
<rect width="60" height="60" fill="white"/>
</mask>
<g mask="url(#mask0_801_26452)">
<path fill-rule="evenodd" clip-rule="evenodd" d="M38.6235 0.163462C37.2935 0.529046 35.953 1.42607 35.1967 2.45624C34.6538 3.19585 34.6526 3.19808 31.723 9.75901C29.1123 15.6059 29.0839 15.6937 29.6698 16.104C30.0439 16.366 30.6072 16.3255 30.8884 16.0162C31.0204 15.8711 32.1954 13.3526 33.4995 10.4194C34.8036 7.48616 36.0576 4.72781 36.2861 4.28979C36.7616 3.37858 37.4481 2.71798 38.4111 2.24514C39.0035 1.95422 39.1942 1.92152 40.3007 1.92152C41.4085 1.92152 41.6042 1.95516 42.2596 2.2578C43.1018 2.64695 44.1017 3.62508 44.496 4.44568C44.9489 5.38842 44.9892 6.02265 44.9892 12.1935V18.1554H44.1687H43.3482L43.3469 12.2655C43.3462 9.02597 43.3128 6.17678 43.2726 5.93392C43.2325 5.69094 43.0353 5.21822 42.8344 4.88323C41.662 2.92837 38.7075 3.06891 37.6745 5.12867C37.5246 5.42768 32.9291 15.6939 27.4624 27.9426C21.9957 40.1912 17.5117 50.2283 17.498 50.2473C17.4843 50.2663 17.0789 50.2663 16.5972 50.2473L15.7212 50.2128L22.6878 34.6236C26.5194 26.0496 29.681 18.8762 29.7136 18.6828C29.8549 17.8438 28.6686 17.2954 28.1485 17.9592C28.031 18.1092 24.7174 25.4403 20.7849 34.2505L13.635 50.2693L13.1179 50.2704C12.3872 50.2719 11.6737 50.7149 11.3606 51.3617C11.163 51.7699 11.115 52.0914 11.115 53.0043V54.1394H9.20558C7.02556 54.1394 6.36144 54.266 5.1197 54.9186C3.67459 55.6779 2.2466 57.5124 2.02577 58.8929C1.96658 59.2631 2.00256 59.4206 2.20499 59.678L2.45828 60H9.83419C17.0537 60 17.2149 59.9951 17.4444 59.7656C17.7553 59.4547 17.7553 58.7871 17.4444 58.4762C17.2156 58.2474 17.0537 58.2418 10.7592 58.2418C4.55403 58.2418 4.31281 58.2337 4.42275 58.0281C4.67968 57.548 5.59358 56.7769 6.30928 56.4362L7.07116 56.0734L15.3346 56.0407C24.4599 56.0045 24.1569 55.9823 24.9352 56.7432C25.3037 57.1035 25.7664 57.8699 25.7664 58.1199C25.7664 58.2011 24.7739 58.2418 22.7957 58.2418C19.9498 58.2418 19.8158 58.2519 19.6076 58.4821C19.3268 58.7922 19.3268 59.4496 19.6076 59.7597C19.8182 59.9925 19.9431 60 23.6162 60C27.2512 60 27.417 59.9904 27.6418 59.7656C27.7807 59.6267 27.8763 59.3749 27.8763 59.1479C27.8763 58.6255 27.4619 57.1693 27.1228 56.5003C26.7583 55.7811 25.8089 54.9042 24.9715 54.5137C24.3731 54.2345 24.1347 54.1964 22.7482 54.1586L21.1952 54.1164L21.1933 52.9265C21.1908 51.4685 20.9679 50.965 20.1212 50.5058L19.5808 50.2128L29.4741 28.0649C34.9154 15.8837 39.4812 5.79608 39.6201 5.64816C39.9163 5.33297 40.582 5.28445 40.9618 5.5504C41.4639 5.90215 41.4774 6.0904 41.4451 12.2863L41.4142 18.1971L41.0808 18.2863C40.4475 18.4557 40.4257 18.5627 40.4217 21.5288C40.4183 24.0211 40.4001 24.2637 40.2128 24.3275C35.8137 25.8235 32.0272 29.0987 29.9726 33.1852C28.8796 35.3593 28.6858 36.1068 27.282 43.5672C26.1141 49.7739 26.0985 49.8799 26.1575 51.2091C26.3309 55.1155 28.7231 58.2817 32.5061 59.6117L33.4438 59.9414L42.0003 59.9755C49.5915 60.0057 50.6559 59.9878 51.4358 59.8167C54.3548 59.1762 56.7988 57.2006 58.0473 54.4723C58.693 53.0613 58.8747 52.1745 58.872 50.4472C58.8693 48.6166 58.6287 47.6248 57.7938 46.0012C57.348 45.1343 57.0409 44.7328 56.129 43.8245C54.5593 42.2609 53.2218 41.5282 51.2311 41.1411L50.2645 40.9531L50.2641 38.2865C50.2637 35.7765 50.25 35.6062 50.0293 35.3855C49.7054 35.0617 48.9687 35.0682 48.6702 35.3976C48.4669 35.622 48.4438 35.8817 48.4117 38.3136L48.3763 40.9831L47.8105 41.0581C45.9421 41.306 43.4461 42.6837 42.2103 44.1493C40.4745 46.2078 39.7464 48.3196 39.8593 50.9679C39.9646 53.4367 40.8401 55.3986 42.648 57.2162L43.6682 58.2418L39.7281 58.2398C37.5611 58.2387 35.2981 58.1861 34.6993 58.1231C31.0024 57.7336 28.2373 54.8666 28.0309 51.2091C27.9728 50.1803 28.0317 49.7564 28.8033 45.6415C29.2625 43.1918 29.6681 41.0424 29.7043 40.8652L29.7703 40.5428L34.7717 40.5417C39.7721 40.5405 39.7734 40.5405 40.3638 40.2655C41.1271 39.9101 41.89 39.0456 42.1181 38.2774C42.2637 37.7872 42.2933 36.6711 42.2933 31.6883V25.6893L42.9673 25.5452C43.338 25.466 44.277 25.3728 45.054 25.3382C46.598 25.2695 46.9167 25.3512 47.6076 25.9926C48.3032 26.6385 48.3247 26.7475 48.3883 29.975C48.4465 32.9224 48.449 32.9469 48.7237 33.169C49.0924 33.4675 49.7288 33.459 50.0361 33.1517C50.2697 32.9181 50.2763 32.8091 50.2412 29.7232L50.2051 26.536L49.875 25.8913C49.4935 25.1462 48.7565 24.3444 48.1246 23.987L47.6851 23.7384V21.2399C47.6851 18.8977 47.6704 18.7268 47.4506 18.507C47.3217 18.3781 47.1399 18.2726 47.0467 18.2726C46.9013 18.2726 46.8722 17.3437 46.8416 11.738L46.806 5.20345L46.4948 4.35203C45.7378 2.28066 44.1679 0.800274 42.0669 0.176472C41.2937 -0.0530285 39.4366 -0.0600612 38.6235 0.163462ZM45.8097 21.7303V23.4299L45.0771 23.4322C44.3654 23.4345 42.9135 23.6041 42.4984 23.7334C42.3089 23.7924 42.2933 23.6539 42.2933 21.914V20.0308H44.0515H45.8097V21.7303ZM40.36 37.5743C40.3202 37.7971 40.1289 38.0908 39.8827 38.3069L39.472 38.6674H34.7854H30.0988L30.1719 38.3451C30.5637 36.6171 30.9794 35.3936 31.596 34.1548C33.2133 30.905 36.2731 28.0046 39.5667 26.5994L40.3593 26.2613L40.393 31.7318C40.4114 34.7406 40.3966 37.3697 40.36 37.5743ZM51.6678 43.1863C54.9992 44.2388 57.2357 47.4691 57.0195 50.9161C56.8256 54.005 54.7951 56.7046 51.8821 57.7465C51.1984 57.9911 50.7518 58.0625 49.6678 58.1005C48.0839 58.1561 47.252 57.9903 45.9855 57.3665C41.9783 55.3928 40.5049 50.4129 42.7831 46.5429C42.9973 46.1792 43.5458 45.5085 44.0024 45.0524C46.0248 43.0316 48.9352 42.3232 51.6678 43.1863ZM48.1356 46.6772C46.9397 47.1235 46.1714 47.8281 45.6649 48.9434C45.306 49.7337 45.3085 51.2608 45.6698 52.0637C46.0209 52.8435 46.9811 53.8229 47.72 54.1549C48.5693 54.5364 50.186 54.5481 50.9876 54.1786C54.0495 52.7667 54.1414 48.4553 51.1428 46.9003C50.4297 46.5305 48.8442 46.4128 48.1356 46.6772ZM50.4305 48.6776C50.9118 48.9596 51.3369 49.5699 51.4827 50.1878C51.6619 50.948 50.9902 52.1194 50.1814 52.4573C48.5123 53.1547 46.7362 51.4447 47.3797 49.7599C47.8485 48.5326 49.3027 48.0166 50.4305 48.6776ZM19.1344 52.1007C19.2831 52.1578 19.3198 52.3667 19.3198 53.1556V54.1394H16.1551H12.9904V53.1528C12.9904 52.4734 13.036 52.148 13.1369 52.1072C13.3482 52.022 18.9134 52.0159 19.1344 52.1007Z" fill="white"/>
</g>
</svg>
