<svg width="60" height="60" viewBox="0 0 60 60" fill="none" xmlns="http://www.w3.org/2000/svg">
<mask id="mask0_801_26463" style="mask-type:alpha" maskUnits="userSpaceOnUse" x="0" y="0" width="60" height="60">
<rect width="60" height="60" fill="white"/>
</mask>
<g mask="url(#mask0_801_26463)">
<path fill-rule="evenodd" clip-rule="evenodd" d="M49.655 0.793945L48.8672 1.58789V2.93578V4.28367L49.6611 5.07152L50.4551 5.85938H51.803H53.1509L53.9387 5.06543L54.7266 4.27148V2.92359V1.5757L53.9326 0.787852L53.1387 0H51.7908H50.4429L49.655 0.793945ZM17.1374 3.42891L15.1172 5.45168V6.18281V6.91406H13.5046H11.8921L9.87176 8.93672L7.85156 10.9595V14.3273V17.6953H6.73828H5.625V23.9648V30.2344H6.73828H7.85156V33.9855V37.7367L8.96543 39.9621L10.0793 42.1875H10.9576H11.8359L11.8382 42.7441C11.8395 43.0504 11.968 46.408 12.1237 50.2057L12.4071 57.1105L13.7896 58.4967L15.1721 59.8828H25.6915H36.2109V59.0039V58.125H26.1595H16.1081L15.1613 57.1582L14.2145 56.1914L13.9584 49.3945C13.8176 45.6562 13.7044 42.5053 13.7067 42.3926C13.7107 42.2011 13.9916 42.1875 17.9297 42.1875H22.1484V43.6523V45.1172H30.2344H38.3203V43.6523V42.1875H42.5391H46.7578L46.7614 42.4512C46.7636 42.5962 46.6508 45.7471 46.5111 49.4531L46.2571 56.1914L45.3088 57.1582L44.3606 58.125H41.4577H38.5547V59.0039V59.8828H41.9257H45.2966L46.682 58.4938L48.0674 57.1048L48.3465 50.32C48.4999 46.5884 48.6272 43.232 48.6292 42.8613L48.6328 42.1875H49.5425H50.4521L51.5347 40.0187L52.6172 37.8499V34.0421V30.2344H53.7891H54.9609V23.9648V17.6953H53.7891H52.6172V14.9108V12.1264L50.5945 10.1061L48.5718 8.08594H47.6062H46.6406V7.11785V6.14988L44.618 4.12957L42.5952 2.10938H39.7277H36.8604L35.8915 3.07324L34.9227 4.03699L34.1868 3.30762L33.4507 2.57812H30.5298H27.6088L27.2204 2.95453L26.8322 3.33094L25.8648 2.36859L24.8974 1.40625H22.0275H19.1577L17.1374 3.42891ZM52.5229 2.0727C52.7876 2.32629 52.8516 2.49012 52.8516 2.9148C52.8516 3.64852 52.5255 3.98438 51.8133 3.98438C51.0775 3.98438 50.7422 3.65906 50.7422 2.94492C50.7422 1.88191 51.7887 1.36934 52.5229 2.0727ZM25.4565 4.65574L26.8346 6.03023L27.6292 5.24168L28.4238 4.45312H30.5282H32.6325L33.7774 5.59371L34.9222 6.7343L36.3008 5.35934L37.6793 3.98438H39.7267H41.7741L43.2698 5.47687L44.7656 6.96926V8.46516V9.96094H46.2581H47.7506L49.2464 11.4534L50.7422 12.9458V15.3206V17.6953H48.0469H45.3516V20.5296C45.3516 23.2782 45.3438 23.372 45.0968 23.6351C44.7476 24.0067 43.9009 24.0155 43.5134 23.6515L43.2422 23.3966V19.7257V16.0547H42.3047H41.3672V18.9476C41.3672 21.7563 41.3598 21.8482 41.1124 22.1116C40.7412 22.5067 40.023 22.4862 39.5865 22.0679L39.2578 21.753V18.3179V14.8828H38.3203H37.3828V19.6489C37.3828 25.0699 37.4228 24.8438 36.4639 24.8438C36.0802 24.8438 35.858 24.7732 35.6618 24.589C35.3907 24.3342 35.3906 24.3329 35.3906 21.0148V17.6953H22.5586H9.72656V14.738V11.7806L11.2191 10.2848L12.7114 8.78906H14.8519H16.9922V7.53094V6.27281L18.4847 4.77703L19.9771 3.28125H22.0279H24.0785L25.4565 4.65574ZM21.3281 9.14062V10.0781H22.2656H23.2031V9.14062V8.20312H22.2656H21.3281V9.14062ZM39.7266 9.72656V10.6641H40.6641H41.6016V9.72656V8.78906H40.6641H39.7266V9.72656ZM55.0457 10.7549L54.2578 11.5488V12.8967V14.2446L55.0518 15.0325L55.8457 15.8203H57.1938H58.542L59.271 15.0847L60 14.3491V12.8841V11.419L59.2644 10.69L58.5288 9.96094H57.1812H55.8335L55.0457 10.7549ZM0.787852 11.9268L0 12.7207V14.1272V15.5337L0.793945 16.3215L1.58789 17.1094H2.81836H4.04883L4.89551 16.257L5.74219 15.4046V14.0566V12.7085L4.94824 11.9207L4.1543 11.1328H2.865H1.5757L0.787852 11.9268ZM57.971 12.0907C58.3737 12.4691 58.3519 13.2907 57.9273 13.7338C57.5222 14.1567 56.8121 14.1912 56.404 13.8077C56.0275 13.4539 56.0182 12.5004 56.3876 12.1071C56.7368 11.7355 57.5835 11.7267 57.971 12.0907ZM28.2422 13.7109V14.6484H29.1211H30V13.7109V12.7734H29.1211H28.2422V13.7109ZM3.59602 13.2626C3.97254 13.6164 3.9818 14.5699 3.61242 14.9632C3.23156 15.3684 2.48953 15.3408 2.0727 14.9057C1.6602 14.4751 1.63102 13.6853 2.01258 13.279C2.3618 12.9074 3.20848 12.8986 3.59602 13.2626ZM33.5156 22.3506V25.1309L34.3035 25.9248L35.0913 26.7188H36.439H37.7866L38.5222 25.9897C39.1966 25.3213 39.2578 25.219 39.2578 24.7593V24.2578H40.3452H41.4326L42.1875 25.0195L42.9424 25.7812H44.2906H45.6387L46.4326 24.9934L47.2266 24.2055V21.8879V19.5703H50.1562H53.0859V23.9648V28.3594H37.0898H21.0938V29.2969V30.2344H34.1602H47.2266L47.224 31.0254C47.2226 31.4604 47.1446 33.583 47.0508 35.7422C46.9569 37.9014 46.879 39.813 46.8776 39.9902L46.875 40.3125H42.5977H38.3203V38.8477V37.3828H30.2344H22.1484V38.8477V40.3125H17.8711H13.5938L13.5912 39.9316C13.5898 39.7221 13.5118 37.7842 13.418 35.625C13.3241 33.4658 13.2462 31.3697 13.2448 30.9668L13.2422 30.2344H16.0547H18.8672V29.2969V28.3594H13.125H7.38281V23.9648V19.5703H20.4492H33.5156V22.3506ZM11.3698 30.9668C11.3712 31.3697 11.4491 33.4658 11.543 35.625C11.763 40.6898 11.7677 40.3125 11.4852 40.3125C11.3031 40.3125 11.0838 39.9775 10.4891 38.7907L9.72656 37.269V33.7516V30.2344H10.5469H11.3672L11.3698 30.9668ZM50.7422 33.8074V37.3805L50.012 38.8465C49.3986 40.0777 49.2391 40.3125 49.0159 40.3125C48.6979 40.3125 48.7075 40.8087 48.9263 35.6836C49.0198 33.4922 49.0975 31.3697 49.099 30.9668L49.1016 30.2344H49.9219H50.7422V33.8074ZM36.4453 41.25V43.2422H30.2344H24.0234V41.25V39.2578H30.2344H36.4453V41.25ZM27.6562 52.1484V53.0859H28.5938H29.5312V52.1484V51.2109H28.5938H27.6562V52.1484ZM30.5859 52.1484V53.0859H31.5234H32.4609V52.1484V51.2109H31.5234H30.5859V52.1484Z" fill="white"/>
</g>
</svg>
