<svg width="100" height="100" viewBox="0 0 100 100" fill="none" xmlns="http://www.w3.org/2000/svg">
<mask id="mask0_801_26854" style="mask-type:alpha" maskUnits="userSpaceOnUse" x="0" y="0" width="100" height="100">
<rect width="100" height="100" fill="white"/>
</mask>
<g mask="url(#mask0_801_26854)">
<path fill-rule="evenodd" clip-rule="evenodd" d="M32.9996 3.40285C31.9356 3.88379 30.9454 4.79899 30.4506 5.75871L30.0839 6.47025L29.345 6.20665C28.3722 5.85947 27.4281 5.86161 26.2497 6.21309C23.0015 7.18218 21.7838 11.2114 23.9005 13.9865L24.4367 14.6895L23.4738 15.1036C21.5745 15.9208 20.2752 17.8826 20.2557 19.9628C20.2405 21.5721 20.5568 22.2958 22.346 24.7469L23.9591 26.9569L23.2918 27.1983C21.6407 27.7954 20.3129 29.765 20.3094 31.6228C20.3068 32.9187 20.5783 33.6685 21.6092 35.2129L22.4547 36.4795L20.0727 38.8672C17.8949 41.0503 17.6909 41.3162 17.6909 41.9704C17.6909 42.8674 18.3011 43.4165 19.2981 43.4165C19.964 43.4165 20.4121 43.0101 27.4287 36.0451C50.585 13.0586 48.4465 15.1032 49.3328 15.1032C50.4185 15.1032 51.1591 15.8259 51.1591 16.8848C51.1591 17.6083 50.8992 17.9061 44.3249 24.713C37.9188 31.3455 37.4906 31.8329 37.4906 32.4917C37.4906 33.7203 38.9512 34.5207 39.8775 33.7997C40.05 33.6656 44.0234 29.6016 48.7076 24.7688C54.4497 18.8443 57.4419 15.8948 57.8932 15.7146C59.662 15.0078 61.5071 16.9799 60.6757 18.6885C60.5116 19.0257 58.5073 21.2785 56.2215 23.6949C42.0489 38.6774 42.5675 38.1039 42.5675 38.7923C42.5675 39.708 43.172 40.2923 44.1198 40.2923C44.8665 40.2923 45.0149 40.1452 55.922 28.5989C61.9972 22.1675 67.1084 16.8514 67.2805 16.7854C68.9216 16.1555 70.4629 17.8688 69.5438 19.3014C69.3372 19.6236 64.677 25.2472 59.1878 31.7983C48.5736 44.466 48.7429 44.23 49.4995 45.3102C49.9053 45.8893 50.8558 46.0705 51.4493 45.6817C51.7076 45.5124 55.9405 40.6061 60.8557 34.7786C65.7711 28.951 70.0468 23.9413 70.3572 23.646C70.8015 23.2237 71.1094 23.1091 71.7996 23.1091C72.5373 23.1091 72.783 23.2149 73.341 23.773C73.8708 24.3027 74.0049 24.5919 74.0049 25.2042C74.0049 25.8994 73.1844 27.1465 65.2876 38.4529C53.8582 54.8173 54.088 54.4768 54.088 55.0491C54.088 55.7738 54.9052 56.4992 55.7216 56.4992C56.4009 56.4992 56.7911 56.1789 57.6335 54.929L57.9572 54.4489L58.805 55.2588C61.2993 57.6413 65.2587 57.9769 68.075 56.0448C69.9161 54.7818 71.2713 52.2861 71.2713 50.1587V49.3267L72.4286 48.9048C75.0199 47.9599 77.1057 45.7184 77.9356 42.9867C78.463 41.2498 78.3771 38.7989 77.73 37.1206C77.1493 35.6149 75.8295 33.9214 74.4953 32.9699L73.4002 32.1888L76.1921 32.0912C77.7669 32.0361 79.1544 31.895 79.3747 31.7674C80.3026 31.2301 80.7287 30.4141 82.205 26.3459C83.0486 24.0213 83.9804 21.7049 84.2754 21.1986C85.4427 19.1952 87.788 17.4242 90.063 16.828C90.9072 16.6068 91.0355 16.6208 91.5275 16.9872C92.5265 17.7309 92.5253 18.117 91.5152 21.3976C91.0105 23.037 90.5987 24.536 90.6 24.7288C90.6037 25.2833 91.4881 26.038 92.134 26.038C93.1857 26.038 93.4911 25.5557 94.5195 22.2704C95.6216 18.7498 95.7001 17.8211 95.019 16.3586C94.2653 14.7397 92.407 13.5411 90.6508 13.5411C89.6891 13.5411 87.1786 14.4339 85.8204 15.2591C84.3612 16.1454 82.5177 18.0086 81.6292 19.4953C81.2582 20.1159 80.2776 22.4789 79.4503 24.7465L77.9458 28.8693L76.8333 28.9285L75.7209 28.9877L76.1363 28.4044C78.093 25.6567 76.9884 21.6352 73.9288 20.367L72.8767 19.931L72.8978 18.5377C72.9306 16.3832 72.0283 14.8689 70.1973 14.0053C68.2915 13.1067 65.97 13.5171 64.4177 15.0271L63.7149 15.7107L63.3674 15.1628C63.176 14.8615 62.8214 14.3954 62.5791 14.1269C62.2261 13.7356 62.121 13.3416 62.0489 12.1405C61.7848 7.7297 57.6711 4.90228 53.5489 6.29842L52.3264 6.71257L51.3561 5.94577C49.9928 4.86792 48.7376 4.49067 46.874 4.59865C45.0592 4.7037 43.9254 5.19928 42.6386 6.44994L41.7333 7.3298L39.9537 5.56286C38.8961 4.51293 37.8175 3.63561 37.2954 3.40071C36.1058 2.86568 34.1856 2.86646 32.9996 3.40285ZM7.28607 5.69076C5.88505 6.19141 4.79138 6.95626 4.08277 7.93102C3.06818 9.32696 2.86589 9.97523 2.85046 11.8814C2.83855 13.347 2.91177 13.7917 3.29156 14.5596C3.97362 15.9392 5.09697 17.0998 6.37497 17.7456C7.39073 18.2589 7.71292 18.3226 9.27503 18.3202C10.7081 18.3179 11.1995 18.2349 11.9376 17.8709C13.3961 17.1516 14.3759 16.1795 15.0759 14.7574C16.2651 12.3418 15.8734 9.48668 14.0713 7.43427C12.5703 5.72454 9.44139 4.92064 7.28607 5.69076ZM37.4762 7.52272L39.0436 8.92433L38.1208 9.4697C37.0509 10.102 36.6178 10.4663 35.8908 11.3464L35.3648 11.9827L34.1823 10.5778C33.1263 9.32344 32.9996 9.08054 32.9996 8.31081C32.9996 7.59087 33.1089 7.33957 33.6635 6.78502C34.1999 6.24863 34.4793 6.12112 35.118 6.12112C35.8229 6.12112 36.0785 6.27304 37.4762 7.52272ZM48.5297 7.88103C48.8157 7.98979 49.513 8.56094 50.0793 9.15025C51.0023 10.1109 51.1925 10.2217 51.9187 10.2217C52.4445 10.2217 53.1137 10.0162 53.8264 9.63587C55.4363 8.77671 56.6907 8.88644 57.8709 9.99007C58.4399 10.522 58.9696 11.525 58.9696 12.0704C58.9696 12.253 58.7933 12.3696 58.517 12.3696C57.5434 12.3696 55.9958 13.0044 55.0083 13.8087L53.9812 14.6452L53.115 13.6747C52.0009 12.4266 51.0349 11.9876 49.4017 11.9876C47.3759 11.9876 46.8453 12.3371 42.8221 16.3233C38.8143 20.2941 39.025 20.1987 37.9788 18.5167C37.4701 17.6989 37.393 17.3904 37.393 16.1772C37.393 14.9625 37.4703 14.6547 37.9839 13.8239C38.7356 12.6082 39.9873 11.8146 41.4068 11.6541C42.9754 11.4766 43.463 11.1517 44.1232 9.84402C44.6527 8.79506 45.3145 8.11261 46.0822 7.82421C46.5745 7.6391 47.9794 7.67171 48.5297 7.88103ZM10.4946 8.7646C11.4628 9.16919 11.8982 9.58549 12.3249 10.5146C12.7802 11.5063 12.7786 12.2581 12.3186 13.2709C11.6039 14.8447 9.771 15.6537 8.13957 15.1152C7.23647 14.8172 6.11117 13.5613 5.94285 12.6632C5.63765 11.0361 6.4148 9.50582 7.88553 8.83782C8.86927 8.39106 9.55445 8.37192 10.4946 8.7646ZM28.5208 9.25198C28.7282 9.36289 30.0712 10.8088 31.5054 12.465L34.113 15.4764L34.2299 16.8702C34.3684 18.5223 35.1317 20.2842 36.2079 21.4362L36.9253 22.2042L36.1232 22.9983L35.3211 23.7925L34.6974 23.0239C34.3543 22.6014 32.2513 19.8335 30.0243 16.8731C25.5255 10.893 25.4421 10.7196 26.5408 9.62083C27.1378 9.02391 27.8477 8.89172 28.5208 9.25198ZM26.9722 18.2773C27.2549 18.5184 28.7422 20.3765 30.2774 22.4067L33.0685 26.0978L31.3662 27.7436L29.6639 29.3895L29.3147 28.9342C26.9552 25.8566 23.5619 21.025 23.4252 20.548C22.8804 18.6485 25.4665 16.993 26.9722 18.2773ZM5.66265 28.1063C3.59715 28.9996 2.3539 31.5177 2.9272 33.6469C3.9207 37.3362 8.61328 38.5163 11.0922 35.7003C13.2598 33.2378 12.4028 29.3261 9.42284 28.0811C8.54298 27.7134 6.53997 27.7269 5.66265 28.1063ZM89.2738 29.3192C89.0801 29.5129 88.648 30.5455 88.3137 31.6136C84.6351 43.3686 84.2795 44.4156 83.2774 46.4431C82.6698 47.6723 81.505 49.5401 80.5541 50.8101C79.0549 52.8124 78.5003 53.8746 78.4972 54.7496C78.4945 55.4578 79.1296 57.4087 79.4766 57.7586C80.0583 58.3454 81.1696 58.2682 81.7432 57.6012C82.2845 56.9719 82.3105 56.6493 81.911 55.5166C81.6478 54.7709 81.6478 54.6358 81.9104 54.2716C82.0723 54.0468 82.8217 53.0283 83.5756 52.0081C85.909 48.8505 86.9652 46.4093 89.5175 38.2738C90.7586 34.3176 91.7739 30.781 91.7739 30.4145C91.7739 30.0083 91.6214 29.5955 91.3834 29.3575C90.8855 28.8596 89.7539 28.8391 89.2738 29.3192ZM26.0097 30.1489C26.2563 30.262 26.6554 30.6336 26.8966 30.9749L27.3352 31.595L26.0238 32.9166L24.7124 34.2381L24.0719 33.2226C23.2688 31.9487 23.2512 31.2652 24.0024 30.514C24.6032 29.9132 25.2421 29.797 26.0097 30.1489ZM8.69802 31.399C9.96411 32.6651 8.4557 34.7847 6.87153 33.9655C6.08364 33.558 5.73333 32.6682 6.05513 31.8912C6.35251 31.1731 6.72996 30.9333 7.57526 30.9255C8.00386 30.9216 8.37896 31.0797 8.69802 31.399ZM72.9913 35.7901C74.4572 36.9488 75.0789 38.3478 75.0789 40.4875C75.0789 41.9626 75.0145 42.2636 74.4994 43.1937C73.7954 44.4645 72.6897 45.4468 71.4858 45.871C70.992 46.0451 70.2069 46.321 69.7414 46.4843C68.5739 46.8935 68.149 47.6367 68.1466 49.2744C68.1443 50.9302 67.9034 51.7421 67.1397 52.6679C65.4239 54.748 61.963 54.6049 60.4285 52.3904L59.9182 51.6543L65.7242 43.3372C68.9175 38.7628 71.6399 35.0201 71.7737 35.0201C71.9076 35.0201 72.4555 35.3665 72.9913 35.7901ZM93.1312 41.3299C91.9719 41.6548 90.9056 42.3246 90.3151 43.0988C88.4662 45.523 88.6212 48.4902 90.7055 50.5747C92.7893 52.6585 96.0217 52.745 98.1681 50.7746C100.519 48.6162 100.623 44.814 98.3879 42.6942C97.0625 41.4369 94.8228 40.8556 93.1312 41.3299ZM95.3598 44.4668C96.7356 45.0417 97.2728 46.645 96.5177 47.9232C96.15 48.5453 95.1991 49.0791 94.4582 49.0791C93.8455 49.0791 92.7298 48.3297 92.4142 47.7064C91.8397 46.5708 92.4117 44.9968 93.584 44.4871C94.3838 44.1394 94.5709 44.1372 95.3598 44.4668ZM12.7082 46.0647C9.71554 48.8876 7.95739 51.5658 6.63526 55.3151L5.83468 57.5858L3.26442 59.532C-0.00331952 62.0066 1.36467e-08 62.0032 1.36467e-08 62.9126C1.36467e-08 63.8409 0.537952 64.3878 1.45061 64.3878C2.09518 64.3878 3.09766 63.7048 7.35695 60.3634C8.55021 59.4273 8.57032 59.3951 9.26624 57.3064C10.5882 53.3396 11.8937 51.2587 14.915 48.3037C16.0347 47.2085 16.2069 46.9463 16.2069 46.3363C16.2069 45.447 15.5563 44.7833 14.6846 44.7833C14.1912 44.7833 13.7921 45.0421 12.7082 46.0647ZM51.1204 58.8911C50.5098 59.374 48.2295 62.9634 48.2018 63.4855C48.1118 65.1698 48.6777 66.6521 49.6554 67.2927C50.8748 68.0916 51.2866 68.0808 59.0864 67.0459C63.1442 66.5076 66.8649 66.0675 67.3545 66.0679C68.8264 66.069 69.9934 67.0647 70.1172 68.4247C70.2162 69.5125 70.0717 70.0081 69.4651 70.6609C68.9238 71.2433 67.9404 71.6905 62.7773 73.7023C36.9373 83.7709 37.8573 83.4469 33.9362 83.8576C32.29 84.0298 31.1662 84.0265 29.0949 83.8429L26.3977 83.6041L18.0316 88.7181C13.4302 91.5306 9.51871 93.9773 9.33927 94.155C8.78589 94.7027 8.8021 95.7624 9.37266 96.3329C10.199 97.1593 10.546 96.9961 19.1155 91.7552L27.2393 86.7867L29.3872 86.9878C31.7309 87.2073 35.1315 86.9939 37.5883 86.4733C39.5983 86.0474 41.1938 85.4859 48.3278 82.6934C51.8718 81.306 54.8273 80.2268 54.8957 80.295C54.9937 80.3926 57.997 90.0181 59.4922 95.0257C59.8542 96.2384 60.3464 96.7235 61.2152 96.7235C62.0812 96.7235 62.6797 96.1537 62.6797 95.3291C62.6797 94.8671 59.327 83.5276 58.0041 79.5151L57.8348 79.0015L63.7231 76.7097C66.9618 75.4493 69.9776 74.2092 70.425 73.954C73.6738 72.1007 74.2535 67.257 71.5425 64.6184C69.5309 62.6605 68.6284 62.6076 59.079 63.8877C55.1116 64.4196 51.7576 64.8131 51.6252 64.7623C51.0876 64.5561 51.2483 64.0826 52.4443 62.3489C53.1336 61.3495 53.6975 60.3394 53.6975 60.1039C53.6975 59.3318 52.9743 58.6471 52.1586 58.6471C51.7574 58.6471 51.2901 58.757 51.1204 58.8911ZM82.2732 60.5979C78.7805 61.3312 76.343 64.9037 76.922 68.4411C77.1663 69.9331 77.7484 71.011 79.083 72.4418C79.8722 73.2881 80.2434 73.8608 80.3414 74.3838C81.3074 79.5323 88.1588 80.6435 90.5536 76.0398C91.3738 74.463 91.4182 72.9734 90.702 71.0701C90.2644 69.9079 90.2374 69.6769 90.4327 68.7664C91.0804 65.7465 89.3648 62.4047 86.5018 61.1095C85.2922 60.5622 83.485 60.3435 82.2732 60.5979ZM85.6575 64.2218C86.2554 64.5723 86.6145 64.9892 87.0039 65.7849C87.5109 66.8216 87.5258 66.9346 87.3333 68.3066C87.1196 69.8282 87.2473 70.9948 87.7624 72.2275C88.5646 74.1471 87.5603 75.8303 85.6134 75.8303C84.5595 75.8303 83.7486 74.9285 83.2142 73.1626C82.8631 72.0025 82.6048 71.57 81.6989 70.6275C81.0983 70.0024 80.4939 69.2698 80.3561 68.9994C79.6319 67.5806 79.8662 66.0745 80.9991 64.8654C82.308 63.4685 83.978 63.2379 85.6575 64.2218ZM87.8243 81.6394C87.6593 81.8272 87.4674 82.1681 87.3979 82.3968C87.2241 82.9685 91.2831 95.6913 91.8284 96.2841C92.5757 97.0966 94.1243 96.7182 94.3903 95.6583C94.5557 94.9997 90.3844 81.9067 89.8953 81.5491C89.3913 81.1807 88.1809 81.2334 87.8243 81.6394Z" fill="#F7C02D"/>
</g>
</svg>
