<svg width="100" height="100" viewBox="0 0 100 100" fill="none" xmlns="http://www.w3.org/2000/svg">
<mask id="mask0_801_26836" style="mask-type:alpha" maskUnits="userSpaceOnUse" x="0" y="0" width="100" height="100">
<rect width="100" height="100" fill="white"/>
</mask>
<g mask="url(#mask0_801_26836)">
<path fill-rule="evenodd" clip-rule="evenodd" d="M76.7743 0.469598C76.3095 0.732939 75.7391 1.30337 75.4757 1.76818L75.0061 2.59737L75.0026 27.9627L74.9992 53.3281H65.8323C56.8043 53.3281 56.6653 53.3218 56.6653 52.9114C56.6653 52.6822 56.4778 52.3072 56.2487 52.078C55.8397 51.6691 55.5543 51.6614 40.8315 51.6614C26.1088 51.6614 25.8234 51.6691 25.4144 52.078C25.1852 52.3072 24.9977 52.6822 24.9977 52.9114C24.9977 53.3233 24.8588 53.3281 12.914 53.3281C0.920105 53.3281 0.826978 53.3314 0.393215 53.7652C-0.0132562 54.1717 -0.0386736 54.3867 0.0286201 56.8382C0.0954972 59.267 0.145915 59.5504 0.671348 60.4439C1.73326 62.2507 3.52498 63.3021 5.57004 63.3192L6.66382 63.3284V66.6618V69.9953H8.33054H9.99726V66.6618V63.3284H17.4975H24.9977V73.7454C24.9977 83.8846 25.0088 84.1734 25.4144 84.579C25.82 84.9847 26.1088 84.9957 36.2481 84.9957H46.665V83.329V81.6623H37.4981H28.3311V79.1622V76.6621H40.8315H53.3319V79.1622V81.6623H51.6652H49.9985V83.329V84.9957H52.9152C55.5543 84.9957 55.8716 84.9561 56.2487 84.579C56.6543 84.1734 56.6653 83.8846 56.6653 73.7454V63.3284H65.8323H74.9992V64.9951V66.6618H73.3221C71.4933 66.6618 70.8568 66.8858 69.972 67.8412C69.6707 68.1665 67.3034 71.6201 64.7114 75.5158L59.9988 82.5988V89.6309V96.6627H39.974H19.949L20.6963 95.8356C22.3528 94.002 23.331 91.2153 23.331 88.3292C23.331 85.0734 22.2935 82.4892 20.0553 80.1708C17.7925 77.8272 15.0266 76.6621 11.7244 76.6621H9.99726V74.9954V73.3287H8.33054H6.66382V75.4965V77.664L5.57004 78.2843C3.23788 79.607 1.03178 82.569 0.30717 85.3505C-0.0936753 86.8897 -0.0897169 89.7838 0.315295 91.3392C1.34512 95.2925 4.71314 98.6513 8.68534 99.686C9.72225 99.956 15.6545 99.9962 54.5215 99.9962C98.8889 99.9962 99.1691 99.9937 99.5833 99.5795C99.986 99.1768 100 98.8851 100 90.8809V82.5988L95.2874 75.5158C92.6954 71.6201 90.328 68.1665 90.0268 67.8412C89.142 66.8858 88.5055 66.6618 86.6767 66.6618H84.9995V40.8277V14.9936H83.3328H81.6661V40.8277V66.6618H79.9994H78.3327V35.2442C78.3327 11.086 78.3904 3.76886 78.5827 3.57657C78.7202 3.43906 79.3577 3.32656 79.9994 3.32656C80.6411 3.32656 81.2786 3.43906 81.4161 3.57657C81.5928 3.75324 81.6661 4.97474 81.6661 7.74336V11.6601H83.3328H84.9995L84.9962 7.12876C84.9929 2.81467 84.9702 2.55758 84.5231 1.76818C84.2597 1.30337 83.6893 0.732939 83.2245 0.469598C82.4972 0.05771 82.1011 0 79.9994 0C77.8977 0 77.5016 0.05771 76.7743 0.469598ZM8.33054 6.65999V8.32671H6.66382H4.9971V9.99343V11.6601H6.66382H8.33054V13.3269V14.9936H9.99726H11.664V13.3269V11.6601H13.3307H14.9974V9.99343V8.32671H13.3307H11.664V6.65999V4.99328H9.99726H8.33054V6.65999ZM37.0814 7.07667C36.7004 7.45773 36.6647 7.77107 36.6647 10.7364C36.6647 12.52 36.7589 14.1554 36.8741 14.3706C36.9977 14.6013 37.6816 14.9546 38.5408 15.2313L39.9982 15.7007V16.5972C39.9982 17.5343 40.5232 18.327 41.144 18.327C41.3159 18.327 41.4565 18.3845 41.4565 18.4549C41.4565 18.5254 40.3784 21.0111 39.0606 23.9789C36.6699 29.3632 36.3729 30.3538 36.9252 31.0991C37.2448 31.5301 42.531 33.3275 43.4791 33.3275C44.3018 33.3275 43.9285 33.6952 49.0341 27.8548C51.311 25.2499 53.2096 23.1188 53.2529 23.1188C53.2965 23.1188 53.3315 23.7516 53.3309 24.5251L53.33 25.9314L47.4994 34.265L41.6688 42.5986L41.667 45.4633L41.6649 48.3279H43.3316H44.9983L45 46.1925L45.0017 44.057L50.4749 36.2442L55.9484 28.4315L59.7979 28.375L63.6474 28.3186L65.9969 36.1878L68.3463 44.057L68.3395 47.0258L68.3324 49.9946H69.9991H71.6658V46.3408V42.6867L69.1657 34.3692L66.6656 26.0516V22.6861V19.3206L63.3843 13.57C61.5795 10.4072 59.8836 7.55856 59.6156 7.2398L59.1283 6.65999H48.3132C37.7758 6.65999 37.4875 6.67062 37.0814 7.07667ZM11.664 9.99343V11.6601H9.99726H8.33054V9.99343V8.32671H9.99726H11.664V9.99343ZM42.2772 10.2539C42.2701 10.3972 42.0591 10.946 41.8084 11.4737C41.3651 12.406 41.3334 12.4279 40.6753 12.2489C40.0269 12.0727 39.9982 12.021 39.9982 11.0291V9.99343H41.144C41.9286 9.99343 42.2859 10.0755 42.2772 10.2539ZM59.5554 14.0554C60.8305 16.2895 61.8738 18.1645 61.8738 18.2222C61.8738 18.2799 60.4663 18.327 58.746 18.327H55.618L50.0479 16.9436C46.9842 16.183 44.4023 15.4938 44.3106 15.4121C44.2187 15.3307 44.5333 14.289 45.0098 13.0975C45.486 11.9058 45.9573 10.7199 46.0569 10.4622L46.2379 9.99343H51.7375H57.2368L59.5554 14.0554ZM15.1057 18.8035C14.6409 19.0668 14.0705 19.6373 13.8072 20.1021C13.354 20.9023 13.3374 21.1181 13.334 26.2718L13.3307 31.6122L12.0286 31.698C9.43703 31.8689 6.98571 33.5539 5.78609 35.9896L5.10127 37.3799L5.04065 43.6872L4.97981 49.9946H6.63778H8.29575L8.36512 44.3111C8.43388 38.6895 8.44054 38.6164 8.96702 37.5941C9.62516 36.3161 10.7754 35.4825 12.2652 35.204C13.7376 34.9288 29.591 34.9288 31.0633 35.204C32.5534 35.4825 33.7036 36.3161 34.3615 37.5943C34.8799 38.601 34.8957 38.7543 34.9655 43.478L35.037 48.3279H36.6939H38.3508L38.2892 42.8538L38.2273 37.3795L37.5502 36.0051C36.3343 33.5369 33.9161 31.8706 31.3 31.698L29.9979 31.6122L29.9945 26.2718C29.9912 21.1181 29.9745 20.9023 29.5214 20.1021C29.2581 19.6373 28.6876 19.0668 28.2228 18.8035C27.418 18.3476 27.2247 18.3339 21.6643 18.3339C16.1039 18.3339 15.9106 18.3476 15.1057 18.8035ZM48.152 20.1019L50.5764 20.6931L46.9213 24.8749C44.911 27.1748 43.162 29.1721 43.0345 29.3134C42.8585 29.5088 42.6039 29.5165 41.9734 29.3461C41.5172 29.2228 41.0686 29.0507 40.9765 28.9634C40.8842 28.8761 41.5755 27.08 42.5122 24.9722C43.4491 22.8642 44.3929 20.7306 44.6098 20.2306C44.9004 19.56 45.0987 19.3464 45.3656 19.416C45.5646 19.4681 46.8186 19.7766 48.152 20.1019ZM26.4144 21.9105C26.5942 22.0903 26.6644 23.4938 26.6644 26.9106V31.6608H21.6643H16.6641V26.9106C16.6641 23.4938 16.7343 22.0903 16.9141 21.9105C17.2683 21.5563 26.0602 21.5563 26.4144 21.9105ZM63.3322 23.3272V24.9939H59.9988H56.6653V23.3272V21.6605H59.9988H63.3322V23.3272ZM91.6664 24.9939V26.6606H89.9997H88.333V28.3273V29.994H89.9997H91.6664V31.6608V33.3275H93.3331H94.9998V31.6608V29.994H96.6666H98.3333V28.3273V26.6606H96.6666H94.9998V24.9939V23.3272H93.3331H91.6664V24.9939ZM94.9998 28.3273V29.994H93.3331H91.6664V28.3273V26.6606H93.3331H94.9998V28.3273ZM13.439 40.4708C12.9742 40.7342 12.4038 41.3046 12.1404 41.7694C11.7023 42.5428 11.6706 42.8473 11.6673 46.2966L11.664 49.9946H13.3307H14.9974V46.9112C14.9974 44.7907 15.0755 43.7497 15.2474 43.5778C15.6045 43.2207 27.724 43.2207 28.0811 43.5778C28.253 43.7497 28.3311 44.7907 28.3311 46.9112V49.9946H29.9979H31.6646L31.6612 46.2966C31.6579 42.8473 31.6262 42.5428 31.1881 41.7694C30.9248 41.3046 30.3543 40.7342 29.8895 40.4708C29.0722 40.0079 28.9539 40.0012 21.6643 40.0012C14.3747 40.0012 14.2563 40.0079 13.439 40.4708ZM53.3319 60.8283V66.6618H40.8315H28.3311V60.8283V54.9948H40.8315H53.3319V60.8283ZM24.9977 58.3376V60.0139L15.0495 59.9523C6.18256 59.8975 5.04815 59.8533 4.61334 59.5454C3.90145 59.041 3.60956 58.543 3.44227 57.547L3.29372 56.6615H14.1457H24.9977V58.3376ZM74.9992 58.3282V59.995H65.8323H56.6653V58.3282V56.6615H65.8323H74.9992V58.3282ZM53.3319 71.662V73.3287H40.8315H28.3311V71.662V69.9953H40.8315H53.3319V71.662ZM91.6647 76.5555C94.0719 80.1637 96.0415 83.1638 96.0415 83.2223C96.0415 83.2811 88.8226 83.329 79.9994 83.329C71.1762 83.329 63.9572 83.2811 63.9572 83.2223C63.9572 83.1638 65.9269 80.1637 68.334 76.5555L72.7108 69.9953H79.9994H87.2879L91.6647 76.5555ZM73.3325 76.6621V78.3288H74.9992H76.666V76.6621V74.9954H74.9992H73.3325V76.6621ZM83.3328 76.6621V78.3288H84.9995H86.6663V76.6621V74.9954H84.9995H83.3328V76.6621ZM14.1411 80.5308C16.2999 81.2216 18.1473 82.8613 19.1309 84.9593C19.6207 86.0043 19.6851 86.3958 19.6851 88.3292C19.6851 90.2665 19.6211 90.653 19.1267 91.708C17.1596 95.905 12.1694 97.6803 8.04553 95.65C6.44319 94.8612 4.96148 93.3403 4.22208 91.7253C1.29595 85.3339 7.44926 78.3895 14.1411 80.5308ZM9.46474 83.7219C8.47263 84.1726 7.19196 85.5891 6.85591 86.6076C6.72549 87.0024 6.65528 87.9691 6.69986 88.7558C6.79466 90.4342 7.4426 91.5509 8.92722 92.5943C9.76225 93.1812 9.9533 93.2251 11.664 93.2251C13.3747 93.2251 13.5657 93.1812 14.4007 92.5943C15.8854 91.5509 16.5333 90.4342 16.6281 88.7558C16.7268 87.0081 16.4656 86.1591 15.4716 84.9978C14.458 83.8134 13.3674 83.3382 11.664 83.3382C10.7931 83.3382 10.0081 83.475 9.46474 83.7219ZM12.7578 87.2472C13.2244 87.6481 13.2359 88.9 12.7775 89.4065C12.3417 89.8882 11.1015 89.9088 10.5866 89.4427C10.0868 88.9904 10.0771 87.6743 10.5702 87.237C11.2456 86.6383 12.0529 86.642 12.7578 87.2472ZM96.6666 91.6626V96.6627H93.3331H89.9997V93.3293V89.9959H88.333H86.6663V93.3293V96.6627H84.1662H81.6661V93.3293V89.9959H79.9994H78.3327V93.3293V96.6627H75.8326H73.3325V93.3293V89.9959H71.6658H69.9991V93.3293V96.6627H66.6656H63.3322V91.6626V86.6624H79.9994H96.6666V91.6626Z" fill="#F7C02D"/>
</g>
</svg>
