<svg width="40" height="40" viewBox="0 0 40 40" fill="none" xmlns="http://www.w3.org/2000/svg">
<circle cx="20" cy="20" r="20" fill="#F6F7F8"/>
<mask id="mask0_801_7525" style="mask-type:alpha" maskUnits="userSpaceOnUse" x="10" y="10" width="20" height="20">
<path d="M10 10H30V30H10V10Z" fill="white"/>
</mask>
<g mask="url(#mask0_801_7525)">
<path d="M15 22.5C16.3807 22.5 17.5 21.3807 17.5 20C17.5 18.6193 16.3807 17.5 15 17.5C13.6193 17.5 12.5 18.6193 12.5 20C12.5 21.3807 13.6193 22.5 15 22.5Z" stroke="#1239AC" stroke-width="2" stroke-linecap="round" stroke-linejoin="round"/>
<path d="M25 17.5C26.3807 17.5 27.5 16.3807 27.5 15C27.5 13.6193 26.3807 12.5 25 12.5C23.6193 12.5 22.5 13.6193 22.5 15C22.5 16.3807 23.6193 17.5 25 17.5Z" stroke="#1239AC" stroke-width="2" stroke-linecap="round" stroke-linejoin="round"/>
<path d="M25 27.5C26.3807 27.5 27.5 26.3807 27.5 25C27.5 23.6193 26.3807 22.5 25 22.5C23.6193 22.5 22.5 23.6193 22.5 25C22.5 26.3807 23.6193 27.5 25 27.5Z" stroke="#1239AC" stroke-width="2" stroke-linecap="round" stroke-linejoin="round"/>
<path d="M17.25 18.9166L22.75 16.0833" stroke="#1239AC" stroke-width="2" stroke-linecap="round" stroke-linejoin="round"/>
<path d="M17.25 21.0833L22.75 23.9166" stroke="#1239AC" stroke-width="2" stroke-linecap="round" stroke-linejoin="round"/>
</g>
</svg>
