<svg width="100" height="100" viewBox="0 0 100 100" fill="none" xmlns="http://www.w3.org/2000/svg">
<mask id="mask0_801_26827" style="mask-type:alpha" maskUnits="userSpaceOnUse" x="0" y="0" width="100" height="100">
<rect width="100" height="100" fill="white"/>
</mask>
<g mask="url(#mask0_801_26827)">
<path fill-rule="evenodd" clip-rule="evenodd" d="M48.9018 6.20653C48.0885 6.57411 47.4789 7.42783 46.4767 9.60226C45.8808 10.8956 45.5256 11.4396 45.2332 11.507C45.008 11.5589 43.9611 11.7273 42.9068 11.8814C40.6591 12.2095 39.7214 12.6372 39.2265 13.5603C38.446 15.0154 38.7739 15.8476 41.0372 18.1554L42.8001 19.9531L42.4294 22.1688C41.8814 25.445 42.2412 26.6954 43.8886 27.2391C44.8363 27.5518 45.6636 27.3393 47.9867 26.1866L50.026 25.1746L52.0481 26.2313C54.3381 27.4278 55.3502 27.5723 56.4909 26.8661C57.8479 26.0258 58.046 25.0319 57.4975 21.8151L57.1831 19.9695L58.954 18.1637C59.928 17.1703 60.8167 16.1166 60.9288 15.8218C61.4214 14.5259 60.9161 13.0744 59.7651 12.4792C59.4333 12.3076 58.1022 12.0206 56.8073 11.8417L54.4528 11.5163L53.3084 9.23351C52.0676 6.75849 51.4881 6.15087 50.2346 6.01141C49.8367 5.96727 49.2371 6.05516 48.9018 6.20653ZM51.0738 11.7613C52.282 14.0968 52.6942 14.4052 55.0276 14.7203C57.7354 15.0857 57.6688 14.9539 56.0022 16.6504C55.1954 17.4715 54.4375 18.3353 54.3182 18.5699C54.0198 19.1566 54.0465 20.4596 54.3942 22.2766C54.5553 23.1186 54.6871 23.8561 54.6871 23.9155C54.6871 23.9748 53.7576 23.5573 52.6215 22.9877C51.4856 22.418 50.3131 21.952 50.0164 21.952C49.7195 21.952 48.5719 22.3944 47.4662 22.9352C46.3603 23.476 45.4246 23.8873 45.3867 23.8494C45.3488 23.8117 45.4482 23.0397 45.6076 22.1338C45.9822 20.0057 45.9742 19.0285 45.5773 18.431C45.4007 18.1654 44.6431 17.3201 43.8935 16.5527C42.3417 14.9636 42.2705 15.0847 44.9716 14.7203C47.3318 14.4015 47.7193 14.1039 48.9254 11.682C49.4625 10.6034 49.9459 9.75539 49.9996 9.79718C50.0533 9.83918 50.5367 10.723 51.0738 11.7613ZM27.4067 14.0636C26.5067 14.5074 26.1951 14.9173 24.9994 17.2302L23.9252 19.3084L21.6355 19.6459C18.323 20.1342 17.3822 20.7625 17.3822 22.486C17.3822 23.7768 17.8431 24.5379 19.6367 26.2084L21.2529 27.7137L20.8675 29.9598C20.6556 31.1952 20.5341 32.4827 20.5974 32.821C20.84 34.1142 22.0717 35.0646 23.534 35.0866C24.1766 35.0962 24.8186 34.8575 26.3998 34.0206L28.4377 32.9419L30.3735 33.9798C31.4381 34.5507 32.6403 35.0737 33.0448 35.1419C34.6036 35.4054 35.9858 34.3841 36.2349 32.7853C36.306 32.3286 36.1983 31.1419 35.9725 29.8946L35.5897 27.7786L37.2108 26.2223C38.9609 24.5422 39.4527 23.7574 39.4527 22.6451C39.4527 20.8369 38.4474 20.1248 35.2237 19.6496L32.9096 19.3084L31.8354 17.2302C30.6204 14.8796 30.2442 14.3925 29.3514 14.0148C28.5496 13.6753 28.1744 13.6849 27.4067 14.0636ZM70.7935 14.0765C69.981 14.2382 69.2623 15.0931 68.1906 17.1722L67.0896 19.3084L64.7999 19.6459C62.3659 20.0047 61.7079 20.2453 60.9534 21.0529C60.3739 21.6733 60.3198 22.8961 60.8272 23.9051C61.0165 24.2811 61.9067 25.2918 62.8058 26.1512L64.4405 27.7137L64.0224 30.0969C63.6747 32.0774 63.6429 32.6093 63.8329 33.2438C64.2923 34.7773 65.6855 35.5013 67.3117 35.0517C67.7267 34.937 68.8572 34.4132 69.824 33.888L71.5818 32.9329L73.5857 34.0017C75.7748 35.1693 76.7686 35.3454 77.8904 34.7651C78.5891 34.404 79.2569 33.6046 79.4274 32.9257C79.4944 32.6581 79.3889 31.3934 79.193 30.1155L78.8366 27.7919L80.4247 26.1903C81.9245 24.6776 82.7981 23.3141 82.8081 22.4697C82.8104 22.2711 82.6684 21.8053 82.4924 21.4346C82.0299 20.4598 80.9754 20.0033 78.3266 19.6314L76.074 19.3152L75.084 17.3146C74.5394 16.2142 73.8867 15.0935 73.6336 14.824C72.9875 14.1363 71.9133 13.8535 70.7935 14.0765ZM30.8176 21.6254C31.3016 22.0842 31.7108 22.227 33.2292 22.4668C36.3423 22.9584 36.2196 22.7121 34.319 24.6541C32.3266 26.6903 32.268 26.8856 32.7757 29.7997L33.1391 31.8854L31.117 30.8251C29.8133 30.1413 28.8573 29.7645 28.426 29.7645C27.9942 29.7645 27.0354 30.143 25.7203 30.8327L23.6838 31.9009L24.0602 29.8073C24.582 26.9057 24.5217 26.704 22.5158 24.6541C20.6172 22.7139 20.5015 22.9567 23.5535 22.4756C24.5307 22.3215 25.5613 22.0442 25.8436 21.859C26.1518 21.6572 26.7688 20.7127 27.3871 19.4957L28.4174 17.4685L29.3262 19.2709C29.826 20.2621 30.4973 21.3217 30.8176 21.6254ZM72.5187 19.2664C73.7205 21.7787 74.1185 22.1074 76.3936 22.4668C79.5069 22.9586 79.3826 22.7127 77.4949 24.6477C76.2463 25.9276 75.8059 26.5186 75.7092 27.0446C75.602 27.6286 75.8434 29.5128 76.2766 31.4712C76.3645 31.8681 76.1848 31.8099 74.3203 30.8364C72.9869 30.1403 72.0306 29.7645 71.5922 29.7645C71.1586 29.7645 70.2441 30.1188 69.0341 30.7556C67.9984 31.3007 67.1064 31.7018 67.0519 31.6474C66.9972 31.5929 67.1033 30.6505 67.2876 29.5534C67.7415 26.8499 67.6259 26.5094 65.5773 24.5149C63.753 22.7391 63.628 22.9627 66.7179 22.4756C67.6951 22.3215 68.7257 22.0442 69.008 21.859C69.3167 21.6567 69.9318 20.7137 70.5515 19.4922C71.1181 18.3754 71.5982 17.4611 71.6181 17.4607C71.6383 17.4601 72.0435 18.2726 72.5187 19.2664ZM88.2813 31.3511C87.4024 31.7016 86.8897 32.3688 85.7384 34.6603L84.6032 36.9193L82.6823 37.1642C81.626 37.299 80.4217 37.5077 80.0065 37.6285C79.0393 37.9095 78.174 38.7759 78.0153 39.6228C77.7951 40.7962 78.2545 41.6519 80.1403 43.5812L81.9044 45.3861L81.5741 47.2922C81.3922 48.3406 81.245 49.5395 81.2467 49.9565C81.253 51.4737 82.4641 52.6157 84.1018 52.6485C84.8466 52.6635 85.3823 52.4743 87.0165 51.6186L89.0189 50.5702L91.3804 51.7167C93.4937 52.7428 93.8371 52.8526 94.6486 52.7612C95.3068 52.687 95.7131 52.5012 96.1308 52.0833C97.0181 51.1959 97.1199 50.3506 96.6636 47.6569L96.2703 45.3342L98.1351 43.4361L100 41.5381L99.9992 40.4853C99.9984 39.3285 99.5598 38.3955 98.7746 37.881C98.5201 37.7142 97.2228 37.4117 95.8918 37.2087C94.5607 37.0058 93.4396 36.7437 93.4005 36.6263C93.1236 35.7954 91.5587 32.8665 91.1031 32.3259C90.5706 31.6944 89.554 31.1177 89.0198 31.144C88.8821 31.1509 88.5497 31.244 88.2813 31.3511ZM9.37429 31.9468C8.87117 32.2849 8.38132 32.9974 7.51881 34.6454L6.34693 36.8847L4.19847 37.2087C1.61212 37.5986 1.192 37.7519 0.518952 38.5519C0.102347 39.0468 -0.000583459 39.3703 2.48275e-06 40.18C0.000979053 41.4797 0.421295 42.1715 2.2758 43.9248L3.72191 45.292L3.31585 47.6139C2.79436 50.5959 3.04807 51.8733 4.28968 52.5153C5.36665 53.0721 6.26431 52.8995 8.67839 51.6706L10.92 50.5293L12.8827 51.5852C15.4765 52.9801 16.6048 53.0231 17.9173 51.7772C18.7792 50.9588 18.8724 50.2215 18.4457 47.5953L18.0853 45.3781L19.763 43.675C21.6959 41.7127 21.907 41.3705 21.907 40.2003C21.907 38.3867 20.7132 37.5824 17.4158 37.174L15.3988 36.9242L14.3587 34.8579C13.0509 32.2599 12.4757 31.6815 11.0876 31.5702C10.244 31.5024 9.93445 31.5706 9.37429 31.9468ZM12.011 37.1521C13.2192 39.4876 13.6314 39.796 15.9648 40.1111C18.6787 40.4773 18.6189 40.3347 16.8191 42.1441C14.8638 44.1094 14.7407 44.4545 15.1404 46.8483C15.3025 47.8186 15.4779 48.8041 15.53 49.0387C15.6154 49.4213 15.4146 49.3561 13.5743 48.4039C12.2739 47.7311 11.2809 47.3428 10.8612 47.3428C10.4432 47.3428 9.50027 47.7094 8.30593 48.3362C7.2649 48.8824 6.36451 49.2809 6.30513 49.2215C6.24575 49.1623 6.34087 48.3291 6.51626 47.3701C6.69166 46.4111 6.83521 45.3939 6.83521 45.1098C6.83521 44.2185 6.14282 43.1816 4.67895 41.8808C3.04143 40.4254 2.99104 40.5009 5.89145 40.0611C7.10299 39.8775 7.97819 39.6332 8.33288 39.3798C8.67468 39.1357 9.25496 38.2329 9.85203 37.0169C10.3833 35.9349 10.8667 35.0978 10.9263 35.1569C10.9858 35.2159 11.4739 36.1138 12.011 37.1521ZM91.729 39.4449C92.1244 39.7089 92.9636 39.9419 94.0728 40.0953C96.8996 40.4863 96.8217 40.3146 94.9992 42.1371C93.0507 44.0855 92.9494 44.4142 93.4326 47.2215C93.615 48.2828 93.7289 49.1867 93.6855 49.2301C93.6419 49.2737 92.7017 48.8668 91.5958 48.326C90.4902 47.7852 89.338 47.3428 89.0359 47.3428C88.7335 47.3428 87.5612 47.8151 86.4306 48.3922C85.2999 48.9694 84.3751 49.4307 84.3751 49.4176C84.3753 49.4043 84.5071 48.6465 84.6678 47.7334C85.0157 45.7586 85.0401 44.5434 84.7438 43.9607C84.6245 43.7262 83.8667 42.8623 83.0598 42.0412C81.3932 40.3447 81.3266 40.4765 84.0344 40.1111C86.3995 39.7918 86.7727 39.5035 88.0657 36.9966L89.12 34.953L90.1165 36.9933C90.8222 38.4376 91.2931 39.1535 91.729 39.4449ZM51.3668 35.7622C49.4264 36.0755 48.0685 36.9962 47.3347 38.496C46.8474 39.4917 46.7738 39.9066 46.6498 42.3543C46.3804 47.6676 45.0627 50.0297 40.3316 53.6801C39.3648 54.4262 37.5958 55.8018 36.4005 56.737L34.2272 58.4376L34.1372 56.8823C33.9884 54.3112 34.5534 54.4823 25.9897 54.4161L18.7871 54.3604L18.231 54.8387L17.6751 55.3169V63.2386V71.1602L18.1103 71.5953C18.7125 72.1977 19.8429 72.1895 20.3371 71.5791C20.6785 71.1574 20.7025 70.6805 20.7025 64.3134V57.4991H25.8783H31.0542V74.2961V91.0931H25.8783H20.7025V83.6929C20.7025 76.7534 20.6797 76.2645 20.3371 75.8413C19.8429 75.2309 18.7125 75.2227 18.1103 75.825L17.6751 76.2602V84.7454V93.2306L18.1199 93.6756C18.5644 94.1203 18.5669 94.1205 25.767 94.1762L32.9696 94.2318L33.4911 93.7834C33.9214 93.4131 34.0321 93.1189 34.1245 92.0984L34.2366 90.8621L35.0942 90.9908C36.4364 91.192 37.9905 91.7904 39.1234 92.5424C41.4867 94.1111 41.498 94.1133 47.3088 94.1834L52.5281 94.2465L53.0217 93.7529C53.6514 93.1232 53.6903 92.0935 53.1047 91.5629C52.7299 91.2232 52.2572 91.1824 47.6717 91.0931L42.6492 90.9955L41.0021 89.9849C39.1948 88.8763 37.0413 88.0749 35.3022 87.864L34.1792 87.7279V75.2623V62.7968L35.8882 61.2665C36.8282 60.4251 38.8716 58.7774 40.4292 57.6052C44.2982 54.6934 46.9267 52.035 48.0109 49.9379C49.1338 47.7654 49.6051 45.8285 49.7467 42.8053C49.8354 40.9082 49.9463 40.1814 50.2141 39.741C50.8807 38.6449 52.6153 38.5984 53.5518 39.6515C53.9203 40.066 54.5467 42.1986 54.9846 44.5303C55.208 45.7203 55.3883 46.1738 55.7729 46.5127C56.3942 47.0604 57.0215 47.0717 57.6881 46.5473C58.3282 46.0439 58.3559 45.241 57.8171 42.8047C57.1092 39.6033 56.6887 38.4683 55.8629 37.5302C54.7276 36.2405 52.8869 35.5167 51.3668 35.7622ZM55.9202 50.712C55.6332 51.0291 55.4362 51.7254 55.212 53.2141C55.0411 54.3485 54.6657 55.9745 54.3778 56.8274C53.9364 58.1347 53.8344 58.853 53.7278 61.4054C53.6143 64.1207 53.5479 64.5482 53.0821 65.5531C52.0127 67.8605 49.7521 69.4541 47.0715 69.7908C45.4382 69.9959 44.9214 70.3818 44.9214 71.3969C44.9214 72.2899 45.6877 72.9289 46.7584 72.9289C50.3645 72.9289 54.1762 70.501 55.7383 67.2092C56.5567 65.4847 56.8356 64.2056 56.8356 62.1771V60.6241H58.7659H60.6962L60.4065 61.4542C59.7389 63.3673 60.5503 66.1566 62.1956 67.6049L63.0413 68.3492L62.6278 69.1254C62.0245 70.2582 62.0325 72.8731 62.6429 74.0949C63.0087 74.8268 63.0339 74.9932 62.7997 75.1243C60.7513 76.2706 59.6968 79.2573 60.4389 81.8106C60.7038 82.7216 60.9948 83.1741 61.8931 84.0724L63.0161 85.1954L62.6308 85.9466C62.1009 86.9794 61.9722 89.041 62.3653 90.1951L62.6714 91.0931H60.2329C57.9044 91.0931 57.7727 91.1148 57.3151 91.5726C56.7331 92.1545 56.6891 93.0176 57.209 93.6594L57.5825 94.1205H65.8517H74.1209L75.1215 93.5926C76.3998 92.9183 77.6229 91.5289 78.0377 90.28C78.467 88.9874 78.3602 86.9767 77.8057 85.913L77.3961 85.1273L78.2772 84.361C79.5864 83.222 80.176 81.8225 80.1725 79.8626C80.1703 78.6635 80.0762 78.1253 79.768 77.5485L79.3662 76.7969L80.4893 75.6739C81.8483 74.3149 82.3325 72.9986 82.1786 71.0818C82.0403 69.3586 80.7344 67.109 79.6778 66.7734C79.3117 66.6574 79.3133 66.6316 79.7371 65.8363C80.3721 64.6447 80.3666 61.8669 79.7266 60.665C79.1573 59.5952 78.0348 58.4722 77.0442 57.981C76.3111 57.6175 75.7629 57.5938 66.8661 57.5425L57.4629 57.4884L57.7286 56.6061C58.1973 55.0485 58.6143 51.7204 58.4087 51.1791C58.0411 50.2125 56.6143 49.9448 55.9202 50.712ZM75.7734 60.9132C76.6809 61.3824 77.1483 62.1296 77.1483 63.1107C77.1483 64.2447 76.6652 65.0318 75.6748 65.5111C74.948 65.8629 74.4607 65.8976 70.2443 65.8976C65.1351 65.8976 64.7228 65.8232 63.8089 64.7373C62.8687 63.6199 63.2112 61.7995 64.5112 61.007C65.0886 60.6548 65.5222 60.6255 70.1755 60.6249C74.2435 60.6243 75.3223 60.6798 75.7734 60.9132ZM24.0338 63.5429C23.5221 64.0546 23.3853 64.9283 23.4664 67.1713C23.5316 68.974 23.5596 69.0785 24.1035 69.5461C24.5436 69.9244 24.8063 70.0086 25.2627 69.9172C26.4672 69.6764 26.5619 69.4309 26.5619 66.5509C26.5619 64.2048 26.5229 63.9054 26.1713 63.5539C25.6588 63.0413 24.541 63.0357 24.0338 63.5429ZM77.7526 69.3252C78.9776 69.9586 79.476 71.7461 78.7639 72.9518C78.5781 73.266 78.067 73.6971 77.6279 73.9096C76.9012 74.2614 76.4139 74.2961 72.1974 74.2961C67.0882 74.2961 66.6759 74.2217 65.762 73.1358C64.8218 72.0184 65.1644 70.198 66.4644 69.4055C67.0417 69.0533 67.4753 69.024 72.1287 69.0234C76.2971 69.0228 77.2688 69.075 77.7526 69.3252ZM75.7994 77.7237C77.6102 78.66 77.575 81.3806 75.74 82.3226C75.0852 82.6587 74.5514 82.6946 70.2002 82.6946C65.6745 82.6946 65.3411 82.67 64.6571 82.2856C63.7628 81.7829 63.281 81.0061 63.281 80.0669C63.281 79.1229 63.7437 78.2719 64.5112 77.804C65.0886 77.4518 65.5222 77.4225 70.1755 77.4219C74.3439 77.4213 75.3156 77.4735 75.7994 77.7237ZM73.8463 86.1222C75.6596 87.0597 75.6147 89.8929 73.7726 90.767C72.7105 91.2709 67.6499 91.2384 66.6423 90.7211C64.8462 89.799 64.7458 87.2501 66.4644 86.2025C67.0146 85.8667 67.4593 85.821 70.1755 85.8204C72.5806 85.8198 73.3904 85.8865 73.8463 86.1222Z" fill="#F7C02D"/>
</g>
</svg>
