<svg width="60" height="60" viewBox="0 0 60 60" fill="none" xmlns="http://www.w3.org/2000/svg">
<mask id="mask0_801_26474" style="mask-type:alpha" maskUnits="userSpaceOnUse" x="0" y="0" width="60" height="60">
<rect width="60" height="60" fill="white"/>
</mask>
<g mask="url(#mask0_801_26474)">
<path fill-rule="evenodd" clip-rule="evenodd" d="M44.967 0.217488C44.389 0.480094 43.6662 1.29605 43.5084 1.86452C43.434 2.1324 43.392 9.04399 43.3916 21.1188L43.3909 39.9553L42.9513 40.096C42.7096 40.1734 42.1464 40.4145 41.6999 40.6318C41.2534 40.849 40.8754 41.0141 40.8599 40.9984C40.8367 40.9749 41.1269 35.5027 41.1547 35.4403C41.1595 35.4293 41.3543 35.3025 41.5876 35.1583C42.2838 34.728 42.4474 34.2006 42.4505 32.3778C42.4527 31.0377 42.4196 30.7543 42.2139 30.351C41.9244 29.7835 41.3726 29.4234 40.792 29.4228L40.3617 29.4223L40.4832 28.9827C40.6633 28.3301 40.5115 27.2625 40.1419 26.5834C39.4746 25.3572 38.4094 24.8007 36.8483 24.8625L35.9465 24.8981L35.4567 24.4179C34.4939 23.474 32.8023 22.9798 31.6381 23.3026C31.295 23.3978 31.1985 23.3914 31.1985 23.2738C31.1985 23.191 31.0146 22.7554 30.7897 22.3061C30.0072 20.7419 28.4574 19.6217 26.6724 19.3302C25.0515 19.0655 23.2752 19.662 22.057 20.8801C21.4345 21.5027 20.6474 22.8221 20.6474 23.2431C20.6474 23.3961 20.5785 23.4055 20.2077 23.303C19.966 23.2363 19.4115 23.2071 18.9757 23.2383C17.4812 23.3452 16.1371 24.2713 15.482 25.6455C15.0551 26.5408 15.0364 28.1774 15.4408 29.2314C15.5016 29.3898 15.427 29.4225 15.0033 29.4228C14.3861 29.4233 13.8173 29.7433 13.4954 30.2712C13.2903 30.6077 13.2624 30.8634 13.2624 32.4118C13.2624 34.3966 13.3668 34.7257 14.1419 35.183C14.4082 35.3401 14.551 35.5126 14.5507 35.6767C14.5504 35.8154 14.6337 37.4505 14.7357 39.3101L14.9211 42.6913L13.5033 44.1373C11.937 45.7349 11.6268 46.2443 11.6228 47.2262C11.6164 48.8114 13.1419 50.06 14.6665 49.7175C14.9542 49.6529 15.21 49.6203 15.2349 49.6453C15.2598 49.6701 15.351 50.9993 15.4376 52.5989C15.5241 54.1984 15.6247 55.7973 15.6609 56.1519C15.8002 57.5125 16.8744 59.0006 18.181 59.6429L18.8302 59.962L36.943 59.9926C50.2383 60.015 55.1417 59.9878 55.3788 59.8902C55.8342 59.7027 56.3789 59.0427 56.4674 58.5708C56.7331 57.155 55.2809 46.6048 54.5791 44.8517C53.6822 42.6113 51.9685 40.9926 49.6644 40.2095L49.0768 40.0097L49.0182 28.0459C48.9616 16.4898 48.952 16.0737 48.7363 15.8354C48.4379 15.5056 47.701 15.4991 47.3769 15.8231C47.1456 16.0544 47.1424 16.2138 47.1424 27.8397V39.6218H46.2046H45.2667V24.733V9.84412H46.2046H47.1424V11.301C47.1424 12.7354 47.1473 12.7617 47.4514 13.0009C47.9695 13.4085 48.5666 13.3083 48.8467 12.7665C48.9894 12.4907 49.0177 11.6101 49.0154 7.53459C49.0136 4.62154 48.9638 2.42021 48.8923 2.10661C48.7171 1.33708 48.2803 0.751962 47.582 0.351487C47.0696 0.0576966 46.839 -0.00115534 46.2046 1.70136e-05C45.7173 0.000954893 45.2711 0.0793851 44.967 0.217488ZM46.9941 2.3494C47.0964 2.55035 47.1395 3.41953 47.1407 5.30126L47.1424 7.96836H46.2046H45.2667V5.17512C45.2667 2.42772 45.271 2.37801 45.5305 2.14202C45.6756 2.01001 45.8734 1.87589 45.9701 1.84412C46.252 1.75139 46.8368 2.0399 46.9941 2.3494ZM21.254 6.29776C21.122 6.41054 20.862 6.90152 20.6763 7.38875C20.0663 8.98783 19.1955 10.0567 17.9129 10.7806C16.6992 11.4655 16.7269 12.4478 17.9776 13.0816C19.1613 13.6813 20.1197 14.9769 20.9858 17.1481C21.0665 17.3502 21.278 17.5439 21.5359 17.6517C21.9176 17.8112 21.9929 17.808 22.3787 17.6163C22.7385 17.4375 22.8545 17.2729 23.1476 16.5265C23.8111 14.8368 24.7037 13.7459 26.0534 12.9755C27.1307 12.3604 27.0961 11.4212 25.9729 10.7873C24.6779 10.0564 23.8095 8.99299 23.1976 7.38875C22.8032 6.35462 22.5483 6.0926 21.9369 6.0926C21.6847 6.0926 21.3907 6.18088 21.254 6.29776ZM9.65834 9.40448C9.52399 9.5495 9.25095 10.0903 9.05154 10.6061C8.42515 12.2266 7.79958 13.2224 6.76768 14.2409C6.20202 14.7993 5.52159 15.3355 5.08735 15.5652C4.26085 16.0021 4 16.3031 4 16.8196C4 17.3384 4.25006 17.6223 5.14234 18.1169C6.08104 18.6371 7.5167 20.0482 8.08341 21.0077C8.29807 21.3712 8.65727 22.1076 8.88143 22.6439C9.62634 24.4263 9.58284 24.3579 10.0578 24.4891C10.4151 24.5878 10.5758 24.5725 10.9065 24.4081C11.2675 24.2287 11.3697 24.0637 11.796 22.972C12.6591 20.7616 14.0529 19.0052 15.5971 18.1821C16.5278 17.6861 16.7786 17.4101 16.7786 16.8822C16.7786 16.3039 16.5703 16.0539 15.6433 15.5203C13.9528 14.5471 12.498 12.6913 11.7195 10.5148C11.5056 9.91715 11.247 9.40847 11.107 9.31046C10.7238 9.04199 9.94733 9.09241 9.65834 9.40448ZM22.3511 9.91997C22.5268 10.2195 22.9974 10.7917 23.3972 11.1915L24.124 11.9182L23.4601 12.5616C23.0949 12.9154 22.616 13.5023 22.3958 13.8659C22.1756 14.2294 21.9692 14.5273 21.9369 14.5279C21.9047 14.5284 21.7201 14.2604 21.5266 13.9322C21.3332 13.604 20.8549 13.016 20.4638 12.6255L19.7527 11.9154L20.4781 11.1901C20.8771 10.7911 21.3471 10.2195 21.5228 9.91997C21.6984 9.62031 21.8848 9.37518 21.9369 9.37518C21.9891 9.37518 22.1755 9.62031 22.3511 9.91997ZM12.1264 15.0107C12.4766 15.4343 13.0807 16.0198 13.4689 16.3116L14.1748 16.8422L13.8522 17.0328C13.4475 17.2719 12.2393 18.4407 11.8203 18.9986C11.6465 19.2299 11.2472 19.8514 10.9332 20.3795L10.362 21.3399L10.2072 20.9663C9.7465 19.8541 8.2908 18.0286 7.26288 17.274L6.66803 16.8374L7.00461 16.596C8.10791 15.8047 9.31496 14.3831 9.99141 13.0784L10.3792 12.3304L10.9344 13.2854C11.2398 13.8106 11.7762 14.5871 12.1264 15.0107ZM27.5276 21.5731C27.9267 21.7677 28.3967 22.0967 28.5722 22.3041C29.0549 22.8747 29.4308 23.7904 29.5156 24.6015C29.5766 25.185 29.6495 25.3747 29.8834 25.5586C30.2794 25.8701 30.6455 25.847 31.2081 25.4747C31.8504 25.0496 32.7367 24.9762 33.4447 25.2893C33.9586 25.5167 34.2398 25.7996 34.7551 26.6072C35.139 27.209 35.5156 27.2996 36.2343 26.9629C37.2217 26.5005 37.9798 26.67 38.4791 27.465C38.7582 27.9093 38.7289 28.6237 38.4118 29.1077L38.2056 29.4223H28.1292C21.7218 29.4223 17.9741 29.3801 17.8365 29.3066C17.5338 29.1446 17.1634 28.5091 17.0328 27.9281C16.7117 26.4989 17.8562 25.0946 19.3483 25.0872C19.7108 25.0855 20.0536 25.1903 20.4896 25.4364C21.631 26.0806 22.1933 25.7943 22.3286 24.5002C22.4249 23.5788 22.771 22.8375 23.3963 22.213C24.5437 21.0671 26.0209 20.8383 27.5276 21.5731ZM40.5773 32.3437V33.5066L36.6206 33.5478C33.1383 33.5841 32.6077 33.6141 32.195 33.7977C31.5726 34.0747 31.0067 34.6321 30.6607 35.3091C30.0814 36.4425 29.287 37.0751 28.2491 37.2293L27.7401 37.3049L28.7025 36.3238C29.7756 35.2297 30.0273 34.7588 30.0236 33.8517C30.0171 32.2901 28.6884 31.1282 27.1501 31.339C26.368 31.4463 26.0002 31.6822 24.7901 32.8528C23.7113 33.8964 23.688 33.9113 23.3719 33.7525C23.1232 33.6276 22.1433 33.5816 19.0354 33.549L15.0201 33.5068V32.422C15.0201 31.8253 15.0553 31.302 15.0983 31.2591C15.1412 31.216 20.8916 31.1809 27.8769 31.1809H40.5773V32.3437ZM27.936 33.3679C28.4421 33.8259 28.3 34.0231 25.329 36.9849C23.7772 38.532 22.4285 39.9465 22.332 40.1286C21.9844 40.7842 22.4123 41.4975 23.1534 41.4975C23.4333 41.4975 23.7393 41.2584 24.8058 40.2062L26.1147 38.9149L27.0144 39.0547C29.2238 39.3982 31.238 38.351 32.2594 36.3278C32.5146 35.8221 32.6853 35.6309 32.9696 35.5318C33.2061 35.4493 34.4352 35.4013 36.3121 35.4013H39.2803L39.2168 36.3099C39.1818 36.8096 38.9265 41.4944 38.6494 46.7206C38.1045 56.9954 38.1517 56.584 37.4279 57.3644C37.2579 57.5475 36.9078 57.8113 36.6499 57.9505C36.1846 58.2015 36.1191 58.2038 28.29 58.2375C23.1762 58.2596 20.1643 58.2285 19.7319 58.1494C18.8254 57.9835 18.2068 57.5278 17.8098 56.7335C17.4962 56.1061 17.4855 56.0129 17.2732 52.0487L17.0567 48.0041L19.0865 45.9451C21.2233 43.7775 21.3286 43.6114 20.9286 43.0402C20.67 42.6709 20.2529 42.5306 19.856 42.6793C19.6788 42.7456 18.365 43.963 16.9369 45.3843C14.6537 47.6566 14.3068 47.9588 14.0646 47.8866C13.913 47.8415 13.7232 47.7206 13.6426 47.6181C13.232 47.0959 13.2171 47.1129 20.3261 40.004C27.4662 32.8638 27.4218 32.9026 27.936 33.3679ZM19.4741 38.1581L16.72 40.9149L16.6467 39.8873C16.6064 39.3221 16.5349 38.0817 16.488 37.1305L16.4025 35.4013H19.3153H22.2282L19.4741 38.1581ZM48.6204 41.8238C50.4521 42.4079 51.8291 43.518 52.5777 45.0141C52.8123 45.4831 53.0042 45.9388 53.0042 46.0268C53.0042 46.1601 51.9613 46.1869 46.7735 46.1869H40.5427L40.6189 44.9267L40.6951 43.6664L41.2295 43.172C41.8808 42.5693 42.9215 42.046 44.0943 41.7314C45.2369 41.4249 47.5153 41.4714 48.6204 41.8238ZM53.6911 49.7298C54.1173 52.4488 54.5083 55.7765 54.549 57.0312L54.5869 58.2035L53.2385 58.2363L51.8902 58.2691L51.6928 56.4778C51.4559 54.3273 50.9444 51.6243 50.7038 51.2521C50.4417 50.8464 50.021 50.7289 49.5444 50.928C48.9923 51.1586 48.9426 51.4815 49.2401 52.9043C49.5325 54.3022 49.9516 57.1887 49.9542 57.8225L49.9561 58.2621H48.5493H47.1424V54.8782C47.1424 51.6807 47.1297 51.4779 46.9099 51.1984C46.782 51.0358 46.5441 50.8693 46.3812 50.8284C46.0407 50.7429 45.4492 51.0061 45.3395 51.2919C45.2995 51.3963 45.2667 53.0073 45.2667 54.8719V58.2621H43.7928H42.3189L42.3933 57.588C42.5559 56.1132 42.8391 54.2677 43.0995 52.9866C43.3225 51.8891 43.3476 51.5841 43.2345 51.3463C42.9422 50.7313 42.0368 50.6255 41.6833 51.1649C41.3823 51.6241 40.8347 54.6376 40.516 57.588L40.4432 58.2621H39.8108H39.1783L39.4046 57.8787C39.9298 56.9886 39.9953 56.5479 40.2289 52.3422C40.3542 50.0852 40.4575 48.199 40.4584 48.1506C40.4592 48.1022 43.3783 48.0627 46.9449 48.0627H53.4298L53.6911 49.7298Z" fill="white"/>
</g>
</svg>
