<svg width="60" height="60" viewBox="0 0 60 60" fill="none" xmlns="http://www.w3.org/2000/svg">
<mask id="mask0_801_26441" style="mask-type:alpha" maskUnits="userSpaceOnUse" x="0" y="-1" width="60" height="61">
<rect y="-0.000976562" width="60" height="60" fill="white"/>
</mask>
<g mask="url(#mask0_801_26441)">
<path fill-rule="evenodd" clip-rule="evenodd" d="M49.2942 0.26959C49.1141 0.449741 48.9971 0.747803 48.9413 1.16835C48.7248 2.7999 47.8212 3.71249 46.1601 3.97738C45.2832 4.11721 45.0032 4.37449 45.0032 5.04012C45.0032 5.71934 45.2979 5.99279 46.1566 6.11024C47.7848 6.33293 48.7245 7.27846 48.9413 8.91189C49.0452 9.69543 49.3848 10.0801 49.9727 10.0801C50.6232 10.0801 50.972 9.69297 51.092 8.83781C51.3164 7.23978 52.2219 6.32778 53.7979 6.11223C54.6948 5.98951 55.0193 5.70481 55.0193 5.04012C55.0193 4.37542 54.6948 4.09072 53.7979 3.96801C52.2219 3.75246 51.3164 2.84045 51.092 1.24243C51.0149 0.692832 50.9212 0.466619 50.6867 0.263847C50.2772 -0.0902416 49.6514 -0.0875458 49.2942 0.26959ZM24.8432 3.15059C23.7479 3.50948 22.8035 4.36265 22.3137 5.43593C21.5569 7.09432 22.1311 9.23808 23.6184 10.3062C24.3708 10.8465 25.0158 11.0454 26.0153 11.0454C27.0147 11.0454 27.6597 10.8465 28.4122 10.3062C29.8995 9.23808 30.4737 7.09432 29.7169 5.43593C29.3349 4.59906 28.6185 3.83533 27.832 3.4265C27.3511 3.17649 27.0568 3.11578 26.1911 3.08823C25.6109 3.06972 25.0044 3.09785 24.8432 3.15059ZM50.4692 5.49278L50.0327 5.93981L49.582 5.48915L49.1314 5.03848L49.5579 4.59718L49.9845 4.15589L50.4452 4.60082L50.9057 5.04574L50.4692 5.49278ZM35.9781 6.095V7.14988H37.0329H38.0878V6.095V5.04012H37.0329H35.9781V6.095ZM26.9164 5.35142C28.0947 5.91063 28.2747 7.72632 27.233 8.54561C26.5292 9.0993 25.5013 9.0993 24.7976 8.54561C23.7642 7.73276 23.9325 5.92903 25.0951 5.35611C25.6009 5.10693 26.3968 5.10493 26.9164 5.35142ZM12.2432 10.0769C6.03828 10.9657 1.21313 15.549 0.167039 21.5474C-0.0590569 22.8441 -0.0549546 25.3806 0.175244 26.5939C1.23364 32.1733 5.44239 36.5057 11.0125 37.7495C13.1821 38.234 15.93 38.1336 17.9992 37.4946C18.4236 37.3635 18.7977 37.2829 18.8304 37.3155C18.8629 37.3482 19.1133 37.9314 19.3868 38.6116L19.8838 39.8483L19.5798 40.0455C17.7556 41.2295 16.1479 43.5162 15.3903 46.0047C15.0955 46.9728 15.0692 47.2185 15.0703 48.9935C15.0712 50.6044 15.1131 51.0782 15.3211 51.8298C16.4933 56.0637 19.9584 59.2176 24.1873 59.8997C25.4438 60.1024 27.8239 59.9848 28.9455 59.6646C32.4163 58.6736 35.234 56.0631 36.3966 52.7616L36.6587 52.0169L39.1021 51.9893C41.7713 51.9589 42.7786 51.8234 44.8859 51.211C52.445 49.014 58.1037 42.8403 59.6619 35.0901C59.9845 33.4861 60.1027 30.0756 59.8934 28.4131C58.9951 21.276 54.5189 15.0936 48.0247 12.0199C42.3028 9.31192 35.7398 9.31579 30.004 12.0306C28.6312 12.6804 26.4795 14.0465 25.5634 14.85L25.053 15.2978L23.9879 14.2118C21.9447 12.1283 19.5903 10.8512 16.6972 10.257C15.5898 10.0296 13.2376 9.93442 12.2432 10.0769ZM16.6972 12.4187C18.5373 12.8666 20.0369 13.6044 21.5003 14.7816C22.2986 15.4238 23.4367 16.6139 23.4367 16.8065C23.4367 16.8499 23.1576 17.2142 22.8166 17.6162C19.0499 22.0564 17.3001 28.3559 18.2194 34.1666C18.3275 34.8501 18.3325 35.1266 18.2375 35.1868C17.992 35.3424 16.3449 35.7439 15.4079 35.8767C14.8781 35.9517 13.9806 35.9784 13.3445 35.9383C7.02905 35.5394 2.10462 30.3213 2.10462 24.028C2.10462 18.0959 6.53653 13.0236 12.4483 12.1895C13.5054 12.0404 15.6096 12.1539 16.6972 12.4187ZM42.1315 12.3623C48.1948 13.4121 53.4852 17.4016 56.0764 22.8779C57.3003 25.4647 57.7731 27.4783 57.8599 30.4745C57.9141 32.3413 57.8883 32.845 57.6745 34.0966C56.3451 41.8802 50.4064 48.0165 42.6767 49.5933C41.4704 49.8394 38.1955 50.0215 37.4595 49.8834L37.0329 49.8033V48.8228C37.0329 44.4652 34.2423 40.4157 30.0966 38.7571C27.7843 37.8321 25.0405 37.7411 22.6214 38.5093C22.1406 38.6619 21.7379 38.7758 21.7265 38.7623C21.7151 38.7487 21.5094 38.2106 21.2694 37.5666C18.9361 31.3049 20.1287 24.2053 24.3806 19.0466C27.5604 15.1885 31.9326 12.8206 37.0329 12.1942C38.2073 12.05 40.8265 12.1364 42.1315 12.3623ZM11.8916 14.1219C6.98509 15.0354 3.98266 19.1397 3.98044 24.9364L3.97997 26.1378H4.31437C4.49838 26.1378 4.9657 26.1046 5.35307 26.0641L6.05726 25.9905L6.12536 24.5111C6.28043 21.1383 7.45018 18.6857 9.57694 17.2741C10.4716 16.6802 11.9066 16.2028 13.093 16.1043L14.0599 16.024V14.986V13.948L13.386 13.9586C13.0154 13.9644 12.3428 14.0379 11.8916 14.1219ZM39.9632 14.9934V16.0409L40.6371 16.1191C46.6607 16.8182 51.119 20.4364 53.0324 26.1787C53.4175 27.3341 53.911 29.485 53.911 30.0074C53.911 30.2153 53.9623 30.2533 54.1748 30.203C54.3199 30.1687 54.7946 30.1041 55.2296 30.0595C56.1591 29.9642 56.1234 30.0798 55.7777 28.2891C55.059 24.5646 53.4794 21.3936 51.1436 18.9865C49.7867 17.5881 48.4108 16.5891 46.7027 15.7621C44.748 14.8155 42.752 14.2414 40.6371 14.0174L39.9632 13.946V14.9934ZM35.565 18.094C35.1813 18.2641 34.9232 18.7029 34.9232 19.185C34.9232 19.7745 34.6385 20.4251 34.1359 20.9841C33.5947 21.5859 33.0457 21.8504 32.0724 21.9781C31.1487 22.0994 30.732 22.7492 31.0929 23.5059C31.2831 23.905 31.7841 24.1397 32.4618 24.1471C33.5849 24.1595 34.9232 25.6506 34.9232 26.8898C34.9232 27.9278 36.1611 28.488 36.7874 27.7334C36.8727 27.6306 37.0152 27.1637 37.1041 26.6957C37.3858 25.2118 38.2527 24.3697 39.7354 24.1395C40.63 24.0004 41.018 23.6653 41.018 23.0317C41.018 22.4099 40.6327 22.0794 39.7331 21.9298C38.2368 21.6811 37.3851 20.8474 37.1014 19.3536C36.8727 18.1496 36.3699 17.7374 35.565 18.094ZM36.4855 23.4625L36.0546 23.9037L35.5768 23.4681L35.099 23.0325L35.5678 22.5992L36.0367 22.166L36.4764 22.5936L36.9163 23.0213L36.4855 23.4625ZM11.9502 27.0754V28.1303H13.0051H14.0599V27.0754V26.0205H13.0051H11.9502V27.0754ZM47.4368 27.1417C47.2602 27.2374 47.0912 27.4331 47.0612 27.5765C47.0311 27.72 46.9513 28.1168 46.8839 28.4585C46.7182 29.2981 46.5125 29.6608 45.8931 30.206C45.3649 30.6709 44.7151 30.9433 44.1339 30.9433C43.7381 30.9433 43.179 31.2267 43.0834 31.476C42.8027 32.2077 43.2535 33.0531 43.9244 33.0531C44.4572 33.0531 45.3275 33.3561 45.7749 33.6974C46.3988 34.1731 46.7384 34.78 46.9208 35.7444C47.111 36.7509 47.3603 37.0382 48.0431 37.0382C48.6575 37.0382 48.9449 36.6903 49.0935 35.7673C49.1593 35.3585 49.3517 34.7873 49.5212 34.4983C49.979 33.717 51.1363 33.0557 52.0492 33.0538C52.4476 33.0529 52.9261 32.6712 53.0255 32.2751C53.1992 31.5832 52.6015 30.9446 51.7778 30.9422C50.5768 30.9386 49.1055 29.5312 49.1055 28.3859C49.1055 27.8213 48.8653 27.3129 48.5125 27.1305C48.0984 26.9164 47.8472 26.919 47.4368 27.1417ZM48.4393 32.4891L48.0024 32.9365L47.5612 32.5056L47.1199 32.0747L47.556 31.597L47.992 31.1191L48.4341 31.5805L48.8761 32.0417L48.4393 32.4891ZM27.749 40.2713C31.9759 41.14 34.9153 44.7392 34.9204 49.0521C34.9247 52.846 32.4736 56.2174 28.7697 57.5125C27.8995 57.8168 27.7013 57.8405 26.0153 57.8416C24.2743 57.8428 24.1558 57.8275 23.1717 57.4754C21.8369 56.9979 21.025 56.5023 19.9673 55.5196C18.0943 53.7793 17.1074 51.5453 17.1102 49.0521C17.1168 43.3935 22.2651 39.1442 27.749 40.2713ZM11.9749 42.0489L12.0088 43.0745L13.0344 43.1083L14.0599 43.1422V42.0828V41.0233H13.0005H11.941L11.9749 42.0489ZM39.9632 43.0159V44.0707H41.018H42.0729V43.0159V41.961H41.018H39.9632V43.0159ZM7.47221 44.1292C7.15669 44.3062 6.91219 44.8822 6.9109 45.4517C6.90984 45.8722 6.58119 46.5543 6.17166 46.986C5.71513 47.4673 4.76269 47.9359 4.23783 47.9375C3.41244 47.9399 2.86906 48.5301 3.01053 49.2704C3.0859 49.6647 3.5613 50.0484 3.97446 50.0484C4.55558 50.0484 5.45153 50.3915 5.92201 50.7942C6.45402 51.2496 6.86226 52.071 6.9715 52.9055C7.06643 53.6315 7.43717 54.0335 8.01184 54.0335C8.65837 54.0335 8.99148 53.6519 9.13142 52.7509C9.3526 51.3265 10.2177 50.3936 11.54 50.154C12.4585 49.9875 12.7953 49.8175 12.9837 49.4254C13.3245 48.7168 12.7116 47.9402 11.8095 47.9375C11.2222 47.9357 10.288 47.4434 9.80807 46.8827C9.34979 46.3473 9.20046 45.9811 9.08161 45.1014C9.04059 44.7979 8.91775 44.4403 8.8084 44.3067C8.54831 43.9885 7.88104 43.8999 7.47221 44.1292ZM8.47365 49.4817L8.03411 49.9318L7.59294 49.5009L7.15165 49.0701L7.5838 48.5923L8.01595 48.1145L8.46451 48.573L8.91318 49.0315L8.47365 49.4817ZM54.6164 49.3108C52.8485 50.2391 52.4095 52.5076 53.7116 53.9868C54.5591 54.9496 55.6708 55.2749 56.8964 54.9187C58.6526 54.4081 59.5644 52.2962 58.7324 50.6655C58.2046 49.6308 57.3256 49.0848 56.0794 49.0177C55.3544 48.9786 55.1842 49.0127 54.6164 49.3108ZM56.5715 51.2792C56.8795 51.495 57.0192 52.0602 56.8449 52.3857C56.5136 53.0049 55.8056 53.1151 55.3146 52.6241C54.5681 51.8776 55.6987 50.6679 56.5715 51.2792ZM1.98741 56.0261V57.081H3.0423H4.09718V56.0261V54.9712H3.0423H1.98741V56.0261ZM45.9408 56.0261V57.081H46.9957H48.0506V56.0261V54.9712H46.9957H45.9408V56.0261Z" fill="white"/>
</g>
</svg>
