<svg width="100" height="100" viewBox="0 0 100 100" fill="none" xmlns="http://www.w3.org/2000/svg">
<mask id="mask0_801_26845" style="mask-type:alpha" maskUnits="userSpaceOnUse" x="0" y="0" width="100" height="100">
<rect width="100" height="100" fill="white"/>
</mask>
<g mask="url(#mask0_801_26845)">
<path fill-rule="evenodd" clip-rule="evenodd" d="M65.07 0.393726C61.1129 1.23482 57.99 2.95784 54.9955 5.95236C51.9676 8.98028 50.2624 12.0949 49.4263 16.1244C49.0869 17.7602 49.0614 19.0418 49.059 34.6093L49.0565 51.3364L47.9336 51.966C46.2289 52.9215 43.8417 55.4503 42.8643 57.3352C41.2298 60.4881 41.1915 60.7603 41.0985 69.8771L41.0163 77.9326H36.2484C32.4296 77.9326 31.4807 77.8813 31.4807 77.6749C31.4807 77.2618 30.218 75.9022 29.4507 75.489L28.7467 75.1098V68.4169C28.7467 61.9842 28.7314 61.7086 28.3561 61.3333C28.0958 61.073 27.7052 60.9427 27.1844 60.9427C26.6636 60.9427 26.273 61.073 26.0127 61.3333C25.6377 61.7082 25.6221 61.9842 25.6221 68.2659V74.808H24.0598H22.4975V62.4073V50.0067H24.0598H25.6221V53.5218C25.6221 56.7767 25.651 57.0659 26.0127 57.4275C26.5427 57.9576 27.8261 57.9576 28.3561 57.4275C28.7184 57.0653 28.7467 56.7767 28.7467 53.4333V49.8297L29.429 49.5059C30.2351 49.1234 31.2262 48.0475 31.6027 47.1467C31.765 46.7581 31.8713 45.7873 31.8713 44.6913L31.8715 42.8787L38.1204 33.5049C45.5497 22.3607 45.2837 23.0653 42.7097 21.3519C39.0187 18.8946 34.4557 17.0595 29.6255 16.0895C26.9127 15.5446 20.768 15.5995 18.0059 16.193C13.6895 17.1208 9.08796 18.9717 5.80051 21.1029C3.94353 22.3066 3.75 22.5269 3.75 23.4362C3.7502 24.0228 4.72448 25.5925 9.99917 33.5049L16.2481 42.8787L16.2483 44.6913C16.2483 45.7873 16.3546 46.7581 16.5169 47.1467C16.8934 48.0475 17.8844 49.1234 18.6906 49.5059L19.3729 49.8297V62.4905V75.1512L18.7919 75.3919C17.8296 75.7905 16.6955 77.1896 16.338 78.4193C15.8992 79.9288 15.9982 86.6387 16.4751 87.7112C16.9057 88.6796 17.8794 89.7404 18.6906 90.1255L19.3729 90.4493V94.8341C19.3729 98.9585 19.3962 99.2421 19.7635 99.6094C20.1281 99.974 20.4144 100 24.0598 100C27.7052 100 27.9915 99.974 28.3561 99.6094C28.723 99.2425 28.7467 98.9585 28.7467 94.9296V90.6403L38.3645 90.5845L47.9824 90.5286L49.1541 89.9521C49.7986 89.635 50.3918 89.342 50.4723 89.3012C50.5528 89.2602 50.6188 91.475 50.6188 94.2228C50.6188 98.9585 50.6391 99.2392 51.0093 99.6094C51.3954 99.9955 51.6602 100 74.0192 100H96.6382L97.0677 99.543L97.4969 99.0861L97.4434 80.1608L97.3899 61.2356L96.8579 59.6733C95.802 56.5732 93.8158 53.986 91.1651 52.2583L89.6761 51.2879L89.6735 34.5849C89.6706 16.0332 89.6866 16.2918 88.3364 12.8028C86.4183 7.84645 81.8429 3.27108 76.8866 1.35297C73.4036 0.00530066 68.6955 -0.37707 65.07 0.393726ZM72.3932 3.54604C77.4416 4.40061 82.0989 7.85211 84.4762 12.5003C85.8002 15.0894 86.2337 16.7525 86.4644 20.1278L86.5911 21.983L83.4954 21.8618C81.7929 21.795 80.1525 21.6411 79.8502 21.52C78.0255 20.7885 76.4534 22.0533 77.2566 23.6068C77.6499 24.3675 79.2843 25.01 80.8255 25.01H81.9199L81.8101 29.0622C81.7351 31.8249 81.6016 33.4872 81.3901 34.2861C80.2531 38.5826 76.6571 42.1755 72.3932 43.2751C70.8823 43.6647 67.8503 43.6647 66.3393 43.2751C62.0754 42.1755 58.4794 38.5826 57.3425 34.2861C57.131 33.4876 56.9974 31.8259 56.9226 29.0688L56.8129 25.0233L64.4077 24.9678L72.0026 24.9123L73.2798 24.3071C74.0676 23.9338 75.0589 23.2215 75.8674 22.4482C77.0479 21.3189 77.1777 21.1189 77.1777 20.4297C77.1777 19.3769 76.5821 18.7608 75.5645 18.7608C74.897 18.7608 74.6472 18.9079 73.5868 19.9263C71.5546 21.8776 72.1967 21.7735 61.5058 21.8854L52.1809 21.983L52.1859 21.3972C52.1975 20.0999 52.5777 17.0316 52.8636 15.9292C53.5656 13.2227 55.496 9.97956 57.5774 8.0097C61.6064 4.19673 66.8701 2.61081 72.3932 3.54604ZM22.4975 23.1548C22.4975 27.0931 22.5217 27.3776 22.8881 27.744C23.1484 28.0043 23.539 28.1346 24.0598 28.1346C24.5806 28.1346 24.9712 28.0043 25.2315 27.744C25.5979 27.3776 25.6221 27.0931 25.6221 23.1548V18.9561L26.2568 18.9567C27.5628 18.9581 32.61 20.0526 33.0059 20.4206C33.0393 20.4514 32.446 21.7153 31.6877 23.229C30.1947 26.2092 30.0098 27.0542 30.6995 27.744C31.0887 28.1332 32.088 28.2638 32.7456 28.0115C32.9219 27.944 33.7683 26.4863 34.6266 24.7723C35.8998 22.2295 36.2482 21.6788 36.5191 21.7803C37.5961 22.1842 40.4354 23.9228 40.324 24.1101C40.2532 24.229 37.7506 27.9953 34.7627 32.4797L29.3302 40.6329H24.0598H18.7894L13.3569 32.4797C10.369 27.9953 7.86644 24.229 7.79556 24.1101C7.68424 23.9228 10.5235 22.1842 11.6005 21.7803C11.8714 21.6788 12.2198 22.2295 13.493 24.7723C14.3513 26.4863 15.1977 27.944 15.374 28.0115C16.0316 28.2638 17.0308 28.1332 17.4201 27.744C18.1086 27.0554 17.9245 26.2087 16.4436 23.2524C15.6918 21.7516 15.0766 20.4912 15.0766 20.4518C15.0766 20.1501 20.1816 19.0053 21.6675 18.9737L22.4975 18.9561V23.1548ZM53.7433 26.5723C53.7433 27.7194 53.6908 27.9393 53.417 27.9393C52.8474 27.9393 52.3763 27.3358 52.3763 26.6063C52.3763 25.8417 52.8337 25.2053 53.383 25.2053C53.699 25.2053 53.7433 25.3738 53.7433 26.5723ZM85.999 25.5285C86.7352 26.1948 86.2652 27.9393 85.3495 27.9393C85.0335 27.9393 84.9892 27.7707 84.9892 26.5723C84.9892 25.4252 85.0417 25.2053 85.3155 25.2053C85.495 25.2053 85.8026 25.3508 85.999 25.5285ZM61.9454 26.9628C61.6198 27.2884 61.5548 27.6137 61.5548 28.9157C61.5548 30.7996 61.861 31.2591 63.1171 31.2591C64.3732 31.2591 64.6794 30.7996 64.6794 28.9157C64.6794 27.0318 64.3732 26.5723 63.1171 26.5723C62.5963 26.5723 62.2057 26.7025 61.9454 26.9628ZM74.4437 26.9628C74.1182 27.2884 74.0531 27.6137 74.0531 28.9157C74.0531 30.7996 74.3594 31.2591 75.6154 31.2591C76.8715 31.2591 77.1777 30.7996 77.1777 28.9157C77.1777 27.0318 76.8715 26.5723 75.6154 26.5723C75.0946 26.5723 74.704 26.7025 74.4437 26.9628ZM53.7467 32.3049C53.765 37.7071 57.9844 43.5841 63.4487 45.8183L64.5817 46.2818L64.5696 47.649C64.5603 48.691 64.472 49.1105 64.1976 49.4138C63.6664 50.0006 63.1657 49.9127 62.8501 49.1767C62.5191 48.4053 61.4601 47.3713 60.7121 47.0893C60.0056 46.8229 58.4171 46.8229 57.7106 47.0893C56.966 47.3701 55.904 48.4041 55.5765 49.1677C55.2949 49.8235 55.217 49.8528 53.1087 50.09L52.1811 50.1945V40.6727V31.1512L52.9622 31.2258L53.7433 31.3002L53.7467 32.3049ZM86.5515 40.6255V50.1873L85.2333 50.0701C83.7618 49.9393 83.2316 49.7399 83.2316 49.3169C83.2316 48.8797 81.8449 47.4408 81.1385 47.1451C80.3222 46.8034 78.7008 46.8086 77.9038 47.1557C77.0598 47.5232 76.2179 48.3567 75.8842 49.1558C75.5676 49.9131 75.0725 50.0078 74.5349 49.4138C74.2605 49.1105 74.1723 48.691 74.1629 47.649L74.1508 46.2818L75.2838 45.8183C78.9931 44.3018 82.296 41.0352 83.8188 37.3773C84.5379 35.6502 84.981 33.7203 84.9859 32.2961L84.9892 31.2828L85.7215 31.206C86.1244 31.164 86.4759 31.1148 86.5027 31.0967C86.5294 31.0787 86.5515 35.3666 86.5515 40.6255ZM28.6871 44.8642C28.4918 46.7553 28.4219 46.7844 24.0598 46.7844C19.6977 46.7844 19.6278 46.7553 19.4325 44.8642L19.3182 43.7575H24.0598H28.8014L28.6871 44.8642ZM70.9286 48.285C70.9286 50.4519 71.9587 52.0982 73.7948 52.8655C74.1518 53.0145 74.4437 53.2129 74.4437 53.3062C74.4437 53.6517 72.8305 55.0741 71.9431 55.5112C71.1906 55.8819 70.7108 55.9629 69.2686 55.9629C67.6852 55.9629 67.4073 55.9055 66.4645 55.3833C65.889 55.0644 65.1168 54.4518 64.7489 54.0219L64.0797 53.2402L65.0053 52.7934C66.966 51.8472 67.804 50.4972 67.804 48.285V46.8821H69.3663H70.9286V48.285ZM59.7904 50.5796C59.9165 50.8155 59.9925 53.1246 59.9925 56.7311V62.505H59.2114H58.4302V56.7311C58.4302 53.1246 58.5062 50.8155 58.6323 50.5796C58.7437 50.3718 59.0042 50.2019 59.2114 50.2019C59.4186 50.2019 59.6791 50.3718 59.7904 50.5796ZM80.1002 50.5796C80.2263 50.8155 80.3023 53.1246 80.3023 56.7311V62.505H79.5212H78.74V56.7311C78.74 53.1246 78.816 50.8155 78.9421 50.5796C79.0535 50.3718 79.314 50.2019 79.5212 50.2019C79.7284 50.2019 79.9889 50.3718 80.1002 50.5796ZM55.3056 58.3052V63.4791L53.2085 67.6789L51.1113 71.8787H47.7186H44.3259L44.4165 67.0454C44.4956 62.8134 44.5582 62.0541 44.9193 60.9427C46.3892 56.4195 49.9972 53.6491 55.0615 53.1551C55.2514 53.1365 55.3056 54.2834 55.3056 58.3052ZM86.3562 53.6503C89.5036 54.5049 92.3255 57.1215 93.558 60.3283C94.039 61.5797 94.0593 61.8096 94.1266 66.7525L94.1964 71.8787H90.9089H87.6213L85.5241 67.6789L83.4269 63.4791V58.3292V53.1793L84.3545 53.2689C84.8648 53.3183 85.7654 53.49 86.3562 53.6503ZM75.6154 59.771V62.505H69.3663H63.1171V59.8448V57.1846L63.5565 57.5014C63.7983 57.6756 64.4792 58.0712 65.07 58.3805C68.0252 59.9276 72.2731 59.6358 74.6941 57.7191C75.1471 57.3606 75.5399 57.0604 75.5666 57.052C75.5934 57.0438 75.6154 58.2673 75.6154 59.771ZM82.7944 69.6341L84.7939 73.6389V85.257V96.8754H69.2686H53.7433V85.4523V74.0292L55.8405 69.8294L57.9377 65.6296H69.3665H80.795L82.7944 69.6341ZM50.4192 79.4461C50.4145 84.4075 50.3213 84.8522 49.0315 86.0759C47.6844 87.354 48.2798 87.3064 33.6568 87.3064C20.893 87.3064 20.3753 87.2923 19.9316 86.9334C19.4817 86.5696 19.4692 86.4741 19.4098 82.9546C19.3495 79.3611 19.3509 79.3471 19.832 78.7872L20.3148 78.2256L23.7983 78.173C27.9601 78.1103 28.1083 78.1574 28.6008 79.6953C28.7892 80.2833 29.0915 80.8742 29.2728 81.0084C29.522 81.1929 31.2948 81.2525 36.5341 81.2525C45.1293 81.2525 44.3696 81.5966 44.3696 77.7034V75.0033H47.3965H50.4235L50.4192 79.4461ZM94.1677 85.8417V96.6801H91.1407H88.1138V85.8417V75.0033H91.1407H94.1677V85.8417ZM25.6221 93.7508V96.8754H24.0598H22.4975V93.7508V90.6263H24.0598H25.6221V93.7508Z" fill="#F7C02D"/>
</g>
</svg>
