<?xml version="1.0" encoding="UTF-8"?>
<svg xmlns="http://www.w3.org/2000/svg" xmlns:xlink="http://www.w3.org/1999/xlink" version="1.1" id="Слой_1" x="0px" y="0px" viewBox="0 0 637.33 158" style="enable-background:new 0 0 637.33 158;" xml:space="preserve">
<style type="text/css">
	.st0{fill:url(#SVGID_1_);}
	.st1{fill:#FFFFFF;}
	.st2{fill:url(#SVGID_2_);}
	.st3{fill:url(#SVGID_3_);}
	.st4{fill:url(#SVGID_4_);}
	.st5{fill:url(#SVGID_5_);}
	.st6{fill:url(#SVGID_6_);}
	.st7{fill:url(#SVGID_7_);}
	.st8{fill:url(#SVGID_8_);}
	.st9{fill:url(#SVGID_9_);}
	.st10{fill:#068FFF;}
	.st11{fill:#F7C02D;}
</style>
<g>
	<radialGradient id="SVGID_1_" cx="76.2605" cy="96.187" r="77.2358" gradientUnits="userSpaceOnUse">
		<stop offset="0" style="stop-color:#FFFFFF"></stop>
		<stop offset="0.4892" style="stop-color:#0089CF"></stop>
		<stop offset="0.687" style="stop-color:#0A66B1"></stop>
		<stop offset="0.8857" style="stop-color:#124A99"></stop>
		<stop offset="1" style="stop-color:#153F90"></stop>
	</radialGradient>
	<path class="st0" d="M131.19,84.59C120.65,47.63,77.6,6.23,77.6,6.23c-9.15,34.25-55.34,57.63-55.88,92.77L6.16,115.82l65.12-53.86   l60.94,49.51c0.54-2.53,0.94-5.41,1.17-8.07l-27.31-22.81l-3.95,3.37l-7.31-6.17l10.13-10.69l40.99,34.92L131.19,84.59z"></path>
	<path class="st1" d="M126.24,68.91c1.16-1.64,2.52-3.14,4.04-4.44l0.16-2.91c0.15-2.72,0.01-4.95-0.42-6.81   c-1.43-6.3-6-8.15-10.73-9.2c-1.76-0.4-3.81-0.64-5.98-0.9c-2.77-0.33-5.63-0.67-8.44-1.36l-2.59-0.64l0.02,2.67   c0.01,1.45,0.27,9,4.36,14.67c2.5,3.46,5.92,5.69,10.15,6.63c1.67,0.37,3.48,0.54,5.53,0.51C125.4,67.07,126.06,68.19,126.24,68.91   z"></path>
	<radialGradient id="SVGID_2_" cx="72.3499" cy="114.5277" r="49.1848" gradientUnits="userSpaceOnUse">
		<stop offset="0" style="stop-color:#FFB208"></stop>
		<stop offset="0.349" style="stop-color:#FEB008"></stop>
		<stop offset="0.5505" style="stop-color:#FAA707"></stop>
		<stop offset="0.7144" style="stop-color:#F39905"></stop>
		<stop offset="0.8573" style="stop-color:#EA8603"></stop>
		<stop offset="0.9867" style="stop-color:#DE6C00"></stop>
		<stop offset="1" style="stop-color:#DD6900"></stop>
	</radialGradient>
	<path class="st2" d="M71.27,74.34l-55.7,45.96l8.56-4.52c15.16,49.25,84.8,52.62,104.98,5.33L71.27,74.34z M69.7,120.48H60.2v-9.36   h9.51V120.48z M69.7,107.97H60.2c0-6.79,1.44-12.11,9.51-13.18V107.97z M82.35,120.48h-9.51v-9.36h9.51V120.48z M82.35,107.97   h-9.51V94.75C80.83,95.59,82.48,102.02,82.35,107.97L82.35,107.97z"></path>
	<path class="st1" d="M106.1,33.76c0,3.86-3.13,6.98-6.98,6.98c-3.86,0-6.98-3.13-6.98-6.98c0-3.86,3.13-6.98,6.98-6.98   C102.97,26.78,106.1,29.91,106.1,33.76z"></path>
	<radialGradient id="SVGID_3_" cx="99.1146" cy="32.8701" r="4.2087" gradientUnits="userSpaceOnUse">
		<stop offset="0" style="stop-color:#FFFFFF"></stop>
		<stop offset="0.4892" style="stop-color:#00BCF1"></stop>
		<stop offset="0.6404" style="stop-color:#0B8BCA"></stop>
		<stop offset="0.803" style="stop-color:#155DA5"></stop>
		<stop offset="0.9282" style="stop-color:#1B408F"></stop>
		<stop offset="1" style="stop-color:#1D3586"></stop>
	</radialGradient>
	<path class="st3" d="M103.07,33.76c0,2.18-1.77,3.95-3.95,3.95c-2.18,0-3.95-1.77-3.95-3.95c0-2.18,1.77-3.95,3.95-3.95   C101.3,29.81,103.07,31.58,103.07,33.76z"></path>
	<radialGradient id="SVGID_4_" cx="119.2171" cy="42.2886" r="2.7203" gradientUnits="userSpaceOnUse">
		<stop offset="0" style="stop-color:#FFFFFF"></stop>
		<stop offset="0.4892" style="stop-color:#00BCF1"></stop>
		<stop offset="0.6404" style="stop-color:#0B8BCA"></stop>
		<stop offset="0.803" style="stop-color:#155DA5"></stop>
		<stop offset="0.9282" style="stop-color:#1B408F"></stop>
		<stop offset="1" style="stop-color:#1D3586"></stop>
	</radialGradient>
	<path class="st4" d="M121.76,42.86c0,1.4-1.14,2.54-2.54,2.54c-1.4,0-2.54-1.14-2.54-2.54c0-1.4,1.14-2.54,2.54-2.54   C120.62,40.32,121.76,41.46,121.76,42.86z"></path>
	<radialGradient id="SVGID_5_" cx="115.5009" cy="28.9051" r="5.5405" gradientUnits="userSpaceOnUse">
		<stop offset="0" style="stop-color:#FFFFFF"></stop>
		<stop offset="0.4892" style="stop-color:#00BCF1"></stop>
		<stop offset="0.6404" style="stop-color:#0B8BCA"></stop>
		<stop offset="0.803" style="stop-color:#155DA5"></stop>
		<stop offset="0.9282" style="stop-color:#1B408F"></stop>
		<stop offset="1" style="stop-color:#1D3586"></stop>
	</radialGradient>
	<path class="st5" d="M120.67,30.07c0,2.86-2.32,5.17-5.17,5.17c-2.86,0-5.17-2.32-5.17-5.17c0-2.86,2.32-5.17,5.17-5.17   C118.36,24.9,120.67,27.22,120.67,30.07z"></path>
	<radialGradient id="SVGID_6_" cx="132.7605" cy="42.5816" r="6.3478" gradientUnits="userSpaceOnUse">
		<stop offset="0" style="stop-color:#FFFFFF"></stop>
		<stop offset="0.4892" style="stop-color:#00BCF1"></stop>
		<stop offset="0.6404" style="stop-color:#0B8BCA"></stop>
		<stop offset="0.803" style="stop-color:#155DA5"></stop>
		<stop offset="0.9282" style="stop-color:#1B408F"></stop>
		<stop offset="1" style="stop-color:#1D3586"></stop>
	</radialGradient>
	<path class="st6" d="M138.68,43.92c0,3.27-2.65,5.92-5.92,5.92c-3.27,0-5.92-2.65-5.92-5.92c0-3.27,2.65-5.92,5.92-5.92   C136.03,38,138.68,40.65,138.68,43.92z"></path>
	
		<radialGradient id="SVGID_7_" cx="52.316" cy="9.3222" r="16.8205" gradientTransform="matrix(0.9902 -0.1399 0.1399 0.9902 64.5985 55.2315)" gradientUnits="userSpaceOnUse">
		<stop offset="0" style="stop-color:#80C242"></stop>
		<stop offset="0.2252" style="stop-color:#7DC042"></stop>
		<stop offset="0.3983" style="stop-color:#73B840"></stop>
		<stop offset="0.554" style="stop-color:#63AB3E"></stop>
		<stop offset="0.6996" style="stop-color:#4C9A3A"></stop>
		<stop offset="0.8381" style="stop-color:#2E8236"></stop>
		<stop offset="0.9694" style="stop-color:#0A6630"></stop>
		<stop offset="1" style="stop-color:#005F2F"></stop>
	</radialGradient>
	<path class="st7" d="M128.09,68.16c0.36-0.31-0.03-4.06-1.14-5.69c-1.9-2.81-5.01-5.56-10.23-7.64c-0.86-0.35-1.76-0.68-2.74-0.98   c0,0,9.19-0.19,14.09,7.29c0.12-2.31,0.01-4.19-0.34-5.73c-0.98-4.31-3.8-5.98-8.41-7.01c-3.47-0.78-8.49-0.91-13.27-2.08   c0.01,1.41,0.28,7.71,3.64,12.36c1.76,2.43,4.36,4.49,8.19,5.34c1.38,0.31,2.91,0.45,4.63,0.42   C127.86,64.36,128.01,67.72,128.09,68.16z"></path>
	
		<radialGradient id="SVGID_8_" cx="245.9479" cy="114.1586" r="16.1221" gradientTransform="matrix(0.9764 0.2162 -0.2162 0.9764 -77.5866 -110.3061)" gradientUnits="userSpaceOnUse">
		<stop offset="0" style="stop-color:#80C242"></stop>
		<stop offset="0.2252" style="stop-color:#7DC042"></stop>
		<stop offset="0.3983" style="stop-color:#73B840"></stop>
		<stop offset="0.554" style="stop-color:#63AB3E"></stop>
		<stop offset="0.6996" style="stop-color:#4C9A3A"></stop>
		<stop offset="0.8381" style="stop-color:#2E8236"></stop>
		<stop offset="0.9694" style="stop-color:#0A6630"></stop>
		<stop offset="1" style="stop-color:#005F2F"></stop>
	</radialGradient>
	<path class="st8" d="M130.39,68.88c-0.25-0.26,0.46-3.02,1.49-4.15c1.77-1.94,4.47-3.74,8.74-4.86c0.7-0.18,1.44-0.36,2.23-0.5   c0,0-7.1-0.9-11.7,4.28c0.15-1.74,0.44-3.13,0.88-4.25c1.22-3.14,3.59-4.16,7.27-4.54c2.77-0.3,6.67,0.03,10.5-0.46   c-0.16,1.05-1.04,5.73-4.14,8.93c-1.62,1.67-3.85,2.99-6.92,3.31c-1.1,0.11-2.3,0.09-3.63-0.07   C130.97,66.07,130.5,68.57,130.39,68.88z"></path>
	
		<radialGradient id="SVGID_9_" cx="422.6115" cy="206.7533" r="11.8077" gradientTransform="matrix(0.7029 0.7113 -0.7113 0.7029 -9.9891 -374.648)" gradientUnits="userSpaceOnUse">
		<stop offset="0" style="stop-color:#80C242"></stop>
		<stop offset="0.2252" style="stop-color:#7DC042"></stop>
		<stop offset="0.3983" style="stop-color:#73B840"></stop>
		<stop offset="0.554" style="stop-color:#63AB3E"></stop>
		<stop offset="0.6996" style="stop-color:#4C9A3A"></stop>
		<stop offset="0.8381" style="stop-color:#2E8236"></stop>
		<stop offset="0.9694" style="stop-color:#0A6630"></stop>
		<stop offset="1" style="stop-color:#005F2F"></stop>
	</radialGradient>
	<path class="st9" d="M131.78,80.86c-0.61-2.32-1.01-6.19,2.04-6.46c1.57-0.14,3.47-0.43,5.98,0.39c0.42,0.14,1.26,0.32,1.71,0.5   c0,0-3.36-3.22-7.37-2.11c0.64-0.83,1.04-1.17,1.62-1.59c1.64-1.19,3.16-0.93,5.14,0.08c1.49,0.75,3.35,2.18,5.44,3.19   c-0.42,0.48-2.39,2.55-4.99,3.15c-1.36,0.31-2.91,0.25-4.56-0.58c-0.59-0.3-1.37-0.7-2.07-1.1   C131.47,74.46,131.89,78.46,131.78,80.86z"></path>
</g>
<g>
	<path class="st10" d="M174.18,74.38h-11.72V23.17h-16.11V13.8h43.94v9.36h-16.11V74.38z"></path>
	<path class="st10" d="M208.88,75.31c-6.63,0-11.69-2.38-15.18-7.15c-3.49-4.76-5.24-10.22-5.24-16.38c0-6.63,1.93-12.15,5.79-16.55   c3.86-4.41,8.96-6.61,15.29-6.61c6.01,0,10.94,2.15,14.8,6.44c3.86,4.29,5.79,9.87,5.79,16.73c0,7.07-2,12.76-6.01,17.06   C220.12,73.16,215.03,75.31,208.88,75.31z M209.24,66.97c6.8,0,10.21-5.07,10.21-15.22c0-4.59-0.81-8.2-2.44-10.85   c-1.63-2.65-4.13-3.97-7.5-3.97c-3.49,0-6.08,1.37-7.77,4.1c-1.69,2.74-2.53,6.37-2.53,10.9c0,4.88,0.89,8.61,2.68,11.18   C203.68,65.68,206.13,66.97,209.24,66.97z"></path>
	<path class="st10" d="M239.37,74.38V29.56h35.82v44.82h-10.12v-37.5h-15.58v37.5H239.37z"></path>
	<path class="st10" d="M358.26,74.38h-12.2l-12.78-30.84l-11.72,15.53v15.31h-10.92V13.8h10.92v31.82c1.39-2.16,2.4-3.65,3.02-4.48   l20.1-27.34h11.05l-14.38,19.93L358.26,74.38z"></path>
	<path class="st10" d="M359.33,74.38l14.33-44.82h11.94l13.94,44.82h-10.56l-10.12-36.97l-11.32,36.97H359.33z"></path>
	<path class="st10" d="M415.34,69.85v4.53h-10.12V29.56h10.12v19.48c0,2.93-0.07,6.05-0.22,9.36c1.48-2.4,3.61-5.33,6.39-8.79   L433,35.33v-5.77h10.12v44.82H433V55.96c0-3.67,0.1-6.89,0.31-9.67c-1.42,2.31-3.37,5.03-5.86,8.17L415.34,69.85z"></path>
	<path class="st10" d="M455.24,74.38V29.56h10.12v17.26h17.53V29.56H493v44.82h-10.12v-19.7h-17.53v19.7H455.24z"></path>
	<path class="st10" d="M515.28,69.85v4.53h-10.12V29.56h10.12v19.48c0,2.93-0.07,6.05-0.22,9.36c1.48-2.4,3.61-5.33,6.39-8.79   l11.5-14.29v-5.77h10.12v44.82h-10.12V55.96c0-3.67,0.1-6.89,0.31-9.67c-1.42,2.31-3.37,5.03-5.86,8.17L515.28,69.85z"></path>
	<path class="st10" d="M555.18,74.38V29.56h10.12v17.26h17.53V29.56h10.12v44.82h-10.12v-19.7H565.3v19.7H555.18z"></path>
	<path class="st10" d="M605.06,74.38V29.56h27.78v7.85h-17.66v36.97H605.06z"></path>
</g>
<g>
	<path class="st1" d="M153.12,107.24h20.07v4.97H159.1v24.66h-5.98V107.24z"></path>
	<path class="st1" d="M174.51,115.41h5.3v3.15c0.69-1.08,1.62-1.95,2.79-2.63s2.47-1.01,3.9-1.01c2.49,0,4.61,0.98,6.35,2.93   c1.74,1.95,2.61,4.68,2.61,8.17c0,3.59-0.88,6.37-2.63,8.36c-1.75,1.99-3.88,2.98-6.37,2.98c-1.19,0-2.26-0.24-3.22-0.71   c-0.96-0.47-1.98-1.28-3.04-2.43v10.82h-5.68V115.41z M180.13,125.78c0,2.41,0.48,4.2,1.44,5.35c0.96,1.15,2.12,1.73,3.5,1.73   c1.32,0,2.42-0.53,3.29-1.59c0.88-1.06,1.31-2.79,1.31-5.21c0-2.25-0.45-3.92-1.35-5.01s-2.02-1.64-3.36-1.64   c-1.39,0-2.54,0.54-3.46,1.61S180.13,123.68,180.13,125.78z"></path>
	<path class="st1" d="M217.81,115.41v21.47h-5.64v-8.91h-0.53c-1.23,0-2.13,0.16-2.7,0.47s-1.21,0.99-1.91,2.01l-0.34,0.42l-3.74,6   h-6.61l4.06-6.23c1.16-1.78,2.21-2.8,3.15-3.07c-1.59-0.09-2.88-0.7-3.87-1.81c-0.99-1.11-1.49-2.53-1.49-4.26   c0-1.39,0.33-2.57,0.98-3.56c0.65-0.98,1.52-1.65,2.61-2.01c1.08-0.36,2.7-0.54,4.84-0.54H217.81z M212.17,119.07h-4.06   c-1.5,0-2.55,0.21-3.15,0.64c-0.61,0.42-0.91,1.13-0.91,2.11c0,0.98,0.34,1.69,1.03,2.12c0.69,0.43,1.81,0.65,3.38,0.65h3.72   V119.07z"></path>
	<path class="st1" d="M229.35,128.06v-3.7c0.98,0,1.7-0.06,2.14-0.19c0.44-0.13,0.87-0.44,1.26-0.93c0.4-0.49,0.6-1.05,0.6-1.69   c0-0.67-0.25-1.3-0.74-1.87c-0.49-0.57-1.23-0.86-2.21-0.86c-0.75,0-1.43,0.16-2.02,0.49c-0.59,0.32-1.13,1.09-1.62,2.3l-4.81-1.03   c0.48-1.89,1.52-3.3,3.11-4.25c1.59-0.94,3.4-1.42,5.44-1.42c2.59,0,4.59,0.59,6.01,1.78s2.13,2.67,2.13,4.47   c0,1.12-0.31,2.04-0.92,2.78c-0.61,0.74-1.58,1.42-2.9,2.05c1.59,0.43,2.78,1.08,3.57,1.96c0.79,0.88,1.18,1.97,1.18,3.27   c0,1.67-0.78,3.11-2.34,4.32c-1.56,1.21-3.81,1.81-6.75,1.81c-5.12,0-8.25-2-9.4-6l5.2-0.95c0.84,2.1,2.22,3.15,4.14,3.15   c1.06,0,1.92-0.28,2.56-0.84c0.64-0.56,0.96-1.21,0.96-1.97c0-0.83-0.33-1.49-1-1.97s-1.54-0.72-2.62-0.72H229.35z"></path>
	<path class="st1" d="M244.27,115.41h5.68v8.92h5.7c2.24,0,3.96,0.16,5.15,0.48c1.2,0.32,2.2,1.02,2.99,2.09   c0.8,1.07,1.19,2.31,1.19,3.73c0,2.08-0.71,3.64-2.13,4.68c-1.42,1.04-3.55,1.57-6.4,1.57h-12.19V115.41z M249.95,133.28h5.3   c1.66,0,2.72-0.27,3.18-0.81c0.46-0.54,0.7-1.18,0.7-1.92c0-1.04-0.4-1.75-1.2-2.14c-0.8-0.39-2.23-0.59-4.28-0.59h-3.7V133.28z"></path>
	<path class="st1" d="M281.81,129.24h-5.15c-0.01-0.74-0.02-1.19-0.02-1.35c0-1.67,0.28-3.05,0.83-4.12   c0.55-1.08,1.66-2.29,3.32-3.64c1.66-1.35,2.65-2.23,2.97-2.65c0.5-0.66,0.75-1.39,0.75-2.18c0-1.1-0.44-2.05-1.32-2.84   c-0.88-0.79-2.07-1.18-3.57-1.18c-1.44,0-2.65,0.41-3.62,1.23c-0.97,0.82-1.64,2.08-2,3.76l-5.22-0.65   c0.15-2.41,1.18-4.46,3.08-6.15c1.91-1.68,4.41-2.53,7.51-2.53c3.26,0,5.86,0.85,7.78,2.56c1.93,1.71,2.89,3.69,2.89,5.95   c0,1.25-0.35,2.44-1.06,3.56c-0.71,1.12-2.22,2.64-4.54,4.57c-1.2,1-1.94,1.8-2.23,2.41C281.91,126.59,281.78,127.67,281.81,129.24   z M276.65,136.88v-5.68h5.68v5.68H276.65z"></path>
	<path class="st1" d="M306.45,136.88v-29.63h5.98v11.66h11.72v-11.66h5.98v29.63h-5.98v-12.96h-11.72v12.96H306.45z"></path>
	<path class="st1" d="M348.72,130.04l5.66,0.95c-0.73,2.08-1.88,3.66-3.45,4.74c-1.57,1.08-3.54,1.63-5.89,1.63   c-3.73,0-6.5-1.22-8.29-3.66c-1.42-1.95-2.12-4.42-2.12-7.4c0-3.56,0.93-6.34,2.79-8.36c1.86-2.01,4.21-3.02,7.06-3.02   c3.19,0,5.71,1.05,7.56,3.16c1.85,2.11,2.73,5.34,2.65,9.69h-14.23c0.04,1.68,0.5,2.99,1.38,3.93c0.88,0.94,1.97,1.4,3.27,1.4   c0.89,0,1.64-0.24,2.24-0.73S348.41,131.12,348.72,130.04z M349.04,124.3c-0.04-1.64-0.46-2.89-1.27-3.75   c-0.81-0.86-1.79-1.28-2.95-1.28c-1.24,0-2.26,0.45-3.07,1.36c-0.81,0.9-1.21,2.13-1.19,3.68H349.04z"></path>
	<path class="st1" d="M359.17,131.2h5.68v4.06c0,1.64-0.14,2.94-0.43,3.89c-0.28,0.95-0.82,1.8-1.61,2.56   c-0.79,0.75-1.79,1.35-3,1.78l-1.11-2.35c1.15-0.38,1.96-0.9,2.45-1.56c0.48-0.66,0.74-1.56,0.77-2.71h-2.75V131.2z"></path>
	<path class="st1" d="M382.1,115.41h5.68v7.86h8.13v-7.86h5.7v21.47h-5.7v-9.02h-8.13v9.02h-5.68V115.41z"></path>
	<path class="st1" d="M419.76,130.04l5.66,0.95c-0.73,2.08-1.88,3.66-3.45,4.74c-1.57,1.08-3.53,1.63-5.89,1.63   c-3.73,0-6.5-1.22-8.29-3.66c-1.42-1.95-2.12-4.42-2.12-7.4c0-3.56,0.93-6.34,2.79-8.36c1.86-2.01,4.21-3.02,7.06-3.02   c3.19,0,5.71,1.05,7.56,3.16c1.85,2.11,2.73,5.34,2.65,9.69h-14.23c0.04,1.68,0.5,2.99,1.38,3.93c0.88,0.94,1.97,1.4,3.27,1.4   c0.89,0,1.64-0.24,2.24-0.73S419.45,131.12,419.76,130.04z M420.08,124.3c-0.04-1.64-0.46-2.89-1.27-3.75   c-0.81-0.86-1.79-1.28-2.95-1.28c-1.24,0-2.26,0.45-3.07,1.36c-0.81,0.9-1.21,2.13-1.19,3.68H420.08z"></path>
	<path class="st1" d="M460.57,121.75l-5.6,1.01c-0.19-1.12-0.62-1.96-1.28-2.53s-1.53-0.85-2.6-0.85c-1.42,0-2.54,0.49-3.39,1.47   c-0.84,0.98-1.26,2.61-1.26,4.9c0,2.55,0.43,4.35,1.28,5.4c0.86,1.05,2,1.58,3.45,1.58c1.08,0,1.96-0.31,2.65-0.92   c0.69-0.61,1.17-1.67,1.46-3.16l5.58,0.95c-0.58,2.56-1.69,4.5-3.33,5.8c-1.64,1.31-3.85,1.96-6.61,1.96   c-3.14,0-5.64-0.99-7.51-2.97c-1.87-1.98-2.8-4.72-2.8-8.23c0-3.54,0.94-6.3,2.81-8.28c1.87-1.97,4.41-2.96,7.6-2.96   c2.61,0,4.69,0.56,6.24,1.69C458.79,117.74,459.9,119.45,460.57,121.75z"></path>
	<path class="st1" d="M466.41,115.41h19.02v21.47h-5.66v-16.86h-7.74v9.64c0,2.45-0.28,4.17-0.85,5.17   c-0.57,0.99-1.19,1.64-1.88,1.95c-0.69,0.31-1.79,0.46-3.32,0.46c-0.9,0-2.1-0.12-3.58-0.36v-4.18c0.12,0,0.44,0.01,0.95,0.04   c0.59,0.04,1.05,0.06,1.38,0.06c0.77,0,1.24-0.25,1.42-0.76s0.26-1.91,0.26-4.22V115.41z"></path>
	<path class="st1" d="M491.22,115.41h5.68v8.92h5.7c2.24,0,3.94,0.16,5.12,0.47s2.18,1.01,2.99,2.07s1.22,2.32,1.22,3.76   c0,2.08-0.71,3.64-2.14,4.68c-1.43,1.04-3.57,1.57-6.43,1.57h-12.15V115.41z M496.9,133.28h5.28c1.38,0,2.37-0.22,2.99-0.65   c0.62-0.43,0.93-1.13,0.93-2.1c0-1.04-0.4-1.75-1.2-2.13c-0.8-0.38-2.24-0.58-4.32-0.58h-3.68V133.28z M515.17,115.41h5.68v21.47   h-5.68V115.41z"></path>
	<path class="st1" d="M526.39,115.41h5.22v16.88h6.59v-16.88h5.24v16.88H550v-16.88h5.24v21.47h-28.85V115.41z"></path>
	<path class="st1" d="M565.28,121.96l-5.16-0.93c0.58-2.08,1.58-3.61,2.99-4.61c1.42-1,3.52-1.5,6.31-1.5c2.53,0,4.42,0.3,5.66,0.9   c1.24,0.6,2.11,1.36,2.62,2.28c0.51,0.92,0.76,2.62,0.76,5.08l-0.06,6.63c0,1.89,0.09,3.28,0.27,4.17c0.18,0.9,0.52,1.86,1.02,2.88   h-5.62c-0.15-0.38-0.33-0.94-0.55-1.68c-0.09-0.34-0.16-0.56-0.2-0.67c-0.97,0.94-2.01,1.65-3.11,2.12   c-1.11,0.47-2.28,0.71-3.54,0.71c-2.21,0-3.95-0.6-5.23-1.8c-1.27-1.2-1.91-2.72-1.91-4.55c0-1.21,0.29-2.29,0.87-3.25   c0.58-0.95,1.39-1.68,2.44-2.18c1.04-0.51,2.55-0.95,4.52-1.32c2.66-0.5,4.49-0.96,5.52-1.4v-0.57c0-1.09-0.27-1.87-0.81-2.34   c-0.54-0.46-1.56-0.7-3.05-0.7c-1.01,0-1.8,0.2-2.37,0.6C566.09,120.26,565.64,120.96,565.28,121.96z M572.89,126.57   c-0.73,0.24-1.88,0.53-3.46,0.87c-1.58,0.34-2.61,0.67-3.09,0.99c-0.74,0.53-1.11,1.19-1.11,2c0,0.8,0.3,1.48,0.89,2.06   c0.59,0.58,1.35,0.87,2.26,0.87c1.02,0,2-0.34,2.93-1.01c0.69-0.51,1.14-1.14,1.35-1.88c0.15-0.48,0.22-1.41,0.22-2.77V126.57z"></path>
	<path class="st1" d="M585.6,115.41h19.02v21.47h-5.66v-16.86h-7.74v9.64c0,2.45-0.28,4.17-0.85,5.17   c-0.57,0.99-1.19,1.64-1.88,1.95c-0.69,0.31-1.79,0.46-3.32,0.46c-0.9,0-2.1-0.12-3.58-0.36v-4.18c0.12,0,0.44,0.01,0.95,0.04   c0.59,0.04,1.05,0.06,1.38,0.06c0.77,0,1.24-0.25,1.42-0.76s0.26-1.91,0.26-4.22V115.41z"></path>
	<path class="st1" d="M610.22,115.41h5.46v13.48l8.73-13.48h5.58v21.47h-5.46v-13.73l-8.85,13.73h-5.46V115.41z"></path>
</g>
<rect x="149.8" y="84.73" class="st11" width="483.04" height="7.11"></rect>
</svg>
