<?xml version="1.0" encoding="UTF-8"?>
<svg xmlns="http://www.w3.org/2000/svg" xmlns:xlink="http://www.w3.org/1999/xlink" version="1.1" id="Слой_1" x="0px" y="0px" viewBox="0 0 637.3 158" style="enable-background:new 0 0 637.3 158;" xml:space="preserve">
<style type="text/css">
	.st0{fill:url(#SVGID_1_);}
	.st1{fill:#FFFFFF;}
	.st2{fill:url(#SVGID_2_);}
	.st3{fill:url(#SVGID_3_);}
	.st4{fill:url(#SVGID_4_);}
	.st5{fill:url(#SVGID_5_);}
	.st6{fill:url(#SVGID_6_);}
	.st7{fill:url(#SVGID_7_);}
	.st8{fill:url(#SVGID_8_);}
	.st9{fill:url(#SVGID_9_);}
	.st10{fill:#1239AC;}
	.st11{fill:#F7C02D;}
</style>
<g>
	<radialGradient id="SVGID_1_" cx="76.2605" cy="96.187" r="77.2358" gradientUnits="userSpaceOnUse">
		<stop offset="0" style="stop-color:#FFFFFF"></stop>
		<stop offset="0.4892" style="stop-color:#0089CF"></stop>
		<stop offset="0.687" style="stop-color:#0A66B1"></stop>
		<stop offset="0.8857" style="stop-color:#124A99"></stop>
		<stop offset="1" style="stop-color:#153F90"></stop>
	</radialGradient>
	<path class="st0" d="M131.2,84.6c-10.5-37-53.6-78.4-53.6-78.4C68.4,40.5,22.3,63.9,21.7,99L6.2,115.8L71.3,62l60.9,49.5   c0.5-2.5,0.9-5.4,1.2-8.1l-27.3-22.8l-3.9,3.4l-7.3-6.2l10.1-10.7l41,34.9L131.2,84.6z"></path>
	<path class="st1" d="M126.2,68.9c1.2-1.6,2.5-3.1,4-4.4l0.2-2.9c0.1-2.7,0-5-0.4-6.8c-1.4-6.3-6-8.1-10.7-9.2   c-1.8-0.4-3.8-0.6-6-0.9c-2.8-0.3-5.6-0.7-8.4-1.4l-2.6-0.6l0,2.7c0,1.5,0.3,9,4.4,14.7c2.5,3.5,5.9,5.7,10.2,6.6   c1.7,0.4,3.5,0.5,5.5,0.5C125.4,67.1,126.1,68.2,126.2,68.9z"></path>
	<radialGradient id="SVGID_2_" cx="72.3499" cy="114.5277" r="49.1848" gradientUnits="userSpaceOnUse">
		<stop offset="0" style="stop-color:#FFB208"></stop>
		<stop offset="0.349" style="stop-color:#FEB008"></stop>
		<stop offset="0.5505" style="stop-color:#FAA707"></stop>
		<stop offset="0.7144" style="stop-color:#F39905"></stop>
		<stop offset="0.8573" style="stop-color:#EA8603"></stop>
		<stop offset="0.9867" style="stop-color:#DE6C00"></stop>
		<stop offset="1" style="stop-color:#DD6900"></stop>
	</radialGradient>
	<path class="st2" d="M71.3,74.3l-55.7,46l8.6-4.5c15.2,49.2,84.8,52.6,105,5.3L71.3,74.3z M69.7,120.5h-9.5v-9.4h9.5V120.5z    M69.7,108h-9.5c0-6.8,1.4-12.1,9.5-13.2V108z M82.4,120.5h-9.5v-9.4h9.5V120.5z M82.4,108h-9.5V94.7C80.8,95.6,82.5,102,82.4,108   L82.4,108z"></path>
	<path class="st1" d="M106.1,33.8c0,3.9-3.1,7-7,7c-3.9,0-7-3.1-7-7c0-3.9,3.1-7,7-7C103,26.8,106.1,29.9,106.1,33.8z"></path>
	<radialGradient id="SVGID_3_" cx="99.1146" cy="32.8701" r="4.2087" gradientUnits="userSpaceOnUse">
		<stop offset="0" style="stop-color:#FFFFFF"></stop>
		<stop offset="0.4892" style="stop-color:#00BCF1"></stop>
		<stop offset="0.6404" style="stop-color:#0B8BCA"></stop>
		<stop offset="0.803" style="stop-color:#155DA5"></stop>
		<stop offset="0.9282" style="stop-color:#1B408F"></stop>
		<stop offset="1" style="stop-color:#1D3586"></stop>
	</radialGradient>
	<path class="st3" d="M103.1,33.8c0,2.2-1.8,4-4,4c-2.2,0-4-1.8-4-4c0-2.2,1.8-4,4-4C101.3,29.8,103.1,31.6,103.1,33.8z"></path>
	<radialGradient id="SVGID_4_" cx="119.2171" cy="42.2886" r="2.7203" gradientUnits="userSpaceOnUse">
		<stop offset="0" style="stop-color:#FFFFFF"></stop>
		<stop offset="0.4892" style="stop-color:#00BCF1"></stop>
		<stop offset="0.6404" style="stop-color:#0B8BCA"></stop>
		<stop offset="0.803" style="stop-color:#155DA5"></stop>
		<stop offset="0.9282" style="stop-color:#1B408F"></stop>
		<stop offset="1" style="stop-color:#1D3586"></stop>
	</radialGradient>
	<path class="st4" d="M121.8,42.9c0,1.4-1.1,2.5-2.5,2.5c-1.4,0-2.5-1.1-2.5-2.5c0-1.4,1.1-2.5,2.5-2.5   C120.6,40.3,121.8,41.5,121.8,42.9z"></path>
	<radialGradient id="SVGID_5_" cx="115.5009" cy="28.9051" r="5.5405" gradientUnits="userSpaceOnUse">
		<stop offset="0" style="stop-color:#FFFFFF"></stop>
		<stop offset="0.4892" style="stop-color:#00BCF1"></stop>
		<stop offset="0.6404" style="stop-color:#0B8BCA"></stop>
		<stop offset="0.803" style="stop-color:#155DA5"></stop>
		<stop offset="0.9282" style="stop-color:#1B408F"></stop>
		<stop offset="1" style="stop-color:#1D3586"></stop>
	</radialGradient>
	<path class="st5" d="M120.7,30.1c0,2.9-2.3,5.2-5.2,5.2c-2.9,0-5.2-2.3-5.2-5.2c0-2.9,2.3-5.2,5.2-5.2   C118.4,24.9,120.7,27.2,120.7,30.1z"></path>
	<radialGradient id="SVGID_6_" cx="132.7605" cy="42.5816" r="6.3478" gradientUnits="userSpaceOnUse">
		<stop offset="0" style="stop-color:#FFFFFF"></stop>
		<stop offset="0.4892" style="stop-color:#00BCF1"></stop>
		<stop offset="0.6404" style="stop-color:#0B8BCA"></stop>
		<stop offset="0.803" style="stop-color:#155DA5"></stop>
		<stop offset="0.9282" style="stop-color:#1B408F"></stop>
		<stop offset="1" style="stop-color:#1D3586"></stop>
	</radialGradient>
	<path class="st6" d="M138.7,43.9c0,3.3-2.7,5.9-5.9,5.9c-3.3,0-5.9-2.7-5.9-5.9c0-3.3,2.7-5.9,5.9-5.9   C136,38,138.7,40.6,138.7,43.9z"></path>
	
		<radialGradient id="SVGID_7_" cx="52.316" cy="9.3222" r="16.8205" gradientTransform="matrix(0.9902 -0.1399 0.1399 0.9902 64.5985 55.2315)" gradientUnits="userSpaceOnUse">
		<stop offset="0" style="stop-color:#80C242"></stop>
		<stop offset="0.2252" style="stop-color:#7DC042"></stop>
		<stop offset="0.3983" style="stop-color:#73B840"></stop>
		<stop offset="0.554" style="stop-color:#63AB3E"></stop>
		<stop offset="0.6996" style="stop-color:#4C9A3A"></stop>
		<stop offset="0.8381" style="stop-color:#2E8236"></stop>
		<stop offset="0.9694" style="stop-color:#0A6630"></stop>
		<stop offset="1" style="stop-color:#005F2F"></stop>
	</radialGradient>
	<path class="st7" d="M128.1,68.2c0.4-0.3,0-4.1-1.1-5.7c-1.9-2.8-5-5.6-10.2-7.6c-0.9-0.3-1.8-0.7-2.7-1c0,0,9.2-0.2,14.1,7.3   c0.1-2.3,0-4.2-0.3-5.7c-1-4.3-3.8-6-8.4-7c-3.5-0.8-8.5-0.9-13.3-2.1c0,1.4,0.3,7.7,3.6,12.4c1.8,2.4,4.4,4.5,8.2,5.3   c1.4,0.3,2.9,0.4,4.6,0.4C127.9,64.4,128,67.7,128.1,68.2z"></path>
	
		<radialGradient id="SVGID_8_" cx="245.9479" cy="114.1586" r="16.1221" gradientTransform="matrix(0.9764 0.2162 -0.2162 0.9764 -77.5866 -110.3061)" gradientUnits="userSpaceOnUse">
		<stop offset="0" style="stop-color:#80C242"></stop>
		<stop offset="0.2252" style="stop-color:#7DC042"></stop>
		<stop offset="0.3983" style="stop-color:#73B840"></stop>
		<stop offset="0.554" style="stop-color:#63AB3E"></stop>
		<stop offset="0.6996" style="stop-color:#4C9A3A"></stop>
		<stop offset="0.8381" style="stop-color:#2E8236"></stop>
		<stop offset="0.9694" style="stop-color:#0A6630"></stop>
		<stop offset="1" style="stop-color:#005F2F"></stop>
	</radialGradient>
	<path class="st8" d="M130.4,68.9c-0.3-0.3,0.5-3,1.5-4.2c1.8-1.9,4.5-3.7,8.7-4.9c0.7-0.2,1.4-0.4,2.2-0.5c0,0-7.1-0.9-11.7,4.3   c0.2-1.7,0.4-3.1,0.9-4.2c1.2-3.1,3.6-4.2,7.3-4.5c2.8-0.3,6.7,0,10.5-0.5c-0.2,1-1,5.7-4.1,8.9c-1.6,1.7-3.9,3-6.9,3.3   c-1.1,0.1-2.3,0.1-3.6-0.1C131,66.1,130.5,68.6,130.4,68.9z"></path>
	
		<radialGradient id="SVGID_9_" cx="422.6115" cy="206.7533" r="11.8077" gradientTransform="matrix(0.7029 0.7113 -0.7113 0.7029 -9.9891 -374.648)" gradientUnits="userSpaceOnUse">
		<stop offset="0" style="stop-color:#80C242"></stop>
		<stop offset="0.2252" style="stop-color:#7DC042"></stop>
		<stop offset="0.3983" style="stop-color:#73B840"></stop>
		<stop offset="0.554" style="stop-color:#63AB3E"></stop>
		<stop offset="0.6996" style="stop-color:#4C9A3A"></stop>
		<stop offset="0.8381" style="stop-color:#2E8236"></stop>
		<stop offset="0.9694" style="stop-color:#0A6630"></stop>
		<stop offset="1" style="stop-color:#005F2F"></stop>
	</radialGradient>
	<path class="st9" d="M131.8,80.9c-0.6-2.3-1-6.2,2-6.5c1.6-0.1,3.5-0.4,6,0.4c0.4,0.1,1.3,0.3,1.7,0.5c0,0-3.4-3.2-7.4-2.1   c0.6-0.8,1-1.2,1.6-1.6c1.6-1.2,3.2-0.9,5.1,0.1c1.5,0.8,3.4,2.2,5.4,3.2c-0.4,0.5-2.4,2.5-5,3.2c-1.4,0.3-2.9,0.3-4.6-0.6   c-0.6-0.3-1.4-0.7-2.1-1.1C131.5,74.5,131.9,78.5,131.8,80.9z"></path>
</g>
<g>
	<path class="st10" d="M174.2,74.4h-11.7V23.2h-16.1v-9.4h43.9v9.4h-16.1V74.4z"></path>
	<path class="st10" d="M208.9,75.3c-6.6,0-11.7-2.4-15.2-7.1c-3.5-4.8-5.2-10.2-5.2-16.4c0-6.6,1.9-12.1,5.8-16.6   c3.9-4.4,9-6.6,15.3-6.6c6,0,10.9,2.1,14.8,6.4c3.9,4.3,5.8,9.9,5.8,16.7c0,7.1-2,12.8-6,17.1C220.1,73.2,215,75.3,208.9,75.3z    M209.2,67c6.8,0,10.2-5.1,10.2-15.2c0-4.6-0.8-8.2-2.4-10.9c-1.6-2.6-4.1-4-7.5-4c-3.5,0-6.1,1.4-7.8,4.1   c-1.7,2.7-2.5,6.4-2.5,10.9c0,4.9,0.9,8.6,2.7,11.2C203.7,65.7,206.1,67,209.2,67z"></path>
	<path class="st10" d="M239.4,74.4V29.6h35.8v44.8h-10.1V36.9h-15.6v37.5H239.4z"></path>
	<path class="st10" d="M358.3,74.4h-12.2l-12.8-30.8l-11.7,15.5v15.3h-10.9V13.8h10.9v31.8c1.4-2.2,2.4-3.7,3-4.5l20.1-27.3h11.1   l-14.4,19.9L358.3,74.4z"></path>
	<path class="st10" d="M359.3,74.4l14.3-44.8h11.9l13.9,44.8H389l-10.1-37l-11.3,37H359.3z"></path>
	<path class="st10" d="M415.3,69.9v4.5h-10.1V29.6h10.1V49c0,2.9-0.1,6.1-0.2,9.4c1.5-2.4,3.6-5.3,6.4-8.8L433,35.3v-5.8h10.1v44.8   H433V56c0-3.7,0.1-6.9,0.3-9.7c-1.4,2.3-3.4,5-5.9,8.2L415.3,69.9z"></path>
	<path class="st10" d="M455.2,74.4V29.6h10.1v17.3h17.5V29.6H493v44.8h-10.1V54.7h-17.5v19.7H455.2z"></path>
	<path class="st10" d="M515.3,69.9v4.5h-10.1V29.6h10.1V49c0,2.9-0.1,6.1-0.2,9.4c1.5-2.4,3.6-5.3,6.4-8.8l11.5-14.3v-5.8h10.1v44.8   h-10.1V56c0-3.7,0.1-6.9,0.3-9.7c-1.4,2.3-3.4,5-5.9,8.2L515.3,69.9z"></path>
	<path class="st10" d="M555.2,74.4V29.6h10.1v17.3h17.5V29.6h10.1v44.8h-10.1V54.7h-17.5v19.7H555.2z"></path>
	<path class="st10" d="M605.1,74.4V29.6h27.8v7.9h-17.7v37H605.1z"></path>
</g>
<g>
	<path class="st10" d="M153.1,107.2h20.1v5h-14.1v24.7h-6V107.2z"></path>
	<path class="st10" d="M174.5,115.4h5.3v3.2c0.7-1.1,1.6-2,2.8-2.6s2.5-1,3.9-1c2.5,0,4.6,1,6.3,2.9c1.7,2,2.6,4.7,2.6,8.2   c0,3.6-0.9,6.4-2.6,8.4c-1.8,2-3.9,3-6.4,3c-1.2,0-2.3-0.2-3.2-0.7c-1-0.5-2-1.3-3-2.4V145h-5.7V115.4z M180.1,125.8   c0,2.4,0.5,4.2,1.4,5.3c1,1.2,2.1,1.7,3.5,1.7c1.3,0,2.4-0.5,3.3-1.6c0.9-1.1,1.3-2.8,1.3-5.2c0-2.2-0.5-3.9-1.4-5s-2-1.6-3.4-1.6   c-1.4,0-2.5,0.5-3.5,1.6S180.1,123.7,180.1,125.8z"></path>
	<path class="st10" d="M217.8,115.4v21.5h-5.6V128h-0.5c-1.2,0-2.1,0.2-2.7,0.5s-1.2,1-1.9,2l-0.3,0.4l-3.7,6h-6.6l4.1-6.2   c1.2-1.8,2.2-2.8,3.2-3.1c-1.6-0.1-2.9-0.7-3.9-1.8c-1-1.1-1.5-2.5-1.5-4.3c0-1.4,0.3-2.6,1-3.6c0.7-1,1.5-1.7,2.6-2   c1.1-0.4,2.7-0.5,4.8-0.5H217.8z M212.2,119.1h-4.1c-1.5,0-2.5,0.2-3.2,0.6c-0.6,0.4-0.9,1.1-0.9,2.1c0,1,0.3,1.7,1,2.1   c0.7,0.4,1.8,0.6,3.4,0.6h3.7V119.1z"></path>
	<path class="st10" d="M229.3,128.1v-3.7c1,0,1.7-0.1,2.1-0.2c0.4-0.1,0.9-0.4,1.3-0.9c0.4-0.5,0.6-1.1,0.6-1.7   c0-0.7-0.2-1.3-0.7-1.9c-0.5-0.6-1.2-0.9-2.2-0.9c-0.8,0-1.4,0.2-2,0.5c-0.6,0.3-1.1,1.1-1.6,2.3l-4.8-1c0.5-1.9,1.5-3.3,3.1-4.2   c1.6-0.9,3.4-1.4,5.4-1.4c2.6,0,4.6,0.6,6,1.8s2.1,2.7,2.1,4.5c0,1.1-0.3,2-0.9,2.8c-0.6,0.7-1.6,1.4-2.9,2.1   c1.6,0.4,2.8,1.1,3.6,2c0.8,0.9,1.2,2,1.2,3.3c0,1.7-0.8,3.1-2.3,4.3c-1.6,1.2-3.8,1.8-6.8,1.8c-5.1,0-8.3-2-9.4-6l5.2-1   c0.8,2.1,2.2,3.2,4.1,3.2c1.1,0,1.9-0.3,2.6-0.8c0.6-0.6,1-1.2,1-2c0-0.8-0.3-1.5-1-2s-1.5-0.7-2.6-0.7H229.3z"></path>
	<path class="st10" d="M244.3,115.4h5.7v8.9h5.7c2.2,0,4,0.2,5.2,0.5c1.2,0.3,2.2,1,3,2.1c0.8,1.1,1.2,2.3,1.2,3.7   c0,2.1-0.7,3.6-2.1,4.7c-1.4,1-3.6,1.6-6.4,1.6h-12.2V115.4z M249.9,133.3h5.3c1.7,0,2.7-0.3,3.2-0.8c0.5-0.5,0.7-1.2,0.7-1.9   c0-1-0.4-1.8-1.2-2.1c-0.8-0.4-2.2-0.6-4.3-0.6h-3.7V133.3z"></path>
	<path class="st10" d="M281.8,129.2h-5.2c0-0.7,0-1.2,0-1.4c0-1.7,0.3-3,0.8-4.1c0.6-1.1,1.7-2.3,3.3-3.6c1.7-1.3,2.6-2.2,3-2.6   c0.5-0.7,0.7-1.4,0.7-2.2c0-1.1-0.4-2.1-1.3-2.8c-0.9-0.8-2.1-1.2-3.6-1.2c-1.4,0-2.6,0.4-3.6,1.2c-1,0.8-1.6,2.1-2,3.8l-5.2-0.6   c0.1-2.4,1.2-4.5,3.1-6.1c1.9-1.7,4.4-2.5,7.5-2.5c3.3,0,5.9,0.9,7.8,2.6c1.9,1.7,2.9,3.7,2.9,6c0,1.3-0.4,2.4-1.1,3.6   c-0.7,1.1-2.2,2.6-4.5,4.6c-1.2,1-1.9,1.8-2.2,2.4C281.9,126.6,281.8,127.7,281.8,129.2z M276.7,136.9v-5.7h5.7v5.7H276.7z"></path>
	<path class="st10" d="M306.5,136.9v-29.6h6v11.7h11.7v-11.7h6v29.6h-6v-13h-11.7v13H306.5z"></path>
	<path class="st10" d="M348.7,130l5.7,0.9c-0.7,2.1-1.9,3.7-3.4,4.7c-1.6,1.1-3.5,1.6-5.9,1.6c-3.7,0-6.5-1.2-8.3-3.7   c-1.4-2-2.1-4.4-2.1-7.4c0-3.6,0.9-6.3,2.8-8.4c1.9-2,4.2-3,7.1-3c3.2,0,5.7,1.1,7.6,3.2c1.8,2.1,2.7,5.3,2.6,9.7h-14.2   c0,1.7,0.5,3,1.4,3.9c0.9,0.9,2,1.4,3.3,1.4c0.9,0,1.6-0.2,2.2-0.7S348.4,131.1,348.7,130z M349,124.3c0-1.6-0.5-2.9-1.3-3.8   s-1.8-1.3-3-1.3c-1.2,0-2.3,0.5-3.1,1.4c-0.8,0.9-1.2,2.1-1.2,3.7H349z"></path>
	<path class="st10" d="M359.2,131.2h5.7v4.1c0,1.6-0.1,2.9-0.4,3.9c-0.3,0.9-0.8,1.8-1.6,2.6c-0.8,0.8-1.8,1.3-3,1.8l-1.1-2.3   c1.1-0.4,2-0.9,2.4-1.6c0.5-0.7,0.7-1.6,0.8-2.7h-2.8V131.2z"></path>
	<path class="st10" d="M382.1,115.4h5.7v7.9h8.1v-7.9h5.7v21.5h-5.7v-9h-8.1v9h-5.7V115.4z"></path>
	<path class="st10" d="M419.8,130l5.7,0.9c-0.7,2.1-1.9,3.7-3.4,4.7c-1.6,1.1-3.5,1.6-5.9,1.6c-3.7,0-6.5-1.2-8.3-3.7   c-1.4-2-2.1-4.4-2.1-7.4c0-3.6,0.9-6.3,2.8-8.4c1.9-2,4.2-3,7.1-3c3.2,0,5.7,1.1,7.6,3.2c1.8,2.1,2.7,5.3,2.6,9.7h-14.2   c0,1.7,0.5,3,1.4,3.9c0.9,0.9,2,1.4,3.3,1.4c0.9,0,1.6-0.2,2.2-0.7S419.4,131.1,419.8,130z M420.1,124.3c0-1.6-0.5-2.9-1.3-3.8   s-1.8-1.3-3-1.3c-1.2,0-2.3,0.5-3.1,1.4c-0.8,0.9-1.2,2.1-1.2,3.7H420.1z"></path>
	<path class="st10" d="M460.6,121.8l-5.6,1c-0.2-1.1-0.6-2-1.3-2.5s-1.5-0.8-2.6-0.8c-1.4,0-2.5,0.5-3.4,1.5c-0.8,1-1.3,2.6-1.3,4.9   c0,2.5,0.4,4.3,1.3,5.4c0.9,1.1,2,1.6,3.4,1.6c1.1,0,2-0.3,2.6-0.9c0.7-0.6,1.2-1.7,1.5-3.2l5.6,0.9c-0.6,2.6-1.7,4.5-3.3,5.8   c-1.6,1.3-3.8,2-6.6,2c-3.1,0-5.6-1-7.5-3c-1.9-2-2.8-4.7-2.8-8.2c0-3.5,0.9-6.3,2.8-8.3c1.9-2,4.4-3,7.6-3c2.6,0,4.7,0.6,6.2,1.7   C458.8,117.7,459.9,119.5,460.6,121.8z"></path>
	<path class="st10" d="M466.4,115.4h19v21.5h-5.7V120H472v9.6c0,2.5-0.3,4.2-0.8,5.2c-0.6,1-1.2,1.6-1.9,2c-0.7,0.3-1.8,0.5-3.3,0.5   c-0.9,0-2.1-0.1-3.6-0.4v-4.2c0.1,0,0.4,0,0.9,0c0.6,0,1.1,0.1,1.4,0.1c0.8,0,1.2-0.3,1.4-0.8s0.3-1.9,0.3-4.2V115.4z"></path>
	<path class="st10" d="M491.2,115.4h5.7v8.9h5.7c2.2,0,3.9,0.2,5.1,0.5s2.2,1,3,2.1s1.2,2.3,1.2,3.8c0,2.1-0.7,3.6-2.1,4.7   c-1.4,1-3.6,1.6-6.4,1.6h-12.1V115.4z M496.9,133.3h5.3c1.4,0,2.4-0.2,3-0.6c0.6-0.4,0.9-1.1,0.9-2.1c0-1-0.4-1.7-1.2-2.1   c-0.8-0.4-2.2-0.6-4.3-0.6h-3.7V133.3z M515.2,115.4h5.7v21.5h-5.7V115.4z"></path>
	<path class="st10" d="M526.4,115.4h5.2v16.9h6.6v-16.9h5.2v16.9h6.6v-16.9h5.2v21.5h-28.8V115.4z"></path>
	<path class="st10" d="M565.3,122l-5.2-0.9c0.6-2.1,1.6-3.6,3-4.6c1.4-1,3.5-1.5,6.3-1.5c2.5,0,4.4,0.3,5.7,0.9   c1.2,0.6,2.1,1.4,2.6,2.3c0.5,0.9,0.8,2.6,0.8,5.1l-0.1,6.6c0,1.9,0.1,3.3,0.3,4.2c0.2,0.9,0.5,1.9,1,2.9h-5.6   c-0.1-0.4-0.3-0.9-0.5-1.7c-0.1-0.3-0.2-0.6-0.2-0.7c-1,0.9-2,1.7-3.1,2.1c-1.1,0.5-2.3,0.7-3.5,0.7c-2.2,0-4-0.6-5.2-1.8   c-1.3-1.2-1.9-2.7-1.9-4.5c0-1.2,0.3-2.3,0.9-3.2c0.6-1,1.4-1.7,2.4-2.2c1-0.5,2.5-0.9,4.5-1.3c2.7-0.5,4.5-1,5.5-1.4v-0.6   c0-1.1-0.3-1.9-0.8-2.3c-0.5-0.5-1.6-0.7-3.1-0.7c-1,0-1.8,0.2-2.4,0.6C566.1,120.3,565.6,121,565.3,122z M572.9,126.6   c-0.7,0.2-1.9,0.5-3.5,0.9c-1.6,0.3-2.6,0.7-3.1,1c-0.7,0.5-1.1,1.2-1.1,2c0,0.8,0.3,1.5,0.9,2.1c0.6,0.6,1.3,0.9,2.3,0.9   c1,0,2-0.3,2.9-1c0.7-0.5,1.1-1.1,1.4-1.9c0.1-0.5,0.2-1.4,0.2-2.8V126.6z"></path>
	<path class="st10" d="M585.6,115.4h19v21.5H599V120h-7.7v9.6c0,2.5-0.3,4.2-0.8,5.2c-0.6,1-1.2,1.6-1.9,2c-0.7,0.3-1.8,0.5-3.3,0.5   c-0.9,0-2.1-0.1-3.6-0.4v-4.2c0.1,0,0.4,0,0.9,0c0.6,0,1.1,0.1,1.4,0.1c0.8,0,1.2-0.3,1.4-0.8s0.3-1.9,0.3-4.2V115.4z"></path>
	<path class="st10" d="M610.2,115.4h5.5v13.5l8.7-13.5h5.6v21.5h-5.5v-13.7l-8.9,13.7h-5.5V115.4z"></path>
</g>
<rect x="149.8" y="84.7" class="st11" width="483" height="7.1"></rect>
</svg>
