<?xml version="1.0" encoding="UTF-8"?>
<svg xmlns="http://www.w3.org/2000/svg" xmlns:xlink="http://www.w3.org/1999/xlink" version="1.1" id="Слой_1" x="0px" y="0px" viewBox="0 0 120 140" style="enable-background:new 0 0 120 140;" xml:space="preserve">
<style type="text/css">
	.st0{fill:#007CFB;}
	.st1{fill:#FFFFFF;filter:url(#Adobe_OpacityMaskFilter);}
	.st2{mask:url(#mask0_801_26845_2_);}
	.st3{fill-rule:evenodd;clip-rule:evenodd;fill:#FFFFFF;}
</style>
<g>
	<path class="st0" d="M10,10c0-5.5,4.5-10,10-10h60c16.6,0,30,13.4,30,30v60c0,5.5-4.5,10-10,10H40c-16.6,0-30-13.4-30-30V10z"></path>
</g>
<defs>
	<filter id="Adobe_OpacityMaskFilter" filterUnits="userSpaceOnUse" x="31.6" y="18.9" width="57.5" height="61.3">
		<feColorMatrix type="matrix" values="1 0 0 0 0  0 1 0 0 0  0 0 1 0 0  0 0 0 1 0"></feColorMatrix>
	</filter>
</defs>
<mask maskUnits="userSpaceOnUse" x="31.6" y="18.9" width="57.5" height="61.3" id="mask0_801_26845_2_">
	<rect x="29.3" y="18.9" class="st1" width="61.3" height="61.3"></rect>
</mask>
<g class="st2">
	<path class="st3" d="M69.2,19.2c-2.4,0.5-4.3,1.6-6.2,3.4c-1.9,1.9-2.9,3.8-3.4,6.2c-0.2,1-0.2,1.8-0.2,11.3l0,10.3l-0.7,0.4   c-1,0.6-2.5,2.1-3.1,3.3c-1,1.9-1,2.1-1.1,7.7l-0.1,4.9h-2.9c-2.3,0-2.9,0-2.9-0.2c0-0.3-0.8-1.1-1.2-1.3L46.9,65v-4.1   c0-3.9,0-4.1-0.2-4.3c-0.2-0.2-0.4-0.2-0.7-0.2s-0.6,0.1-0.7,0.2C45,56.8,45,56.9,45,60.8v4h-1h-1v-7.6v-7.6h1h1v2.2   c0,2,0,2.2,0.2,2.4c0.3,0.3,1.1,0.3,1.4,0c0.2-0.2,0.2-0.4,0.2-2.4v-2.2l0.4-0.2c0.5-0.2,1.1-0.9,1.3-1.4c0.1-0.2,0.2-0.8,0.2-1.5   l0-1.1l3.8-5.7c4.6-6.8,4.4-6.4,2.8-7.5c-2.3-1.5-5.1-2.6-8-3.2c-1.7-0.3-5.4-0.3-7.1,0.1c-2.6,0.6-5.5,1.7-7.5,3   c-1.1,0.7-1.3,0.9-1.3,1.4c0,0.4,0.6,1.3,3.8,6.2l3.8,5.7l0,1.1c0,0.7,0.1,1.3,0.2,1.5c0.2,0.6,0.8,1.2,1.3,1.4l0.4,0.2v7.8V65   l-0.4,0.1c-0.6,0.2-1.3,1.1-1.5,1.9c-0.3,0.9-0.2,5,0.1,5.7c0.3,0.6,0.9,1.2,1.4,1.5l0.4,0.2v2.7c0,2.5,0,2.7,0.2,2.9   c0.2,0.2,0.4,0.2,2.6,0.2s2.4,0,2.6-0.2c0.2-0.2,0.2-0.4,0.2-2.9v-2.6l5.9,0l5.9,0l0.7-0.4c0.4-0.2,0.8-0.4,0.8-0.4   c0,0,0.1,1.3,0.1,3c0,2.9,0,3.1,0.2,3.3c0.2,0.2,0.4,0.2,14.1,0.2h13.9l0.3-0.3l0.3-0.3l0-11.6l0-11.6l-0.3-1   C88,53.6,86.8,52,85.2,51l-0.9-0.6l0-10.2c0-11.4,0-11.2-0.8-13.4c-1.2-3-4-5.8-7-7C74.3,18.9,71.4,18.7,69.2,19.2z M73.7,21.1   c3.1,0.5,6,2.6,7.4,5.5c0.8,1.6,1.1,2.6,1.2,4.7l0.1,1.1l-1.9-0.1c-1,0-2.1-0.1-2.2-0.2c-1.1-0.4-2.1,0.3-1.6,1.3   c0.2,0.5,1.2,0.9,2.2,0.9h0.7l-0.1,2.5c0,1.7-0.1,2.7-0.3,3.2c-0.7,2.6-2.9,4.8-5.5,5.5c-0.9,0.2-2.8,0.2-3.7,0   c-2.6-0.7-4.8-2.9-5.5-5.5c-0.1-0.5-0.2-1.5-0.3-3.2l-0.1-2.5l4.7,0l4.7,0l0.8-0.4c0.5-0.2,1.1-0.7,1.6-1.1   c0.7-0.7,0.8-0.8,0.8-1.2c0-0.6-0.4-1-1-1c-0.4,0-0.6,0.1-1.2,0.7c-1.2,1.2-0.9,1.1-7.4,1.2l-5.7,0.1l0-0.4c0-0.8,0.2-2.7,0.4-3.4   c0.4-1.7,1.6-3.6,2.9-4.9C67.1,21.5,70.3,20.5,73.7,21.1z M43.1,33.1c0,2.4,0,2.6,0.2,2.8c0.2,0.2,0.4,0.2,0.7,0.2s0.6-0.1,0.7-0.2   c0.2-0.2,0.2-0.4,0.2-2.8v-2.6l0.4,0c0.8,0,3.9,0.7,4.1,0.9c0,0-0.3,0.8-0.8,1.7c-0.9,1.8-1,2.3-0.6,2.8c0.2,0.2,0.9,0.3,1.3,0.2   c0.1,0,0.6-0.9,1.2-2c0.8-1.6,1-1.9,1.2-1.8c0.7,0.2,2.4,1.3,2.3,1.4c0,0.1-1.6,2.4-3.4,5.1l-3.3,5H44h-3.2l-3.3-5   c-1.8-2.8-3.4-5.1-3.4-5.1c-0.1-0.1,1.7-1.2,2.3-1.4c0.2-0.1,0.4,0.3,1.2,1.8c0.5,1.1,1,1.9,1.2,2c0.4,0.2,1,0.1,1.3-0.2   c0.4-0.4,0.3-0.9-0.6-2.8c-0.5-0.9-0.8-1.7-0.8-1.7c0-0.2,3.1-0.9,4-0.9l0.5,0V33.1z M62.2,35.2c0,0.7,0,0.8-0.2,0.8   c-0.3,0-0.6-0.4-0.6-0.8c0-0.5,0.3-0.9,0.6-0.9C62.2,34.4,62.2,34.5,62.2,35.2z M82,34.6c0.5,0.4,0.2,1.5-0.4,1.5   c-0.2,0-0.2-0.1-0.2-0.8c0-0.7,0-0.8,0.2-0.8C81.7,34.4,81.9,34.5,82,34.6z M67.3,35.4c-0.2,0.2-0.2,0.4-0.2,1.2   c0,1.2,0.2,1.4,1,1.4s1-0.3,1-1.4c0-1.2-0.2-1.4-1-1.4C67.7,35.2,67.4,35.3,67.3,35.4z M74.9,35.4c-0.2,0.2-0.2,0.4-0.2,1.2   c0,1.2,0.2,1.4,1,1.4c0.8,0,1-0.3,1-1.4c0-1.2-0.2-1.4-1-1.4C75.3,35.2,75.1,35.3,74.9,35.4z M62.2,38.7c0,3.3,2.6,6.9,6,8.3   l0.7,0.3l0,0.8c0,0.6-0.1,0.9-0.2,1.1c-0.3,0.4-0.6,0.3-0.8-0.1c-0.2-0.5-0.9-1.1-1.3-1.3c-0.4-0.2-1.4-0.2-1.8,0   c-0.5,0.2-1.1,0.8-1.3,1.3c-0.2,0.4-0.2,0.4-1.5,0.6l-0.6,0.1v-5.8V38l0.5,0l0.5,0L62.2,38.7z M82.4,43.8v5.9l-0.8-0.1   c-0.9-0.1-1.2-0.2-1.2-0.5c0-0.3-0.9-1.2-1.3-1.3c-0.5-0.2-1.5-0.2-2,0c-0.5,0.2-1,0.7-1.2,1.2c-0.2,0.5-0.5,0.5-0.8,0.2   c-0.2-0.2-0.2-0.4-0.2-1.1l0-0.8l0.7-0.3c2.3-0.9,4.3-2.9,5.2-5.2c0.4-1.1,0.7-2.2,0.7-3.1l0-0.6l0.4,0c0.2,0,0.5-0.1,0.5-0.1   C82.3,38,82.4,40.6,82.4,43.8z M46.9,46.4c-0.1,1.2-0.2,1.2-2.8,1.2s-2.7,0-2.8-1.2l-0.1-0.7H44h2.9L46.9,46.4z M72.8,48.5   c0,1.3,0.6,2.3,1.8,2.8c0.2,0.1,0.4,0.2,0.4,0.3c0,0.2-1,1.1-1.5,1.4c-0.5,0.2-0.8,0.3-1.6,0.3c-1,0-1.1,0-1.7-0.4   c-0.4-0.2-0.8-0.6-1.1-0.8l-0.4-0.5l0.6-0.3c1.2-0.6,1.7-1.4,1.7-2.8v-0.9h1h1V48.5z M65.9,49.9c0.1,0.1,0.1,1.6,0.1,3.8v3.5h-0.5   h-0.5v-3.5c0-2.2,0-3.6,0.1-3.8c0.1-0.1,0.2-0.2,0.4-0.2S65.9,49.8,65.9,49.9z M78.4,49.9c0.1,0.1,0.1,1.6,0.1,3.8v3.5H78h-0.5   v-3.5c0-2.2,0-3.6,0.1-3.8c0.1-0.1,0.2-0.2,0.4-0.2S78.3,49.8,78.4,49.9z M63.2,54.7v3.2l-1.3,2.6L60.6,63h-2.1h-2.1l0.1-3   c0-2.6,0.1-3.1,0.3-3.7c0.9-2.8,3.1-4.5,6.2-4.8C63.2,51.5,63.2,52.2,63.2,54.7z M82.2,51.8c1.9,0.5,3.7,2.1,4.4,4.1   c0.3,0.8,0.3,0.9,0.3,3.9l0,3.1h-2h-2l-1.3-2.6l-1.3-2.6v-3.2v-3.2l0.6,0.1C81.3,51.6,81.9,51.7,82.2,51.8z M75.6,55.6v1.7h-3.8H68   v-1.6V54l0.3,0.2c0.1,0.1,0.6,0.3,0.9,0.5c1.8,0.9,4.4,0.8,5.9-0.4c0.3-0.2,0.5-0.4,0.5-0.4C75.6,53.9,75.6,54.6,75.6,55.6z    M80.1,61.6l1.2,2.5v7.1v7.1h-9.5h-9.5v-7v-7l1.3-2.6l1.3-2.6h7h7L80.1,61.6z M60.2,67.6c0,3-0.1,3.3-0.9,4.1   c-0.8,0.8-0.5,0.8-9.4,0.8c-7.8,0-8.1,0-8.4-0.2c-0.3-0.2-0.3-0.3-0.3-2.4c0-2.2,0-2.2,0.3-2.6l0.3-0.3l2.1,0c2.6,0,2.6,0,2.9,0.9   c0.1,0.4,0.3,0.7,0.4,0.8c0.2,0.1,1.2,0.1,4.5,0.1c5.3,0,4.8,0.2,4.8-2.2v-1.7h1.9h1.9L60.2,67.6z M87,71.6v6.6h-1.9h-1.9v-6.6   v-6.6h1.9H87V71.6z M45,76.4v1.9h-1h-1v-1.9v-1.9h1h1V76.4z"></path>
</g>
</svg>
