<?xml version="1.0" encoding="UTF-8"?>
<svg xmlns="http://www.w3.org/2000/svg" xmlns:xlink="http://www.w3.org/1999/xlink" version="1.1" id="Слой_1" x="0px" y="0px" viewBox="0 0 120 140" style="enable-background:new 0 0 120 140;" xml:space="preserve">
<style type="text/css">
	.st0{fill:#007CFB;}
	.st1{fill:#FFFFFF;filter:url(#Adobe_OpacityMaskFilter);}
	.st2{mask:url(#mask0_801_26463_2_);}
	.st3{fill-rule:evenodd;clip-rule:evenodd;fill:#FFFFFF;}
</style>
<g>
	<path class="st0" d="M10,10c0-5.5,4.5-10,10-10h60c16.6,0,30,13.4,30,30v60c0,5.5-4.5,10-10,10H40c-16.6,0-30-13.4-30-30V10z"></path>
</g>
<defs>
	<filter id="Adobe_OpacityMaskFilter" filterUnits="userSpaceOnUse" x="30" y="20.2" width="60" height="59.9">
		<feColorMatrix type="matrix" values="1 0 0 0 0  0 1 0 0 0  0 0 1 0 0  0 0 0 1 0"></feColorMatrix>
	</filter>
</defs>
<mask maskUnits="userSpaceOnUse" x="30" y="20.2" width="60" height="59.9" id="mask0_801_26463_2_">
	<rect x="30" y="20.2" class="st1" width="60" height="60"></rect>
</mask>
<g class="st2">
	<path class="st3" d="M79.6,20.9l-0.8,0.8v1.3v1.3l0.8,0.8l0.8,0.8h1.3h1.3l0.8-0.8l0.8-0.8v-1.3v-1.3l-0.8-0.8l-0.8-0.8h-1.3h-1.3   L79.6,20.9z M47.1,23.6l-2,2v0.7v0.7h-1.6h-1.6l-2,2l-2,2v3.4v3.4h-1.1h-1.1v6.3v6.3h1.1h1.1v3.8v3.8l1.1,2.2l1.1,2.2h0.9h0.9   l0,0.6c0,0.3,0.1,3.7,0.3,7.5l0.3,6.9l1.4,1.4l1.4,1.4h10.5h10.5v-0.9v-0.9H56.1H46.1l-0.9-1l-0.9-1l-0.3-6.8   c-0.1-3.7-0.3-6.9-0.3-7c0-0.2,0.3-0.2,4.2-0.2h4.2v1.5v1.5h8.1h8.1v-1.5v-1.5h4.2h4.2l0,0.3c0,0.1-0.1,3.3-0.3,7l-0.3,6.7l-0.9,1   l-0.9,1h-2.9h-2.9v0.9V80h3.4h3.4l1.4-1.4l1.4-1.4l0.3-6.8c0.2-3.7,0.3-7.1,0.3-7.5l0-0.7h0.9h0.9l1.1-2.2l1.1-2.2v-3.8v-3.8h1.2   h1.2v-6.3v-6.3h-1.2h-1.2v-2.8v-2.8l-2-2l-2-2h-1h-1v-1v-1l-2-2l-2-2h-2.9h-2.9l-1,1l-1,1l-0.7-0.7l-0.7-0.7h-2.9h-2.9l-0.4,0.4   l-0.4,0.4l-1-1l-1-1H52h-2.9L47.1,23.6z M82.5,22.2c0.3,0.3,0.3,0.4,0.3,0.8c0,0.7-0.3,1.1-1,1.1c-0.7,0-1.1-0.3-1.1-1   C80.7,22,81.8,21.5,82.5,22.2z M55.4,24.8l1.4,1.4l0.8-0.8l0.8-0.8h2.1h2.1l1.1,1.1l1.1,1.1l1.4-1.4l1.4-1.4h2h2l1.5,1.5l1.5,1.5   v1.5v1.5h1.5h1.5l1.5,1.5l1.5,1.5v2.4v2.4H78h-2.7v2.8c0,2.7,0,2.8-0.3,3.1c-0.3,0.4-1.2,0.4-1.6,0l-0.3-0.3v-3.7v-3.7h-0.9h-0.9   v2.9c0,2.8,0,2.9-0.3,3.2c-0.4,0.4-1.1,0.4-1.5,0l-0.3-0.3v-3.4V35h-0.9h-0.9v4.8c0,5.4,0,5.2-0.9,5.2c-0.4,0-0.6-0.1-0.8-0.3   c-0.3-0.3-0.3-0.3-0.3-3.6v-3.3H52.5H39.7v-3v-3l1.5-1.5l1.5-1.5h2.1H47v-1.3v-1.3l1.5-1.5l1.5-1.5H52H54L55.4,24.8z M51.3,29.3   v0.9h0.9h0.9v-0.9v-0.9h-0.9h-0.9V29.3z M69.7,29.9v0.9h0.9h0.9v-0.9v-0.9h-0.9h-0.9V29.9z M85,30.9l-0.8,0.8V33v1.3l0.8,0.8   l0.8,0.8h1.3h1.3l0.7-0.7l0.7-0.7V33v-1.5l-0.7-0.7l-0.7-0.7h-1.3h-1.3L85,30.9z M30.8,32.1L30,32.9v1.4v1.4l0.8,0.8l0.8,0.8h1.2   H34l0.8-0.9l0.8-0.9v-1.3v-1.3l-0.8-0.8l-0.8-0.8h-1.3h-1.3L30.8,32.1z M87.9,32.2c0.4,0.4,0.4,1.2,0,1.6c-0.4,0.4-1.1,0.5-1.5,0.1   c-0.4-0.4-0.4-1.3,0-1.7C86.7,31.9,87.5,31.9,87.9,32.2z M58.2,33.9v0.9h0.9H60v-0.9v-0.9h-0.9h-0.9V33.9z M33.6,33.4   c0.4,0.4,0.4,1.3,0,1.7c-0.4,0.4-1.1,0.4-1.5-0.1c-0.4-0.4-0.4-1.2-0.1-1.6C32.3,33.1,33.2,33.1,33.6,33.4z M63.5,42.5v2.8l0.8,0.8   l0.8,0.8h1.3h1.3l0.7-0.7c0.7-0.7,0.7-0.8,0.7-1.2v-0.5h1.1h1.1l0.8,0.8l0.8,0.8h1.3h1.3l0.8-0.8l0.8-0.8V42v-2.3h2.9h2.9v4.4v4.4   h-16h-16v0.9v0.9h13.1h13.1l0,0.8c0,0.4-0.1,2.6-0.2,4.7c-0.1,2.2-0.2,4.1-0.2,4.2l0,0.3h-4.3h-4.3V59v-1.5h-8.1h-8.1V59v1.5h-4.3   h-4.3l0-0.4c0-0.2-0.1-2.1-0.2-4.3c-0.1-2.2-0.2-4.3-0.2-4.7l0-0.7H46h2.8v-0.9v-0.9h-5.7h-5.7v-4.4v-4.4h13.1h13.1V42.5z    M41.3,51.1c0,0.4,0.1,2.5,0.2,4.7c0.2,5.1,0.2,4.7-0.1,4.7c-0.2,0-0.4-0.3-1-1.5l-0.8-1.5v-3.5v-3.5h0.8h0.8L41.3,51.1z M80.7,54   v3.6L80,59c-0.6,1.2-0.8,1.5-1,1.5c-0.3,0-0.3,0.5-0.1-4.6c0.1-2.2,0.2-4.3,0.2-4.7l0-0.7h0.8h0.8V54z M66.4,61.4v2h-6.2H54v-2v-2   h6.2h6.2V61.4z M57.6,72.3v0.9h0.9h0.9v-0.9v-0.9h-0.9h-0.9V72.3z M60.6,72.3v0.9h0.9h0.9v-0.9v-0.9h-0.9h-0.9V72.3z"></path>
</g>
</svg>
