<?xml version="1.0" encoding="UTF-8"?>
<svg xmlns="http://www.w3.org/2000/svg" xmlns:xlink="http://www.w3.org/1999/xlink" version="1.1" id="Слой_1" x="0px" y="0px" viewBox="0 0 120 140" style="enable-background:new 0 0 120 140;" xml:space="preserve">
<style type="text/css">
	.st0{fill:#007CFB;}
	.st1{fill:#FFFFFF;filter:url(#Adobe_OpacityMaskFilter);}
	.st2{mask:url(#mask0_801_26854_2_);}
	.st3{fill-rule:evenodd;clip-rule:evenodd;fill:#FFFFFF;}
</style>
<g>
	<path class="st0" d="M10,10c0-5.5,4.5-10,10-10h60c16.6,0,30,13.4,30,30v60c0,5.5-4.5,10-10,10H40c-16.6,0-30-13.4-30-30V10z"></path>
</g>
<defs>
	<filter id="Adobe_OpacityMaskFilter" filterUnits="userSpaceOnUse" x="31.2" y="20.4" width="63.9" height="59.9">
		<feColorMatrix type="matrix" values="1 0 0 0 0  0 1 0 0 0  0 0 1 0 0  0 0 0 1 0"></feColorMatrix>
	</filter>
</defs>
<mask maskUnits="userSpaceOnUse" x="31.2" y="20.4" width="63.9" height="59.9" id="mask0_801_26854_2_">
	<rect x="31.2" y="18.4" class="st1" width="63.9" height="63.9"></rect>
</mask>
<g class="st2">
	<path class="st3" d="M52.3,20.6c-0.7,0.3-1.3,0.9-1.6,1.5l-0.2,0.5l-0.5-0.2c-0.6-0.2-1.2-0.2-2,0c-2.1,0.6-2.9,3.2-1.5,5l0.3,0.4   l-0.6,0.3c-1.2,0.5-2,1.8-2.1,3.1c0,1,0.2,1.5,1.3,3.1l1,1.4l-0.4,0.2c-1.1,0.4-1.9,1.6-1.9,2.8c0,0.8,0.2,1.3,0.8,2.3l0.5,0.8   L44,43.3c-1.4,1.4-1.5,1.6-1.5,2c0,0.6,0.4,0.9,1,0.9c0.4,0,0.7-0.3,5.2-4.7c14.8-14.7,13.4-13.4,14-13.4c0.7,0,1.2,0.5,1.2,1.1   c0,0.5-0.2,0.7-4.4,5c-4.1,4.2-4.4,4.5-4.4,5c0,0.8,0.9,1.3,1.5,0.8c0.1-0.1,2.6-2.7,5.6-5.8c3.7-3.8,5.6-5.7,5.9-5.8   c1.1-0.5,2.3,0.8,1.8,1.9c-0.1,0.2-1.4,1.7-2.8,3.2c-9.1,9.6-8.7,9.2-8.7,9.6c0,0.6,0.4,1,1,1c0.5,0,0.6-0.1,7.5-7.5   c3.9-4.1,7.1-7.5,7.3-7.5c1-0.4,2,0.7,1.4,1.6c-0.1,0.2-3.1,3.8-6.6,8c-6.8,8.1-6.7,7.9-6.2,8.6c0.3,0.4,0.9,0.5,1.2,0.2   c0.2-0.1,2.9-3.2,6-7c3.1-3.7,5.9-6.9,6.1-7.1c0.3-0.3,0.5-0.3,0.9-0.3c0.5,0,0.6,0.1,1,0.4c0.3,0.3,0.4,0.5,0.4,0.9   c0,0.4-0.5,1.2-5.6,8.5c-7.3,10.5-7.2,10.2-7.2,10.6c0,0.5,0.5,0.9,1,0.9c0.4,0,0.7-0.2,1.2-1l0.2-0.3l0.5,0.5   c1.6,1.5,4.1,1.7,5.9,0.5c1.2-0.8,2-2.4,2-3.8V50l0.7-0.3c1.7-0.6,3-2,3.5-3.8c0.3-1.1,0.3-2.7-0.1-3.7c-0.4-1-1.2-2-2.1-2.7   L78.1,39l1.8-0.1c1,0,1.9-0.1,2-0.2c0.6-0.3,0.9-0.9,1.8-3.5c0.5-1.5,1.1-3,1.3-3.3c0.7-1.3,2.2-2.4,3.7-2.8   c0.5-0.1,0.6-0.1,0.9,0.1c0.6,0.5,0.6,0.7,0,2.8c-0.3,1-0.6,2-0.6,2.1c0,0.4,0.6,0.8,1,0.8c0.7,0,0.9-0.3,1.5-2.4   c0.7-2.2,0.8-2.8,0.3-3.8c-0.5-1-1.7-1.8-2.8-1.8c-0.6,0-2.2,0.6-3.1,1.1c-0.9,0.6-2.1,1.8-2.7,2.7c-0.2,0.4-0.9,1.9-1.4,3.4   l-1,2.6l-0.7,0l-0.7,0l0.3-0.4c1.3-1.8,0.5-4.3-1.4-5.1l-0.7-0.3l0-0.9c0-1.4-0.6-2.3-1.7-2.9c-1.2-0.6-2.7-0.3-3.7,0.7l-0.4,0.4   l-0.2-0.4c-0.1-0.2-0.3-0.5-0.5-0.7c-0.2-0.3-0.3-0.5-0.3-1.3c-0.2-2.8-2.8-4.6-5.4-3.7l-0.8,0.3L64,22.2c-0.9-0.7-1.7-0.9-2.9-0.9   c-1.2,0.1-1.9,0.4-2.7,1.2l-0.6,0.6L56.7,22c-0.7-0.7-1.4-1.2-1.7-1.4C54.2,20.3,53,20.3,52.3,20.6z M35.8,22.1   c-0.9,0.3-1.6,0.8-2,1.4C33.1,24.4,33,24.8,33,26c0,0.9,0,1.2,0.3,1.7c0.4,0.9,1.2,1.6,2,2c0.6,0.3,0.9,0.4,1.9,0.4   c0.9,0,1.2-0.1,1.7-0.3c0.9-0.5,1.6-1.1,2-2c0.8-1.5,0.5-3.4-0.6-4.7C39.2,22.1,37.2,21.6,35.8,22.1z M55.1,23.2l1,0.9l-0.6,0.3   c-0.7,0.4-1,0.6-1.4,1.2l-0.3,0.4L53,25.2c-0.7-0.8-0.8-1-0.8-1.4c0-0.5,0.1-0.6,0.4-1c0.3-0.3,0.5-0.4,0.9-0.4   C54.1,22.4,54.2,22.4,55.1,23.2z M62.2,23.5c0.2,0.1,0.6,0.4,1,0.8c0.6,0.6,0.7,0.7,1.2,0.7c0.3,0,0.8-0.1,1.2-0.4   c1-0.5,1.8-0.5,2.6,0.2c0.4,0.3,0.7,1,0.7,1.3c0,0.1-0.1,0.2-0.3,0.2c-0.6,0-1.6,0.4-2.2,0.9l-0.7,0.5l-0.6-0.6   c-0.7-0.8-1.3-1.1-2.4-1.1c-1.3,0-1.6,0.2-4.2,2.8c-2.6,2.5-2.4,2.5-3.1,1.4c-0.3-0.5-0.4-0.7-0.4-1.5c0-0.8,0-1,0.4-1.5   c0.5-0.8,1.3-1.3,2.2-1.4c1-0.1,1.3-0.3,1.7-1.2c0.3-0.7,0.8-1.1,1.3-1.3C60.9,23.3,61.8,23.3,62.2,23.5z M37.9,24   c0.6,0.3,0.9,0.5,1.2,1.1c0.3,0.6,0.3,1.1,0,1.8c-0.5,1-1.6,1.5-2.7,1.2c-0.6-0.2-1.3-1-1.4-1.6c-0.2-1,0.3-2,1.2-2.4   C36.8,23.8,37.3,23.8,37.9,24z M49.4,24.4c0.1,0.1,1,1,1.9,2.1l1.7,1.9l0.1,0.9c0.1,1.1,0.6,2.2,1.3,2.9l0.5,0.5l-0.5,0.5l-0.5,0.5   l-0.4-0.5c-0.2-0.3-1.6-2-3-3.9c-2.9-3.8-2.9-3.9-2.2-4.6C48.5,24.2,49,24.1,49.4,24.4z M48.4,30.1c0.2,0.2,1.1,1.3,2.1,2.6   l1.8,2.4l-1.1,1.1l-1.1,1.1l-0.2-0.3c-1.5-2-3.7-5.1-3.8-5.4C45.8,30.4,47.4,29.3,48.4,30.1z M34.8,36.4c-1.3,0.6-2.1,2.2-1.7,3.5   c0.6,2.4,3.6,3.1,5.2,1.3c1.4-1.6,0.8-4.1-1.1-4.9C36.6,36.1,35.4,36.2,34.8,36.4z M88.2,37.2c-0.1,0.1-0.4,0.8-0.6,1.5   c-2.4,7.5-2.6,8.2-3.2,9.5c-0.4,0.8-1.1,2-1.7,2.8c-1,1.3-1.3,2-1.3,2.5c0,0.5,0.4,1.7,0.6,1.9c0.4,0.4,1.1,0.3,1.4-0.1   c0.3-0.4,0.4-0.6,0.1-1.3c-0.2-0.5-0.2-0.6,0-0.8c0.1-0.1,0.6-0.8,1.1-1.4c1.5-2,2.2-3.6,3.8-8.8c0.8-2.5,1.4-4.8,1.4-5   c0-0.3-0.1-0.5-0.2-0.7C89.2,36.9,88.5,36.9,88.2,37.2z M47.8,37.7c0.2,0.1,0.4,0.3,0.6,0.5l0.3,0.4l-0.8,0.8L47,40.3l-0.4-0.6   c-0.5-0.8-0.5-1.3,0-1.7C46.9,37.6,47.3,37.5,47.8,37.7z M36.7,38.5c0.8,0.8-0.2,2.2-1.2,1.6c-0.5-0.3-0.7-0.8-0.5-1.3   c0.2-0.5,0.4-0.6,1-0.6C36.3,38.2,36.5,38.3,36.7,38.5z M77.8,41.3c0.9,0.7,1.3,1.6,1.3,3c0,0.9,0,1.1-0.4,1.7   c-0.4,0.8-1.2,1.4-1.9,1.7c-0.3,0.1-0.8,0.3-1.1,0.4c-0.7,0.3-1,0.7-1,1.8c0,1.1-0.2,1.6-0.6,2.2c-1.1,1.3-3.3,1.2-4.3-0.2   l-0.3-0.5l3.7-5.3c2-2.9,3.8-5.3,3.9-5.3C77.1,40.8,77.5,41,77.8,41.3z M90.7,44.9c-0.7,0.2-1.4,0.6-1.8,1.1   c-1.2,1.5-1.1,3.4,0.2,4.8c1.3,1.3,3.4,1.4,4.8,0.1c1.5-1.4,1.6-3.8,0.1-5.2C93.2,44.9,91.8,44.5,90.7,44.9z M92.1,46.9   c0.9,0.4,1.2,1.4,0.7,2.2c-0.2,0.4-0.8,0.7-1.3,0.7c-0.4,0-1.1-0.5-1.3-0.9c-0.4-0.7,0-1.7,0.7-2.1C91.5,46.6,91.6,46.6,92.1,46.9z    M39.3,47.9c-1.9,1.8-3,3.5-3.9,5.9l-0.5,1.5l-1.6,1.2c-2.1,1.6-2.1,1.6-2.1,2.2c0,0.6,0.3,0.9,0.9,0.9c0.4,0,1.1-0.4,3.8-2.6   c0.8-0.6,0.8-0.6,1.2-2c0.8-2.5,1.7-3.9,3.6-5.8c0.7-0.7,0.8-0.9,0.8-1.3c0-0.6-0.4-1-1-1C40.2,47.1,40,47.2,39.3,47.9z M63.8,56.1   C63.4,56.4,62,58.7,62,59c-0.1,1.1,0.3,2,0.9,2.4c0.8,0.5,1,0.5,6-0.2c2.6-0.3,5-0.6,5.3-0.6c0.9,0,1.7,0.6,1.8,1.5   c0.1,0.7,0,1-0.4,1.4c-0.3,0.4-1,0.7-4.3,1.9C54.8,72,55.4,71.8,52.9,72c-1.1,0.1-1.8,0.1-3.1,0L48,71.9l-5.3,3.3   c-2.9,1.8-5.4,3.4-5.6,3.5c-0.4,0.3-0.3,1,0,1.4c0.5,0.5,0.7,0.4,6.2-2.9l5.2-3.2l1.4,0.1c1.5,0.1,3.7,0,5.2-0.3   c1.3-0.3,2.3-0.6,6.9-2.4c2.3-0.9,4.2-1.6,4.2-1.5c0.1,0.1,2,6.2,2.9,9.4c0.2,0.8,0.5,1.1,1.1,1.1c0.6,0,0.9-0.4,0.9-0.9   c0-0.3-2.1-7.5-3-10.1l-0.1-0.3l3.8-1.5c2.1-0.8,4-1.6,4.3-1.8c2.1-1.2,2.4-4.3,0.7-6c-1.3-1.3-1.9-1.3-8-0.5   c-2.5,0.3-4.7,0.6-4.8,0.6c-0.3-0.1-0.2-0.4,0.5-1.5c0.4-0.6,0.8-1.3,0.8-1.4c0-0.5-0.5-0.9-1-0.9C64.2,55.9,63.9,56,63.8,56.1z    M83.7,57.2c-2.2,0.5-3.8,2.8-3.4,5c0.2,1,0.5,1.6,1.4,2.6c0.5,0.5,0.7,0.9,0.8,1.2c0.6,3.3,5,4,6.5,1.1c0.5-1,0.6-2,0.1-3.2   c-0.3-0.7-0.3-0.9-0.2-1.5c0.4-1.9-0.7-4.1-2.5-4.9C85.7,57.1,84.5,57,83.7,57.2z M85.9,59.5c0.4,0.2,0.6,0.5,0.9,1   c0.3,0.7,0.3,0.7,0.2,1.6c-0.1,1-0.1,1.7,0.3,2.5c0.5,1.2-0.1,2.3-1.4,2.3c-0.7,0-1.2-0.6-1.5-1.7c-0.2-0.7-0.4-1-1-1.6   c-0.4-0.4-0.8-0.9-0.9-1c-0.5-0.9-0.3-1.9,0.4-2.6C83.8,59,84.8,58.8,85.9,59.5z M87.3,70.6c-0.1,0.1-0.2,0.3-0.3,0.5   c-0.1,0.4,2.5,8.5,2.8,8.9c0.5,0.5,1.5,0.3,1.6-0.4c0.1-0.4-2.6-8.8-2.9-9C88.3,70.3,87.5,70.3,87.3,70.6z"></path>
</g>
</svg>
