<?xml version="1.0" encoding="UTF-8"?>
<svg xmlns="http://www.w3.org/2000/svg" xmlns:xlink="http://www.w3.org/1999/xlink" version="1.1" id="Слой_1" x="0px" y="0px" viewBox="0 0 120 140" style="enable-background:new 0 0 120 140;" xml:space="preserve">
<style type="text/css">
	.st0{fill:#007CFB;}
	.st1{fill:#FFFFFF;filter:url(#Adobe_OpacityMaskFilter);}
	.st2{mask:url(#mask0_801_26441_2_);}
	.st3{fill-rule:evenodd;clip-rule:evenodd;fill:#FFFFFF;}
</style>
<g>
	<path class="st0" d="M10,10c0-5.5,4.5-10,10-10h60c16.6,0,30,13.4,30,30v60c0,5.5-4.5,10-10,10H40c-16.6,0-30-13.4-30-30V10z"></path>
</g>
<defs>
	<filter id="Adobe_OpacityMaskFilter" filterUnits="userSpaceOnUse" x="32.4" y="19.4" width="60" height="60">
		<feColorMatrix type="matrix" values="1 0 0 0 0  0 1 0 0 0  0 0 1 0 0  0 0 0 1 0"></feColorMatrix>
	</filter>
</defs>
<mask maskUnits="userSpaceOnUse" x="32.4" y="19.4" width="60" height="60" id="mask0_801_26441_2_">
	<rect x="32.4" y="19.4" class="st1" width="60" height="60"></rect>
</mask>
<g class="st2">
	<path class="st3" d="M81.7,19.6c-0.2,0.2-0.3,0.5-0.4,0.9c-0.2,1.6-1.1,2.5-2.8,2.8c-0.9,0.1-1.2,0.4-1.2,1.1c0,0.7,0.3,1,1.2,1.1   c1.6,0.2,2.6,1.2,2.8,2.8c0.1,0.8,0.4,1.2,1,1.2c0.7,0,1-0.4,1.1-1.2c0.2-1.6,1.1-2.5,2.7-2.7c0.9-0.1,1.2-0.4,1.2-1.1   c0-0.7-0.3-0.9-1.2-1.1c-1.6-0.2-2.5-1.1-2.7-2.7c-0.1-0.5-0.2-0.8-0.4-1C82.7,19.3,82.1,19.3,81.7,19.6z M57.2,22.5   c-1.1,0.4-2,1.2-2.5,2.3c-0.8,1.7-0.2,3.8,1.3,4.9c0.8,0.5,1.4,0.7,2.4,0.7c1,0,1.6-0.2,2.4-0.7c1.5-1.1,2.1-3.2,1.3-4.9   c-0.4-0.8-1.1-1.6-1.9-2c-0.5-0.3-0.8-0.3-1.6-0.3C58,22.4,57.4,22.5,57.2,22.5z M82.9,24.8l-0.4,0.4L82,24.8l-0.5-0.5L82,24   l0.4-0.4l0.5,0.4l0.5,0.4L82.9,24.8z M68.4,25.5v1.1h1.1h1.1v-1.1v-1.1h-1.1h-1.1V25.5z M59.3,24.7c1.2,0.6,1.4,2.4,0.3,3.2   c-0.7,0.6-1.7,0.6-2.4,0c-1-0.8-0.9-2.6,0.3-3.2C58,24.5,58.8,24.5,59.3,24.7z M44.6,29.4c-6.2,0.9-11,5.5-12.1,11.5   c-0.2,1.3-0.2,3.8,0,5c1.1,5.6,5.3,9.9,10.8,11.2c2.2,0.5,4.9,0.4,7-0.3c0.4-0.1,0.8-0.2,0.8-0.2c0,0,0.3,0.6,0.6,1.3l0.5,1.2   L52,59.4c-1.8,1.2-3.4,3.5-4.2,6c-0.3,1-0.3,1.2-0.3,3c0,1.6,0,2.1,0.3,2.8c1.2,4.2,4.6,7.4,8.9,8.1c1.3,0.2,3.6,0.1,4.8-0.2   c3.5-1,6.3-3.6,7.5-6.9l0.3-0.7l2.4,0c2.7,0,3.7-0.2,5.8-0.8c7.6-2.2,13.2-8.4,14.8-16.1c0.3-1.6,0.4-5,0.2-6.7   c-0.9-7.1-5.4-13.3-11.9-16.4c-5.7-2.7-12.3-2.7-18,0c-1.4,0.6-3.5,2-4.4,2.8l-0.5,0.4l-1.1-1.1c-2-2.1-4.4-3.4-7.3-4   C48,29.4,45.6,29.3,44.6,29.4z M49.1,31.8c1.8,0.4,3.3,1.2,4.8,2.4c0.8,0.6,1.9,1.8,1.9,2c0,0-0.3,0.4-0.6,0.8   c-3.8,4.4-5.5,10.7-4.6,16.6c0.1,0.7,0.1,1,0,1c-0.2,0.2-1.9,0.6-2.8,0.7c-0.5,0.1-1.4,0.1-2.1,0.1c-6.3-0.4-11.2-5.6-11.2-11.9   c0-5.9,4.4-11,10.3-11.8C45.9,31.4,48,31.5,49.1,31.8z M74.5,31.7c6.1,1,11.4,5,13.9,10.5c1.2,2.6,1.7,4.6,1.8,7.6   c0.1,1.9,0,2.4-0.2,3.6c-1.3,7.8-7.3,13.9-15,15.5c-1.2,0.2-4.5,0.4-5.2,0.3l-0.4-0.1v-1c0-4.4-2.8-8.4-6.9-10.1   c-2.3-0.9-5.1-1-7.5-0.2c-0.5,0.2-0.9,0.3-0.9,0.3c0,0-0.2-0.6-0.5-1.2c-2.3-6.3-1.1-13.4,3.1-18.5c3.2-3.9,7.6-6.2,12.7-6.9   C70.6,31.4,73.2,31.5,74.5,31.7z M44.3,33.5c-4.9,0.9-7.9,5-7.9,10.8l0,1.2h0.3c0.2,0,0.7,0,1-0.1l0.7-0.1l0.1-1.5   c0.2-3.4,1.3-5.8,3.5-7.2c0.9-0.6,2.3-1.1,3.5-1.2l1-0.1v-1v-1l-0.7,0C45.4,33.3,44.7,33.4,44.3,33.5z M72.4,34.3v1l0.7,0.1   c6,0.7,10.5,4.3,12.4,10.1c0.4,1.2,0.9,3.3,0.9,3.8c0,0.2,0.1,0.2,0.3,0.2c0.1,0,0.6-0.1,1.1-0.1c0.9-0.1,0.9,0,0.5-1.8   c-0.7-3.7-2.3-6.9-4.6-9.3c-1.4-1.4-2.7-2.4-4.4-3.2c-2-0.9-4-1.5-6.1-1.7l-0.7-0.1V34.3z M68,37.4c-0.4,0.2-0.6,0.6-0.6,1.1   c0,0.6-0.3,1.2-0.8,1.8c-0.5,0.6-1.1,0.9-2.1,1c-0.9,0.1-1.3,0.8-1,1.5c0.2,0.4,0.7,0.6,1.4,0.6c1.1,0,2.5,1.5,2.5,2.7   c0,1,1.2,1.6,1.9,0.8c0.1-0.1,0.2-0.6,0.3-1c0.3-1.5,1.1-2.3,2.6-2.6c0.9-0.1,1.3-0.5,1.3-1.1c0-0.6-0.4-1-1.3-1.1   c-1.5-0.2-2.3-1.1-2.6-2.6C69.3,37.5,68.8,37.1,68,37.4z M68.9,42.8l-0.4,0.4L68,42.8l-0.5-0.4L68,42l0.5-0.4l0.4,0.4l0.4,0.4   L68.9,42.8z M44.4,46.4v1.1h1.1h1.1v-1.1v-1.1h-1.1h-1.1V46.4z M79.8,46.5c-0.2,0.1-0.3,0.3-0.4,0.4c0,0.1-0.1,0.5-0.2,0.9   c-0.2,0.8-0.4,1.2-1,1.7c-0.5,0.5-1.2,0.7-1.8,0.7c-0.4,0-1,0.3-1.1,0.5c-0.3,0.7,0.2,1.6,0.8,1.6c0.5,0,1.4,0.3,1.9,0.6   c0.6,0.5,1,1.1,1.1,2c0.2,1,0.4,1.3,1.1,1.3c0.6,0,0.9-0.3,1.1-1.3c0.1-0.4,0.3-1,0.4-1.3c0.5-0.8,1.6-1.4,2.5-1.4   c0.4,0,0.9-0.4,1-0.8c0.2-0.7-0.4-1.3-1.2-1.3c-1.2,0-2.7-1.4-2.7-2.6c0-0.6-0.2-1.1-0.6-1.3C80.5,46.3,80.2,46.3,79.8,46.5z    M80.8,51.8l-0.4,0.4L80,51.9l-0.4-0.4L80,51l0.4-0.5l0.4,0.5l0.4,0.5L80.8,51.8z M60.1,59.6c4.2,0.9,7.2,4.5,7.2,8.8   c0,3.8-2.4,7.2-6.2,8.5c-0.9,0.3-1.1,0.3-2.8,0.3c-1.7,0-1.9,0-2.8-0.4c-1.3-0.5-2.1-1-3.2-2c-1.9-1.7-2.9-4-2.9-6.5   C49.5,62.7,54.7,58.5,60.1,59.6z M44.4,61.4l0,1l1,0l1,0v-1.1v-1.1h-1.1h-1.1L44.4,61.4z M72.4,62.4v1.1h1.1h1.1v-1.1v-1.1h-1.1   h-1.1V62.4z M39.9,63.5c-0.3,0.2-0.6,0.8-0.6,1.3c0,0.4-0.3,1.1-0.7,1.5c-0.5,0.5-1.4,0.9-1.9,1c-0.8,0-1.4,0.6-1.2,1.3   c0.1,0.4,0.6,0.8,1,0.8c0.6,0,1.5,0.3,1.9,0.7c0.5,0.5,0.9,1.3,1,2.1c0.1,0.7,0.5,1.1,1,1.1c0.6,0,1-0.4,1.1-1.3   c0.2-1.4,1.1-2.4,2.4-2.6c0.9-0.2,1.3-0.3,1.4-0.7c0.3-0.7-0.3-1.5-1.2-1.5c-0.6,0-1.5-0.5-2-1.1c-0.5-0.5-0.6-0.9-0.7-1.8   c0-0.3-0.2-0.7-0.3-0.8C40.9,63.3,40.3,63.3,39.9,63.5z M40.9,68.8l-0.4,0.5L40,68.9l-0.4-0.4l0.4-0.5l0.4-0.5l0.4,0.5l0.4,0.5   L40.9,68.8z M87,68.7c-1.8,0.9-2.2,3.2-0.9,4.7c0.8,1,2,1.3,3.2,0.9c1.8-0.5,2.7-2.6,1.8-4.3c-0.5-1-1.4-1.6-2.7-1.6   C87.8,68.3,87.6,68.4,87,68.7z M89,70.6c0.3,0.2,0.4,0.8,0.3,1.1c-0.3,0.6-1,0.7-1.5,0.2C87,71.2,88.1,70,89,70.6z M34.4,75.4v1.1   h1.1h1.1v-1.1v-1.1h-1.1h-1.1V75.4z M78.3,75.4v1.1h1.1h1.1v-1.1v-1.1h-1.1h-1.1V75.4z"></path>
</g>
</svg>
