<svg width="140" height="24" viewBox="0 0 140 24" fill="none" xmlns="http://www.w3.org/2000/svg">
<mask id="mask0_801_12010" style="mask-type:alpha" maskUnits="userSpaceOnUse" x="0" y="0" width="24" height="24">
<path d="M0 0H24V24H0V0Z" fill="white"/>
</mask>
<g mask="url(#mask0_801_12010)">
<path d="M12.0008 17.7498L5.82881 20.9948L7.00781 14.1218L2.00781 9.25483L8.90781 8.25483L11.9938 2.00183L15.0798 8.25483L21.9798 9.25483L16.9798 14.1218L18.1588 20.9948L12.0008 17.7498Z" fill="#F7C02D"/>
</g>
<mask id="mask1_801_12010" style="mask-type:alpha" maskUnits="userSpaceOnUse" x="28" y="0" width="25" height="24">
<path d="M28.8047 0H52.8047V24H28.8047V0Z" fill="white"/>
</mask>
<g mask="url(#mask1_801_12010)">
<path d="M40.8055 17.7498L34.6335 20.9948L35.8125 14.1218L30.8125 9.25483L37.7125 8.25483L40.7985 2.00183L43.8845 8.25483L50.7845 9.25483L45.7845 14.1218L46.9635 20.9948L40.8055 17.7498Z" fill="#F7C02D"/>
</g>
<mask id="mask2_801_12010" style="mask-type:alpha" maskUnits="userSpaceOnUse" x="57" y="0" width="25" height="24">
<path d="M57.5977 0H81.5977V24H57.5977V0Z" fill="white"/>
</mask>
<g mask="url(#mask2_801_12010)">
<path d="M69.5985 17.7498L63.4265 20.9948L64.6055 14.1218L59.6055 9.25483L66.5055 8.25483L69.5915 2.00183L72.6775 8.25483L79.5775 9.25483L74.5775 14.1218L75.7565 20.9948L69.5985 17.7498Z" fill="#F7C02D"/>
</g>
<mask id="mask3_801_12010" style="mask-type:alpha" maskUnits="userSpaceOnUse" x="86" y="0" width="25" height="24">
<path d="M86.4023 0H110.402V24H86.4023V0Z" fill="white"/>
</mask>
<g mask="url(#mask3_801_12010)">
<path d="M98.4032 17.7498L92.2312 20.9948L93.4102 14.1218L88.4102 9.25483L95.3102 8.25483L98.3962 2.00183L101.482 8.25483L108.382 9.25483L103.382 14.1218L104.561 20.9948L98.4032 17.7498Z" fill="#F7C02D"/>
</g>
<mask id="mask4_801_12010" style="mask-type:alpha" maskUnits="userSpaceOnUse" x="115" y="0" width="25" height="24">
<path d="M115.195 0H139.195V24H115.195V0Z" fill="white"/>
</mask>
<g mask="url(#mask4_801_12010)">
<path d="M127.196 17.7498L121.024 20.9948L122.203 14.1218L117.203 9.25483L124.103 8.25483L127.189 2.00183L130.275 8.25483L137.175 9.25483L132.175 14.1218L133.354 20.9948L127.196 17.7498Z" fill="#F7C02D"/>
</g>
</svg>
