<svg width="60" height="60" viewBox="0 0 60 60" fill="none" xmlns="http://www.w3.org/2000/svg">
<mask id="mask0_801_26591" style="mask-type:alpha" maskUnits="userSpaceOnUse" x="0" y="0" width="60" height="60">
<path d="M0 0H60V60H0V0Z" fill="white"/>
</mask>
<g mask="url(#mask0_801_26591)">
<path d="M7.5 17.5C7.5 16.1739 8.02678 14.9021 8.96447 13.9645C9.90215 13.0268 11.1739 12.5 12.5 12.5H47.5C48.8261 12.5 50.0979 13.0268 51.0355 13.9645C51.9732 14.9021 52.5 16.1739 52.5 17.5V42.5C52.5 43.8261 51.9732 45.0979 51.0355 46.0355C50.0979 46.9732 48.8261 47.5 47.5 47.5H12.5C11.1739 47.5 9.90215 46.9732 8.96447 46.0355C8.02678 45.0979 7.5 43.8261 7.5 42.5V17.5Z" stroke="#007CFB" stroke-width="2" stroke-linecap="round" stroke-linejoin="round"/>
<path d="M7.5 17.5L30 32.5L52.5 17.5" stroke="#007CFB" stroke-width="2" stroke-linecap="round" stroke-linejoin="round"/>
</g>
</svg>
