<svg width="60" height="60" viewBox="0 0 60 60" fill="none" xmlns="http://www.w3.org/2000/svg">
<mask id="mask0_801_26574" style="mask-type:alpha" maskUnits="userSpaceOnUse" x="0" y="0" width="60" height="60">
<path d="M0 0H60V60H0V0Z" fill="white"/>
</mask>
<g mask="url(#mask0_801_26574)">
<path d="M7.5 30C7.5 32.9547 8.08198 35.8806 9.21271 38.6104C10.3434 41.3402 12.0008 43.8206 14.0901 45.9099C16.1794 47.9992 18.6598 49.6566 21.3896 50.7873C24.1194 51.918 27.0453 52.5 30 52.5C32.9547 52.5 35.8806 51.918 38.6104 50.7873C41.3402 49.6566 43.8206 47.9992 45.9099 45.9099C47.9992 43.8206 49.6566 41.3402 50.7873 38.6104C51.918 35.8806 52.5 32.9547 52.5 30C52.5 27.0453 51.918 24.1194 50.7873 21.3896C49.6566 18.6598 47.9992 16.1794 45.9099 14.0901C43.8206 12.0008 41.3402 10.3434 38.6104 9.21271C35.8806 8.08198 32.9547 7.5 30 7.5C27.0453 7.5 24.1194 8.08198 21.3896 9.21271C18.6598 10.3434 16.1794 12.0008 14.0901 14.0901C12.0008 16.1794 10.3434 18.6598 9.21271 21.3896C8.08198 24.1194 7.5 27.0453 7.5 30Z" stroke="#007CFB" stroke-width="2" stroke-linecap="round" stroke-linejoin="round"/>
<path d="M30 30L37.5 35" stroke="#007CFB" stroke-width="2" stroke-linecap="round" stroke-linejoin="round"/>
<path d="M30 17.5V30" stroke="#007CFB" stroke-width="2" stroke-linecap="round" stroke-linejoin="round"/>
</g>
</svg>
